<svg width="7" height="13" viewBox="0 0 7 13" fill="none" xmlns="http://www.w3.org/2000/svg">
<path d="M2.83338 6.92395C2.75527 6.84648 2.69328 6.75431 2.65097 6.65277C2.60866 6.55122 2.58688 6.4423 2.58688 6.33228C2.58688 6.22228 2.60866 6.11335 2.65097 6.0118C2.69328 5.91025 2.75527 5.81809 2.83338 5.74062L6.65838 1.92395C6.73649 1.84648 6.79848 1.75431 6.84079 1.65277C6.8831 1.55122 6.90488 1.44229 6.90488 1.33228C6.90488 1.22227 6.8831 1.11335 6.84079 1.0118C6.79848 0.910255 6.73649 0.818087 6.65838 0.740618C6.50224 0.585409 6.29103 0.498291 6.07088 0.498291C5.85072 0.498291 5.63951 0.585409 5.48338 0.740618L1.65838 4.56562C1.19021 5.03437 0.927246 5.66978 0.927246 6.33228C0.927246 6.99479 1.19021 7.6302 1.65838 8.09895L5.48338 11.924C5.6386 12.0779 5.8481 12.1647 6.06671 12.1656C6.17638 12.1663 6.2851 12.1452 6.38664 12.1038C6.48817 12.0623 6.58051 12.0012 6.65838 11.924C6.73649 11.8465 6.79848 11.7543 6.84079 11.6528C6.8831 11.5512 6.90488 11.4423 6.90488 11.3323C6.90488 11.2223 6.8831 11.1134 6.84079 11.0118C6.79848 10.9103 6.73649 10.8181 6.65838 10.7406L2.83338 6.92395Z" fill="#173A48"/>
</svg>
