<svg width="20" height="21" viewBox="0 0 20 21" fill="none" xmlns="http://www.w3.org/2000/svg">
<g clip-path="url(#clip0_8066_4567)">
<rect x="8.61108" y="1.23486" width="10.6347" height="10.6347" rx="5.31733" fill="#9FE0C7"/>
<path d="M11.5374 14.7907L8.81906 17.5091C8.02983 18.2772 6.9699 18.7037 5.8686 18.6964C4.7673 18.689 3.71319 18.2483 2.93432 17.4696C2.15546 16.691 1.71447 15.637 1.70678 14.5357C1.69909 13.4344 2.12531 12.3744 2.89323 11.5849L5.61156 8.86407C5.76782 8.70771 5.85556 8.49567 5.85548 8.27461C5.8554 8.05355 5.76751 7.84158 5.61115 7.68533C5.45478 7.52907 5.24274 7.44133 5.02168 7.44141C4.80063 7.44148 4.58865 7.52937 4.4324 7.68574L1.7149 10.4066C0.616788 11.5052 9.77544e-05 12.9951 0.000488467 14.5485C0.000879179 16.1018 0.618319 17.5914 1.71698 18.6895C2.81564 19.7876 4.30552 20.4043 5.85887 20.4039C7.41222 20.4035 8.90179 19.7861 9.9999 18.6874L12.7182 15.9691C12.87 15.8119 12.954 15.6014 12.9521 15.3829C12.9502 15.1644 12.8626 14.9554 12.7081 14.8009C12.5536 14.6464 12.3446 14.5587 12.1261 14.5568C11.9076 14.5549 11.6971 14.6389 11.5399 14.7907H11.5374Z" fill="#173A48"/>
<path d="M18.2867 2.11913C17.7445 1.57314 17.0992 1.1402 16.3884 0.845379C15.6776 0.55056 14.9154 0.399731 14.1459 0.401632C13.3768 0.399589 12.6149 0.55003 11.9043 0.844258C11.1937 1.13849 10.5484 1.57066 10.0059 2.1158L7.2834 4.83497C7.12703 4.99122 7.03914 5.2032 7.03906 5.42425C7.03898 5.64531 7.12672 5.85735 7.28298 6.01372C7.43924 6.17008 7.65121 6.25797 7.87227 6.25805C8.09333 6.25813 8.30536 6.17039 8.46173 6.01413L11.1826 3.2958C11.5705 2.90551 12.0321 2.59605 12.5404 2.38535C13.0488 2.17465 13.5939 2.06688 14.1442 2.0683C14.9728 2.06857 15.7827 2.31449 16.4715 2.77496C17.1603 3.23544 17.6971 3.8898 18.0141 4.65532C18.3311 5.42084 18.414 6.26315 18.2523 7.07578C18.0907 7.88841 17.6917 8.63487 17.1059 9.2208L14.3876 11.9391C14.2312 12.0955 14.1434 12.3076 14.1434 12.5287C14.1434 12.7499 14.2312 12.9619 14.3876 13.1183C14.5439 13.2747 14.756 13.3625 14.9771 13.3625C15.1983 13.3625 15.4104 13.2747 15.5667 13.1183L18.2851 10.4016C19.3818 9.30255 19.9978 7.81338 19.9981 6.26073C19.9985 4.70807 19.383 3.21866 18.2867 2.11913Z" fill="#173A48"/>
<path d="M11.9109 7.31254L6.9109 12.3125C6.83131 12.3894 6.76782 12.4814 6.72415 12.583C6.68048 12.6847 6.65749 12.7941 6.65653 12.9047C6.65556 13.0154 6.67665 13.1251 6.71855 13.2275C6.76045 13.3299 6.82233 13.423 6.90057 13.5012C6.97882 13.5794 7.07186 13.6413 7.17427 13.6832C7.27669 13.7251 7.38642 13.7462 7.49707 13.7452C7.60772 13.7443 7.71707 13.7213 7.81874 13.6776C7.92041 13.6339 8.01236 13.5705 8.08923 13.4909L13.0892 8.49087C13.241 8.3337 13.325 8.1232 13.3231 7.90471C13.3212 7.68621 13.2336 7.4772 13.0791 7.32269C12.9246 7.16818 12.7156 7.08054 12.4971 7.07864C12.2786 7.07675 12.0681 7.16074 11.9109 7.31254Z" fill="#173A48"/>
</g>
<defs>
<clipPath id="clip0_8066_4567">
<rect width="20" height="20" fill="white" transform="translate(0 0.401611)"/>
</clipPath>
</defs>
</svg>
