<svg width="350" height="214" viewBox="0 0 350 214" fill="none" xmlns="http://www.w3.org/2000/svg">
<rect x="17" width="316" height="107" rx="10" fill="#9FE0C7"/>
<g clip-path="url(#clip0_8350_1782)">
<rect y="8" width="350" height="206" rx="20" fill="url(#paint0_linear_8350_1782)"/>
<rect width="350" height="49" transform="translate(0 8)" fill="white" fill-opacity="0.2"/>
<g opacity="0.08" clip-path="url(#clip1_8350_1782)">
<path d="M52.5423 114.524V151.866C52.5423 153.862 50.8947 155.506 48.894 155.506H45.3242C43.6766 155.506 42.2644 154.332 41.7937 152.805L40.2206 147.768C40.1775 147.521 40.1186 147.27 40.0441 147.024L39.1575 143.834L35.4739 130.611C35.1013 129.359 34.3834 128.341 33.4341 127.609C32.7829 127.104 32.0258 126.736 31.1941 126.517C30.6292 126.36 30.0251 126.282 29.3975 126.274C29.0679 126.286 28.7345 126.294 28.4011 126.294C27.997 126.294 27.5851 126.282 27.1771 126.267H17.825C15.6204 126.267 13.7571 124.439 13.7061 122.137V114.524C13.7061 112.175 15.589 110.296 17.825 110.296H48.4233C50.6593 110.296 52.5423 112.175 52.5423 114.524Z" fill="white"/>
<path fill-rule="evenodd" clip-rule="evenodd" d="M33.9752 101.681L26.8003 103.403L25.6196 103.689L24.9919 103.838L19.6098 105.129L18.578 105.376L18.2838 105.446L18.021 105.509H18.0406L18.4682 105.141L18.8762 104.887L19.6607 104.401L19.8726 104.296L20.7081 103.873L20.7474 103.853L23.9327 102.241L24.8899 101.755L25.4744 101.458L28.1773 100.092L28.3969 99.9782C29.0599 99.6651 29.7895 99.5007 30.5427 99.5281C32.0844 99.5829 33.3437 100.432 33.9752 101.665C33.9752 101.665 33.9752 101.665 33.9752 101.669V101.681Z" fill="white"/>
<path fill-rule="evenodd" clip-rule="evenodd" d="M37.9335 107.865L37.7687 107.873L28.6167 107.881L17.8799 107.893H17.4562H17.3032L17.8171 107.576L18.3349 107.388L18.5428 107.341L25.0038 105.752L27.4438 105.188L29.3307 104.754L31.5471 104.241L32.5121 104.018L33.2182 103.853C33.3438 103.834 33.4693 103.822 33.5948 103.814C33.6497 103.814 33.7007 103.806 33.7557 103.806C33.8655 103.806 33.9753 103.806 34.0852 103.806C36.3251 103.908 37.9492 105.673 37.9296 107.858L37.9335 107.865Z" fill="white"/>
<path d="M-9.32304 151.279L-9.32303 113.937C-9.32303 111.94 -7.67543 110.296 -5.67478 110.296L-2.10498 110.296C-0.457388 110.296 0.954838 111.471 1.42558 112.997L2.99864 118.035C3.04179 118.282 3.10063 118.532 3.17517 118.779L4.06174 121.969L7.74529 135.191C8.11796 136.444 8.83584 137.461 9.78517 138.193C10.4364 138.698 11.1935 139.066 12.0251 139.285C12.59 139.442 13.1941 139.52 13.8218 139.528C14.1513 139.516 14.4847 139.509 14.8182 139.509C15.2222 139.509 15.6341 139.52 16.0421 139.536L25.3942 139.536C27.5988 139.536 29.4622 141.364 29.5132 143.665L29.5132 151.279C29.5132 153.627 27.6302 155.506 25.3942 155.506L-5.20404 155.506C-7.44007 155.506 -9.32304 153.627 -9.32304 151.279Z" fill="white"/>
<path fill-rule="evenodd" clip-rule="evenodd" d="M9.24376 164.121L16.4187 162.399L17.5994 162.113L18.2271 161.965L23.6092 160.673L24.641 160.426L24.9352 160.356L25.198 160.293L25.1784 160.293L24.7508 160.661L24.3428 160.916L23.5582 161.401L23.3464 161.507L22.5108 161.929L22.4716 161.949L19.2863 163.562L18.3291 164.047L17.7446 164.344L15.0417 165.71L14.8221 165.824C14.1591 166.137 13.4294 166.302 12.6763 166.274C11.1346 166.219 9.87534 165.37 9.24376 164.137C9.24376 164.137 9.24376 164.137 9.24376 164.133L9.24376 164.121Z" fill="white"/>
<path fill-rule="evenodd" clip-rule="evenodd" d="M5.28574 157.937L5.4505 157.929L14.6025 157.921L25.3394 157.909L25.763 157.909L25.916 157.909L25.4021 158.226L24.8843 158.414L24.6764 158.461L18.2155 160.05L15.7754 160.614L13.8886 161.049L11.6721 161.561L10.7071 161.784L10.001 161.949C9.87548 161.968 9.74995 161.98 9.62441 161.988C9.56949 161.988 9.5185 161.996 9.46358 161.996C9.35374 161.996 9.2439 161.996 9.13406 161.996C6.89411 161.894 5.27005 160.129 5.28966 157.945L5.28574 157.937Z" fill="white"/>
<path d="M125.783 114.524V151.866C125.783 153.862 124.136 155.506 122.135 155.506H118.565C116.918 155.506 115.506 154.332 115.035 152.805L113.462 147.768C113.419 147.521 113.36 147.27 113.285 147.024L112.399 143.834L108.715 130.611C108.342 129.359 107.625 128.341 106.675 127.609C106.024 127.104 105.267 126.736 104.435 126.517C103.87 126.36 103.266 126.282 102.639 126.274C102.309 126.286 101.976 126.294 101.642 126.294C101.238 126.294 100.826 126.282 100.418 126.267H91.0663C88.8616 126.267 86.9983 124.439 86.9473 122.137V114.524C86.9473 112.175 88.8302 110.296 91.0663 110.296H121.664C123.901 110.296 125.783 112.175 125.783 114.524Z" fill="white"/>
<path fill-rule="evenodd" clip-rule="evenodd" d="M107.216 101.681L100.042 103.403L98.8608 103.689L98.2331 103.838L92.851 105.129L91.8193 105.376L91.525 105.446L91.2622 105.509H91.2818L91.7094 105.141L92.1174 104.887L92.902 104.401L93.1138 104.296L93.9494 103.873L93.9886 103.853L97.1739 102.241L98.1311 101.755L98.7156 101.458L101.418 100.092L101.638 99.9782C102.301 99.6651 103.031 99.5007 103.784 99.5281C105.326 99.5829 106.585 100.432 107.216 101.665C107.216 101.665 107.216 101.665 107.216 101.669V101.681Z" fill="white"/>
<path fill-rule="evenodd" clip-rule="evenodd" d="M111.175 107.865L111.01 107.873L101.858 107.881L91.1211 107.893H90.6974H90.5444L91.0583 107.576L91.5761 107.388L91.7841 107.341L98.245 105.752L100.685 105.188L102.572 104.754L104.788 104.241L105.753 104.018L106.459 103.853C106.585 103.834 106.711 103.822 106.836 103.814C106.891 103.814 106.942 103.806 106.997 103.806C107.107 103.806 107.217 103.806 107.326 103.806C109.566 103.908 111.19 105.673 111.171 107.858L111.175 107.865Z" fill="white"/>
<path d="M63.9184 151.279L63.9184 113.937C63.9184 111.94 65.566 110.296 67.5667 110.296L71.1365 110.296C72.7841 110.296 74.1963 111.471 74.667 112.997L76.2401 118.035C76.2832 118.282 76.3421 118.532 76.4166 118.779L77.3032 121.969L80.9867 135.191C81.3594 136.444 82.0773 137.461 83.0266 138.193C83.6778 138.698 84.4349 139.066 85.2666 139.285C85.8315 139.442 86.4356 139.52 87.0632 139.528C87.3928 139.516 87.7262 139.509 88.0596 139.509C88.4637 139.509 88.8756 139.52 89.2836 139.536L98.6356 139.536C100.84 139.536 102.704 141.364 102.755 143.665L102.755 151.279C102.755 153.627 100.872 155.506 98.6356 155.506L68.0374 155.506C65.8014 155.506 63.9184 153.627 63.9184 151.279Z" fill="white"/>
<path fill-rule="evenodd" clip-rule="evenodd" d="M82.4852 164.121L89.6601 162.399L90.8409 162.113L91.4686 161.965L96.8507 160.673L97.8824 160.426L98.1766 160.356L98.4395 160.293L98.4198 160.293L97.9922 160.661L97.5843 160.916L96.7997 161.401L96.5879 161.507L95.7523 161.929L95.7131 161.949L92.5277 163.562L91.5705 164.047L90.986 164.344L88.2832 165.71L88.0635 165.824C87.4006 166.137 86.6709 166.302 85.9177 166.274C84.376 166.219 83.1168 165.37 82.4852 164.137C82.4852 164.137 82.4852 164.137 82.4852 164.133L82.4852 164.121Z" fill="white"/>
<path fill-rule="evenodd" clip-rule="evenodd" d="M78.5272 157.937L78.692 157.929L87.844 157.921L98.5808 157.909L99.0045 157.909L99.1575 157.909L98.6436 158.226L98.1258 158.414L97.9178 158.461L91.4569 160.05L89.0169 160.614L87.13 161.049L84.9136 161.561L83.9486 161.784L83.2425 161.949C83.1169 161.968 82.9914 161.98 82.8659 161.988C82.8109 161.988 82.76 161.996 82.705 161.996C82.5952 161.996 82.4854 161.996 82.3755 161.996C80.1356 161.894 78.5115 160.129 78.5311 157.945L78.5272 157.937Z" fill="white"/>
<path d="M14.6062 185.973V223.315C14.6062 225.311 12.9586 226.955 10.958 226.955H7.38819C5.74059 226.955 4.32837 225.781 3.85763 224.254L2.28456 219.217C2.24142 218.97 2.18257 218.719 2.10804 218.473L1.22147 215.283L-2.46209 202.06C-2.83476 200.808 -3.55264 199.79 -4.50197 199.058C-5.15316 198.553 -5.91027 198.185 -6.74192 197.966C-7.30681 197.809 -7.91092 197.731 -8.53858 197.723C-8.8681 197.735 -9.20154 197.743 -9.53498 197.743C-9.93904 197.743 -10.3509 197.731 -10.7589 197.716H-20.111C-22.3156 197.716 -24.179 195.888 -24.23 193.586V185.973C-24.23 183.624 -22.347 181.745 -20.111 181.745H10.4872C12.7233 181.745 14.6062 183.624 14.6062 185.973Z" fill="white"/>
<path fill-rule="evenodd" clip-rule="evenodd" d="M-0.00254059 179.314L-0.167299 179.322L-9.31931 179.33L-20.0562 179.342H-20.4798H-20.6328L-20.1189 179.025L-19.6011 178.837L-19.3932 178.79L-12.9323 177.201L-10.4922 176.637L-8.60535 176.203L-6.38894 175.69L-5.42392 175.467L-4.71781 175.302C-4.59228 175.283 -4.46674 175.271 -4.34121 175.263C-4.28629 175.263 -4.23529 175.255 -4.18037 175.255C-4.07053 175.255 -3.9607 175.255 -3.85085 175.255C-1.61091 175.357 0.0131531 177.122 -0.00646019 179.307L-0.00254059 179.314Z" fill="white"/>
<path d="M87.8479 185.973V223.315C87.8479 225.311 86.2003 226.955 84.1997 226.955H80.6299C78.9823 226.955 77.5701 225.781 77.0993 224.254L75.5263 219.217C75.4831 218.97 75.4243 218.719 75.3497 218.473L74.4632 215.283L70.7796 202.06C70.4069 200.808 69.6891 199.79 68.7397 199.058C68.0885 198.553 67.3314 198.185 66.4998 197.966C65.9349 197.809 65.3308 197.731 64.7031 197.723C64.3736 197.735 64.0402 197.743 63.7067 197.743C63.3027 197.743 62.8908 197.731 62.4828 197.716H53.1307C50.9261 197.716 49.0627 195.888 49.0117 193.586V185.973C49.0117 183.624 50.8947 181.745 53.1307 181.745H83.7289C85.965 181.745 87.8479 183.624 87.8479 185.973Z" fill="white"/>
<path fill-rule="evenodd" clip-rule="evenodd" d="M69.2811 173.13L62.1062 174.852L60.9255 175.138L60.2978 175.287L54.9157 176.578L53.8839 176.825L53.5897 176.895L53.3269 176.958H53.3465L53.7741 176.59L54.1821 176.336L54.9667 175.85L55.1785 175.745L56.0141 175.322L56.0533 175.302L59.2386 173.69L60.1958 173.204L60.7803 172.907L63.4832 171.541L63.7028 171.427C64.3658 171.114 65.0955 170.95 65.8486 170.977C67.3903 171.032 68.6496 171.881 69.2811 173.114C69.2811 173.114 69.2811 173.114 69.2811 173.118V173.13Z" fill="white"/>
<path fill-rule="evenodd" clip-rule="evenodd" d="M73.2392 179.314L73.0744 179.322L63.9224 179.33L53.1855 179.342H52.7619H52.6089L53.1228 179.025L53.6406 178.837L53.8485 178.79L60.3094 177.201L62.7495 176.637L64.6363 176.203L66.8528 175.69L67.8178 175.467L68.5239 175.302C68.6494 175.283 68.775 175.271 68.9005 175.263C68.9554 175.263 69.0064 175.255 69.0613 175.255C69.1712 175.255 69.281 175.255 69.3908 175.255C71.6308 175.357 73.2549 177.122 73.2352 179.307L73.2392 179.314Z" fill="white"/>
<path d="M25.9826 222.728L25.9826 185.386C25.9826 183.389 27.6302 181.745 29.6309 181.745L33.2007 181.745C34.8483 181.745 36.2605 182.92 36.7312 184.446L38.3043 189.484C38.3475 189.731 38.4063 189.981 38.4808 190.228L39.3674 193.418L43.051 206.64C43.4236 207.893 44.1415 208.91 45.0908 209.642C45.742 210.147 46.4991 210.515 47.3308 210.734C47.8957 210.891 48.4998 210.969 49.1274 210.977C49.457 210.965 49.7904 210.958 50.1239 210.958C50.5279 210.958 50.9398 210.969 51.3478 210.985L60.6999 210.985C62.9045 210.985 64.7679 212.813 64.8188 215.114L64.8188 222.728C64.8188 225.076 62.9359 226.955 60.6999 226.955L30.1016 226.955C27.8656 226.955 25.9826 225.076 25.9826 222.728Z" fill="white"/>
<path d="M161.089 185.973V223.315C161.089 225.311 159.442 226.955 157.441 226.955H153.871C152.224 226.955 150.811 225.781 150.341 224.254L148.767 219.217C148.724 218.97 148.665 218.719 148.591 218.473L147.704 215.283L144.021 202.06C143.648 200.808 142.93 199.79 141.981 199.058C141.33 198.553 140.573 198.185 139.741 197.966C139.176 197.809 138.572 197.731 137.944 197.723C137.615 197.735 137.281 197.743 136.948 197.743C136.544 197.743 136.132 197.731 135.724 197.716H126.372C124.167 197.716 122.304 195.888 122.253 193.586V185.973C122.253 183.624 124.136 181.745 126.372 181.745H156.97C159.206 181.745 161.089 183.624 161.089 185.973Z" fill="white"/>
<path fill-rule="evenodd" clip-rule="evenodd" d="M142.522 173.13L135.347 174.852L134.167 175.138L133.539 175.287L128.157 176.578L127.125 176.825L126.831 176.895L126.568 176.958H126.588L127.015 176.59L127.423 176.336L128.208 175.85L128.42 175.745L129.255 175.322L129.294 175.302L132.48 173.69L133.437 173.204L134.022 172.907L136.724 171.541L136.944 171.427C137.607 171.114 138.337 170.95 139.09 170.977C140.632 171.032 141.891 171.881 142.522 173.114C142.522 173.114 142.522 173.114 142.522 173.118V173.13Z" fill="white"/>
<path fill-rule="evenodd" clip-rule="evenodd" d="M146.48 179.314L146.316 179.322L137.164 179.33L126.427 179.342H126.003H125.85L126.364 179.025L126.882 178.837L127.09 178.79L133.551 177.201L135.991 176.637L137.878 176.203L140.094 175.69L141.059 175.467L141.765 175.302C141.891 175.283 142.016 175.271 142.142 175.263C142.197 175.263 142.248 175.255 142.303 175.255C142.412 175.255 142.522 175.255 142.632 175.255C144.872 175.357 146.496 177.122 146.476 179.307L146.48 179.314Z" fill="white"/>
<path d="M99.2241 222.728L99.2241 185.386C99.2241 183.389 100.872 181.745 102.872 181.745L106.442 181.745C108.09 181.745 109.502 182.92 109.973 184.446L111.546 189.484C111.589 189.731 111.648 189.981 111.722 190.228L112.609 193.418L116.292 206.64C116.665 207.893 117.383 208.91 118.332 209.642C118.983 210.147 119.741 210.515 120.572 210.734C121.137 210.891 121.741 210.969 122.369 210.977C122.698 210.965 123.032 210.958 123.365 210.958C123.769 210.958 124.181 210.969 124.589 210.985L133.941 210.985C136.146 210.985 138.009 212.813 138.06 215.114L138.06 222.728C138.06 225.076 136.177 226.955 133.941 226.955L103.343 226.955C101.107 226.955 99.2241 225.076 99.2241 222.728Z" fill="white"/>
</g>
<path d="M252.021 30.6729L250.074 31.9707C249.75 32.1792 249.333 32.1329 249.054 31.878C248.359 31.2291 247.432 30.8351 246.25 30.8351C244.944 30.8351 243.935 31.3241 243.227 32.0773C242.402 32.9548 241.986 34.1893 241.986 35.4237C241.986 37.718 243.423 40.0124 246.25 40.0124C247.697 40.0124 248.733 39.5017 249.424 38.7177C249.432 38.7177 249.439 38.7169 249.446 38.7169C249.625 38.7207 249.783 38.7725 249.903 38.866C250.007 38.9463 250.078 39.0522 250.117 39.1819L250.929 42.1027C250.591 42.4264 250.216 42.7092 249.803 42.9463C248.834 43.5041 247.655 43.8131 246.25 43.8131C241.453 43.8131 238 40.2209 238 35.4237C238 35.09 238.016 34.7625 238.05 34.4411C238.433 30.6366 241.041 27.7683 244.71 27.1402C245.205 27.0553 245.72 27.0112 246.25 27.0112C248.637 27.0112 250.7 27.9151 252.16 29.3982C252.508 29.769 252.461 30.3948 252.021 30.6729Z" fill="white"/>
<path d="M253.999 35.857V43.2266C253.999 43.6206 253.674 43.9451 253.28 43.9451H252.577C252.253 43.9451 251.975 43.7133 251.882 43.412L251.572 42.4178C251.564 42.3692 251.552 42.3197 251.537 42.2711L251.363 41.6415L250.637 39.032C250.564 38.7848 250.423 38.5839 250.236 38.4395C250.107 38.3398 249.958 38.2672 249.795 38.2239C249.683 38.193 249.564 38.1776 249.441 38.176C249.376 38.1784 249.31 38.1799 249.245 38.1799C249.165 38.1799 249.084 38.1776 249.004 38.1745H247.162C246.728 38.1745 246.361 37.8137 246.351 37.3595V35.857C246.351 35.3935 246.722 35.0227 247.162 35.0227H253.187C253.628 35.0227 253.999 35.3935 253.999 35.857Z" fill="white"/>
<path fill-rule="evenodd" clip-rule="evenodd" d="M250.342 33.3224L248.929 33.6623L248.697 33.7187L248.573 33.7481L247.513 34.003L247.31 34.0517L247.252 34.0656L247.2 34.0779H247.204L247.289 34.0053L247.369 33.9551L247.523 33.8593L247.565 33.8385L247.73 33.755L247.737 33.7512L248.365 33.4329L248.553 33.3371L248.668 33.2784L249.2 33.0088L249.244 32.9864C249.374 32.9246 249.518 32.8921 249.666 32.8976C249.97 32.9084 250.218 33.076 250.342 33.3193C250.342 33.3193 250.342 33.3193 250.342 33.3201V33.3224Z" fill="white"/>
<path fill-rule="evenodd" clip-rule="evenodd" d="M251.122 34.543L251.089 34.5446L249.287 34.5461L247.173 34.5484H247.089H247.059L247.16 34.4859L247.262 34.4488L247.303 34.4395L248.575 34.1259L249.056 34.0146L249.428 33.9289L249.864 33.8277L250.054 33.7837L250.193 33.7512C250.218 33.7474 250.243 33.745 250.267 33.7435C250.278 33.7435 250.288 33.7419 250.299 33.7419C250.321 33.7419 250.342 33.7419 250.364 33.7419C250.805 33.762 251.125 34.1104 251.121 34.5415L251.122 34.543Z" fill="white"/>
<path d="M261.745 31.7273C265.43 31.7273 268.048 34.3924 268.048 37.8918C268.048 41.3681 265.43 44.0564 261.745 44.0564C258.083 44.0564 255.441 41.3681 255.441 37.8918C255.441 34.3924 258.083 31.7273 261.745 31.7273ZM261.745 40.3947C263.274 40.3947 264.271 39.2591 264.271 37.8918C264.271 36.5245 263.274 35.3658 261.745 35.3658C260.238 35.3658 259.242 36.5245 259.242 37.8918C259.242 39.2591 260.238 40.3947 261.745 40.3947Z" fill="white"/>
<path d="M278.453 32.4278C278.187 32.4278 277.953 32.3344 277.753 32.1478C277.553 31.9478 277.453 31.7011 277.453 31.4078C277.453 31.1144 277.553 30.8744 277.753 30.6878C277.953 30.4878 278.187 30.3878 278.453 30.3878C278.733 30.3878 278.967 30.4878 279.153 30.6878C279.353 30.8744 279.453 31.1144 279.453 31.4078C279.453 31.7011 279.353 31.9478 279.153 32.1478C278.967 32.3344 278.733 32.4278 278.453 32.4278ZM280.873 32.4278C280.593 32.4278 280.353 32.3344 280.153 32.1478C279.967 31.9478 279.873 31.7011 279.873 31.4078C279.873 31.1144 279.967 30.8744 280.153 30.6878C280.353 30.4878 280.593 30.3878 280.873 30.3878C281.153 30.3878 281.387 30.4878 281.573 30.6878C281.773 30.8744 281.873 31.1144 281.873 31.4078C281.873 31.7011 281.773 31.9478 281.573 32.1478C281.387 32.3344 281.153 32.4278 280.873 32.4278ZM284.373 40.0278H285.073V41.9678H284.433C283.407 41.9678 282.593 41.6878 281.993 41.1278C281.687 41.4611 281.313 41.7211 280.873 41.9078C280.447 42.0811 279.967 42.1678 279.433 42.1678C278.78 42.1678 278.18 42.0211 277.633 41.7278C277.1 41.4344 276.673 41.0078 276.353 40.4478C276.033 39.8878 275.873 39.2078 275.873 38.4078C275.873 37.6078 276.033 36.9278 276.353 36.3678C276.673 35.8078 277.1 35.3811 277.633 35.0878C278.18 34.7944 278.78 34.6478 279.433 34.6478H281.013V34.5478C281.013 34.1211 281.153 33.7944 281.433 33.5678C281.727 33.3278 282.1 33.2078 282.553 33.2078H282.733C282.88 33.2078 282.953 33.2744 282.953 33.4078V38.3678C282.953 38.8744 283.073 39.2811 283.313 39.5878C283.553 39.8811 283.907 40.0278 284.373 40.0278ZM279.433 40.3278C279.98 40.3278 280.373 40.1411 280.613 39.7678C280.867 39.3811 281 38.9278 281.013 38.4078V36.4878H279.453C278.92 36.4878 278.527 36.6811 278.273 37.0678C278.02 37.4411 277.887 37.8878 277.873 38.4078C277.887 38.9278 278.02 39.3811 278.273 39.7678C278.527 40.1411 278.913 40.3278 279.433 40.3278ZM299.134 40.0278H299.834V41.9678H299.194C298.594 41.9678 298.087 41.8744 297.674 41.6878C297.26 41.5011 296.92 41.2744 296.654 41.0078C295.987 41.6478 295.167 41.9678 294.194 41.9678H284.854V40.0278H286.894V32.4878C286.894 31.3944 287.414 30.8478 288.454 30.8478H288.614C288.76 30.8478 288.834 30.9144 288.834 31.0478V36.5078C289.434 35.8411 290.14 35.3078 290.954 34.9078C291.767 34.4944 292.66 34.2878 293.634 34.2878C294.46 34.2878 295.18 34.4544 295.794 34.7878C296.407 35.1211 296.88 35.5878 297.214 36.1878C297.547 36.7744 297.714 37.4544 297.714 38.2278V38.4478C297.727 39.0211 297.874 39.4278 298.154 39.6678C298.447 39.9078 298.774 40.0278 299.134 40.0278ZM293.114 33.1278C292.82 33.1278 292.567 33.0211 292.354 32.8078C292.154 32.5944 292.054 32.3411 292.054 32.0478C292.054 31.7411 292.154 31.4878 292.354 31.2878C292.567 31.0878 292.82 30.9878 293.114 30.9878C293.407 30.9878 293.654 31.0878 293.854 31.2878C294.054 31.4878 294.154 31.7411 294.154 32.0478C294.154 32.3411 294.054 32.5944 293.854 32.8078C293.654 33.0211 293.407 33.1278 293.114 33.1278ZM288.834 40.0278H294.074C294.62 40.0278 295.034 39.8344 295.314 39.4478C295.594 39.0611 295.734 38.6278 295.734 38.1478C295.72 37.4411 295.494 36.9278 295.054 36.6078C294.614 36.2744 294.1 36.1078 293.514 36.1078C292.46 36.1078 291.52 36.4744 290.694 37.2078C289.88 37.9278 289.26 38.8678 288.834 40.0278ZM304.999 33.0878C304.706 33.0878 304.453 32.9811 304.239 32.7678C304.039 32.5544 303.939 32.3011 303.939 32.0078C303.939 31.7011 304.039 31.4478 304.239 31.2478C304.453 31.0344 304.706 30.9278 304.999 30.9278C305.293 30.9278 305.539 31.0344 305.739 31.2478C305.939 31.4478 306.039 31.7011 306.039 32.0078C306.039 32.3011 305.939 32.5544 305.739 32.7678C305.539 32.9811 305.293 33.0878 304.999 33.0878ZM307.759 40.0278H310.579V41.9678H306.599C306.306 41.9678 306.013 41.9411 305.719 41.8878C305.426 41.8344 305.173 41.7211 304.959 41.5478C304.746 41.7211 304.493 41.8344 304.199 41.8878C303.906 41.9411 303.613 41.9678 303.319 41.9678H299.619V40.0278H302.179C301.913 39.7211 301.713 39.3678 301.579 38.9678C301.446 38.5678 301.379 38.2078 301.379 37.8878C301.379 37.2611 301.526 36.6744 301.819 36.1278C302.113 35.5811 302.526 35.1411 303.059 34.8078C303.593 34.4611 304.226 34.2878 304.959 34.2878C305.693 34.2878 306.326 34.4611 306.859 34.8078C307.406 35.1411 307.826 35.5811 308.119 36.1278C308.413 36.6744 308.553 37.2611 308.539 37.8878C308.539 38.2078 308.473 38.5678 308.339 38.9678C308.219 39.3678 308.026 39.7211 307.759 40.0278ZM304.959 39.9078C305.333 39.7878 305.686 39.5478 306.019 39.1878C306.366 38.8144 306.539 38.3678 306.539 37.8478C306.526 37.3411 306.373 36.9278 306.079 36.6078C305.786 36.2744 305.413 36.1078 304.959 36.1078C304.519 36.1078 304.146 36.2744 303.839 36.6078C303.546 36.9278 303.399 37.3411 303.399 37.8478C303.386 38.3678 303.553 38.8144 303.899 39.1878C304.246 39.5478 304.599 39.7878 304.959 39.9078ZM321.122 40.0278H321.542V41.9678H321.102C320.608 41.9678 320.168 41.9011 319.782 41.7678C319.395 41.6211 319.095 41.4611 318.882 41.2878C318.548 41.5011 318.188 41.6678 317.802 41.7878C317.415 41.9078 316.875 41.9678 316.182 41.9678H310.382L310.362 40.0278H316.382C316.755 40.0278 317.042 40.0011 317.242 39.9478C317.455 39.8811 317.655 39.7811 317.842 39.6478C317.735 39.4478 317.628 39.2144 317.522 38.9478C317.428 38.6678 317.315 38.3344 317.182 37.9478C316.968 37.3878 316.682 36.9411 316.322 36.6078C315.975 36.2744 315.508 36.1078 314.922 36.1078C314.468 36.1078 314.035 36.2078 313.622 36.4078C313.222 36.6078 312.862 36.8478 312.542 37.1278C312.422 37.2478 312.302 37.3011 312.182 37.2878C312.008 37.2878 311.922 37.2011 311.922 37.0278C311.922 36.6678 312.042 36.2878 312.282 35.8878C312.522 35.4878 312.788 35.1811 313.082 34.9678C313.375 34.7411 313.688 34.5744 314.022 34.4678C314.368 34.3478 314.768 34.2878 315.222 34.2878C316.235 34.2878 317.062 34.5811 317.702 35.1678C318.342 35.7544 318.848 36.5878 319.222 37.6678C319.408 38.2278 319.568 38.6878 319.702 39.0478C319.848 39.3944 320.042 39.6478 320.282 39.8078C320.495 39.9544 320.775 40.0278 321.122 40.0278ZM327.299 34.2878C327.939 34.2878 328.479 34.4211 328.919 34.6878C329.372 34.9411 329.732 35.2811 329.999 35.7078C330.279 36.1211 330.479 36.5811 330.599 37.0878C330.719 37.5811 330.779 38.0611 330.779 38.5278C330.779 39.7144 330.472 40.6211 329.859 41.2478C329.245 41.8611 328.405 42.1678 327.339 42.1678C326.725 42.1678 326.145 42.0944 325.599 41.9478C325.065 41.8011 324.505 41.5744 323.919 41.2678C323.599 41.5611 323.245 41.7544 322.859 41.8478C322.472 41.9411 322.052 41.9878 321.599 41.9878H321.319V40.0278H321.539C321.885 40.0278 322.159 39.9811 322.359 39.8878C322.572 39.7944 322.759 39.6144 322.919 39.3478C323.079 39.0811 323.272 38.7011 323.499 38.2078C323.845 37.5011 324.185 36.8544 324.519 36.2678C324.852 35.6678 325.239 35.1878 325.679 34.8278C326.119 34.4678 326.659 34.2878 327.299 34.2878ZM327.419 40.2878C327.805 40.2611 328.125 40.1278 328.379 39.8878C328.632 39.6478 328.759 39.1878 328.759 38.5078C328.759 37.6944 328.625 37.0944 328.359 36.7078C328.105 36.3078 327.779 36.1078 327.379 36.1078C327.019 36.1078 326.685 36.3744 326.379 36.9078C326.072 37.4278 325.765 38.0411 325.459 38.7478C325.365 38.9478 325.279 39.1211 325.199 39.2678C325.132 39.4011 325.065 39.5211 324.999 39.6278C325.532 39.9078 325.999 40.0944 326.399 40.1878C326.812 40.2678 327.152 40.3011 327.419 40.2878Z" fill="#F6F7F9"/>
</g>
<defs>
<linearGradient id="paint0_linear_8350_1782" x1="0" y1="111" x2="350" y2="111" gradientUnits="userSpaceOnUse">
<stop stop-color="#3EA981"/>
<stop offset="1" stop-color="#1A5249"/>
</linearGradient>
<clipPath id="clip0_8350_1782">
<rect y="8" width="350" height="206" rx="20" fill="white"/>
</clipPath>
<clipPath id="clip1_8350_1782">
<rect width="161" height="139" fill="white" transform="translate(0 75)"/>
</clipPath>
</defs>
</svg>
