<svg width="24" height="24" viewBox="0 0 24 24" fill="none" xmlns="http://www.w3.org/2000/svg">
<path d="M13.8566 17.3927C14.3366 17.8727 14.0783 18.6919 13.4116 18.8152C13.405 18.816 13.3983 18.8177 13.3916 18.8185C13.1233 18.8677 12.845 18.7744 12.6516 18.581L3.34663 9.27688C3.0458 8.97604 3.0158 8.50021 3.27746 8.16521C3.2808 8.16104 3.28413 8.15604 3.2883 8.15188C3.59746 7.75688 4.1883 7.72354 4.54246 8.07854L13.8566 17.3927ZM1.93996 10.2277C1.8208 10.4544 1.72246 10.656 1.6483 10.8177C1.4508 11.2519 1.4508 11.7494 1.6483 12.1844C1.68246 12.2602 1.72663 12.3502 1.7708 12.441L6.69996 17.3702C7.35163 18.0219 8.16496 18.4919 9.0608 18.706C9.13246 18.7235 9.20496 18.7394 9.2783 18.7552C9.7258 18.8519 10.03 18.3185 9.70663 17.9952L1.93996 10.2277ZM21.2558 20.0777C21.5816 20.4035 21.5816 20.9302 21.2558 21.256C21.0933 21.4185 20.88 21.5002 20.6666 21.5002C20.4533 21.5002 20.24 21.4185 20.0775 21.256L1.74413 2.92271C1.4183 2.59688 1.4183 2.07021 1.74413 1.74438C2.06996 1.41854 2.59663 1.41854 2.92246 1.74438L6.47913 5.30104C8.0108 4.43771 9.69746 4.00021 11.5 4.00021C16.66 4.00021 19.6 7.53188 20.8925 9.63688C21.7075 10.9635 21.7075 12.6119 20.8925 13.9385C20.3658 14.796 19.4941 15.9994 18.2441 17.066L21.2558 20.0777ZM8.60496 7.42688L9.8083 8.63021C10.305 8.33604 10.8833 8.16771 11.5008 8.16771C13.3391 8.16771 14.8341 9.66271 14.8341 11.501C14.8341 12.1185 14.665 12.6969 14.3716 13.1935L15.5741 14.396C16.1566 13.5785 16.5008 12.5794 16.5008 11.501C16.5008 8.74354 14.2583 6.50104 11.5008 6.50104C10.4225 6.50104 9.4233 6.84438 8.6058 7.42771L8.60496 7.42688Z" fill="white"/>
</svg>
