<svg width="45" height="45" viewBox="0 0 45 45" fill="none" xmlns="http://www.w3.org/2000/svg">
<rect width="45" height="45" rx="22.5" fill="white" fill-opacity="0.2"/>
<path d="M24.8566 28.3927C25.3366 28.8727 25.0783 29.6919 24.4116 29.8152C24.405 29.816 24.3983 29.8177 24.3916 29.8185C24.1233 29.8677 23.845 29.7744 23.6516 29.581L14.3466 20.2769C14.0458 19.976 14.0158 19.5002 14.2775 19.1652C14.2808 19.161 14.2841 19.156 14.2883 19.1519C14.5975 18.7569 15.1883 18.7235 15.5425 19.0785L24.8566 28.3927ZM12.94 21.2277C12.8208 21.4544 12.7225 21.656 12.6483 21.8177C12.4508 22.2519 12.4508 22.7494 12.6483 23.1844C12.6825 23.2602 12.7266 23.3502 12.7708 23.441L17.7 28.3702C18.3516 29.0219 19.165 29.4919 20.0608 29.706C20.1325 29.7235 20.205 29.7394 20.2783 29.7552C20.7258 29.8519 21.03 29.3185 20.7066 28.9952L12.94 21.2277ZM32.2558 31.0777C32.5816 31.4035 32.5816 31.9302 32.2558 32.256C32.0933 32.4185 31.88 32.5002 31.6666 32.5002C31.4533 32.5002 31.24 32.4185 31.0775 32.256L12.7441 13.9227C12.4183 13.5969 12.4183 13.0702 12.7441 12.7444C13.07 12.4185 13.5966 12.4185 13.9225 12.7444L17.4791 16.301C19.0108 15.4377 20.6975 15.0002 22.5 15.0002C27.66 15.0002 30.6 18.5319 31.8925 20.6369C32.7075 21.9635 32.7075 23.6119 31.8925 24.9385C31.3658 25.796 30.4941 26.9994 29.2441 28.066L32.2558 31.0777ZM19.605 18.4269L20.8083 19.6302C21.305 19.336 21.8833 19.1677 22.5008 19.1677C24.3391 19.1677 25.8341 20.6627 25.8341 22.501C25.8341 23.1185 25.665 23.6969 25.3716 24.1935L26.5741 25.396C27.1566 24.5785 27.5008 23.5794 27.5008 22.501C27.5008 19.7435 25.2583 17.501 22.5008 17.501C21.4225 17.501 20.4233 17.8444 19.6058 18.4277L19.605 18.4269Z" fill="white"/>
</svg>
