<svg width="24" height="24" viewBox="0 0 24 24" fill="none" xmlns="http://www.w3.org/2000/svg">
<g clip-path="url(#clip0_8043_3454)">
<path d="M23.665 22.587L23.143 23.187C22.592 23.739 21.866 24 21.143 24C17.429 24 12 18.857 12 14.857C12 14.134 12.261 13.408 12.813 12.857L13.413 12.335C13.859 11.889 14.583 11.889 15.029 12.335L16.237 13.637C16.683 14.083 16.683 14.807 16.237 15.253L15.212 16.289C16.113 18.533 17.641 19.999 19.712 20.789L20.748 19.764C21.194 19.318 21.918 19.318 22.364 19.764L23.666 20.972C24.112 21.418 24.112 22.142 23.666 22.588L23.665 22.587ZM14 23C14 23.552 13.553 24 13 24H4C1.794 24 0 22.206 0 20V5C0 2.243 2.243 0 5 0H15C17.757 0 20 2.243 20 5V13C20 13.552 19.553 14 19 14C18.447 14 18 13.552 18 13V5C18 3.346 16.654 2 15 2H6V16H9C9.553 16 10 16.448 10 17C10 17.552 9.553 18 9 18H4C2.897 18 2 18.897 2 20C2 21.103 2.897 22 4 22H13C13.553 22 14 22.448 14 23ZM2 5V16.556C2.591 16.212 3.268 16 4 16V2.184C2.839 2.598 2 3.698 2 5Z" fill="white"/>
</g>
<defs>
<clipPath id="clip0_8043_3454">
<rect width="24" height="24" fill="white"/>
</clipPath>
</defs>
</svg>
