<svg width="21" height="21" viewBox="0 0 21 21" fill="none" xmlns="http://www.w3.org/2000/svg">
<g clip-path="url(#clip0_8066_4443)">
<path fill-rule="evenodd" clip-rule="evenodd" d="M20.1431 13.8394H1.28174C2.65448 17.7233 6.3585 20.506 10.7124 20.506C15.0664 20.506 18.7704 17.7233 20.1431 13.8394Z" fill="#262626"/>
<path fill-rule="evenodd" clip-rule="evenodd" d="M1.28165 13.8395H20.143C20.5115 12.7969 20.712 11.675 20.712 10.5062C20.712 9.3374 20.5115 8.21545 20.143 7.17285H1.28165C0.913154 8.21545 0.712646 9.3374 0.712646 10.5062C0.712646 11.675 0.913154 12.7969 1.28165 13.8395Z" fill="white"/>
<path fill-rule="evenodd" clip-rule="evenodd" d="M1.28174 7.17277H20.1431C18.7704 3.2888 15.0664 0.506104 10.7124 0.506104C6.3585 0.506104 2.65448 3.2888 1.28174 7.17277Z" fill="#F1453D"/>
<path fill-rule="evenodd" clip-rule="evenodd" d="M10.7397 10.564L13.0226 12.6833L12.8601 8.8343C12.8362 8.25097 12.3293 8.3848 11.961 8.59522C11.588 8.8343 11.1624 8.8343 10.7128 8.67646C10.2633 8.8343 9.83774 8.8343 9.46471 8.59522C9.09651 8.38481 8.58964 8.25096 8.56571 8.8343L8.40308 12.6833L10.7397 10.564Z" fill="white"/>
<path fill-rule="evenodd" clip-rule="evenodd" d="M10.7254 10.5794L13.0083 12.6987L13.046 12.7338L13.0439 12.6823L12.8813 8.83334C12.8699 8.55391 12.7479 8.41139 12.5414 8.39592C12.3772 8.38364 12.1664 8.4535 11.9506 8.57677C11.6001 8.8014 11.1897 8.82132 10.72 8.65641L10.7129 8.65395L10.7059 8.65641C10.2363 8.82132 9.82584 8.80139 9.47623 8.57733C9.25959 8.4535 9.04874 8.38364 8.88462 8.39592C8.67805 8.41138 8.55612 8.5539 8.54465 8.83336L8.38202 12.6823L8.37988 12.7329L8.4174 12.6989L10.754 10.5796L10.7946 10.5428H10.7398H10.6858L10.7254 10.5794ZM10.7542 10.5484L10.7398 10.5639L10.7256 10.5482L8.38895 12.6675L8.42433 12.6841L8.58696 8.83513C8.59758 8.57609 8.70383 8.45192 8.88778 8.43815C9.04169 8.42663 9.24525 8.49407 9.4543 8.61354C9.81497 8.84472 10.2389 8.86529 10.72 8.69636L10.7059 8.69636C11.1871 8.86529 11.611 8.84472 11.9726 8.61298C12.1807 8.49407 12.3843 8.42663 12.5382 8.43815C12.7222 8.45192 12.8284 8.5761 12.839 8.8351L13.0015 12.6841L13.0371 12.6677L10.7542 10.5484Z" fill="#C09300"/>
<path fill-rule="evenodd" clip-rule="evenodd" d="M8.82846 8.7002L8.67066 12.4442L8.40283 12.6831L8.56545 8.83413C8.64194 8.78152 8.77589 8.7002 8.82846 8.7002Z" fill="#C09300"/>
<path fill-rule="evenodd" clip-rule="evenodd" d="M9.14921 8.9683L9.0153 12.1001L8.74756 12.3741L8.91013 8.75781C8.96277 8.81038 9.12059 8.93947 9.1492 8.96816L9.14921 8.9683Z" fill="#C09300"/>
<path fill-rule="evenodd" clip-rule="evenodd" d="M9.4407 9.20711L9.33555 11.8192L9.12036 12.0295L9.25428 9.04932C9.30678 9.10192 9.41199 9.17844 9.4407 9.20711Z" fill="#C09300"/>
<path fill-rule="evenodd" clip-rule="evenodd" d="M9.75657 9.34127L9.65136 11.5675L9.44092 11.7381L9.54613 9.26001C9.59876 9.28389 9.70395 9.34127 9.75657 9.34127Z" fill="#C09300"/>
<path fill-rule="evenodd" clip-rule="evenodd" d="M10.0481 9.34107L9.97149 11.1963L9.75635 11.4067L9.83765 9.365C9.89019 9.36498 10.0241 9.36499 10.0481 9.34107Z" fill="#C09300"/>
<path fill-rule="evenodd" clip-rule="evenodd" d="M12.5971 8.7002L12.7549 12.4442L13.0227 12.6831L12.8601 8.83413C12.7836 8.78152 12.6497 8.7002 12.5971 8.7002Z" fill="#C09300"/>
<path fill-rule="evenodd" clip-rule="evenodd" d="M12.2763 8.9683L12.4102 12.1001L12.678 12.3741L12.5154 8.75781C12.4628 8.81038 12.3049 8.93947 12.2763 8.96816L12.2763 8.9683Z" fill="#C09300"/>
<path fill-rule="evenodd" clip-rule="evenodd" d="M11.9848 9.20711L12.09 11.8192L12.3052 12.0295L12.1713 9.04932C12.1188 9.10192 12.0135 9.17844 11.9848 9.20711Z" fill="#C09300"/>
<path fill-rule="evenodd" clip-rule="evenodd" d="M11.669 9.34127L11.7742 11.5675L11.9846 11.7381L11.8794 9.26001C11.8268 9.28389 11.7216 9.34127 11.669 9.34127Z" fill="#C09300"/>
<path fill-rule="evenodd" clip-rule="evenodd" d="M11.3775 9.34107L11.454 11.1963L11.6692 11.4067L11.5879 9.365C11.5353 9.36498 11.4014 9.36499 11.3775 9.34107Z" fill="#C09300"/>
<path fill-rule="evenodd" clip-rule="evenodd" d="M10.5901 10.9822L10.2676 12.4502L10.3905 12.5732L10.5191 12.4783L10.6394 11.6221L10.5893 12.4741L10.7127 12.6312L10.8362 12.4741L10.7863 11.6179L10.9065 12.4783L11.0349 12.5732L11.158 12.4503L10.8355 10.9822L10.5901 10.9822Z" fill="#C09300"/>
<path fill-rule="evenodd" clip-rule="evenodd" d="M9.35938 12.6023L10.2345 12.7362L10.6075 11.0388L9.99537 10.3455L9.35938 12.6023Z" fill="white"/>
<path fill-rule="evenodd" clip-rule="evenodd" d="M10.5982 10.9982L10.629 11.0331L10.2499 12.7586L9.33423 12.6184L9.97556 10.3454L10.0102 10.3323L10.0172 10.3402L10.0047 10.3852L9.38495 12.5845L10.2188 12.7137L10.5856 11.0457L10.5982 10.9982Z" fill="#C09300"/>
<path fill-rule="evenodd" clip-rule="evenodd" d="M9.85368 11.3386L10.2896 10.9222L10.2604 10.8916L9.86874 11.2638L9.80456 11.1074L9.76538 11.1235L9.85368 11.3386Z" fill="#C09300"/>
<path fill-rule="evenodd" clip-rule="evenodd" d="M10.1424 11.5146L10.4377 11.1281L10.4041 11.1024L10.1734 11.4052L10.0924 10.6458L10.0503 10.6502L10.1424 11.5146Z" fill="#C09300"/>
<path fill-rule="evenodd" clip-rule="evenodd" d="M10.2954 11.255L10.4391 11.7508L10.4798 11.739L10.3361 11.2432L10.2954 11.255Z" fill="#C09300"/>
<path fill-rule="evenodd" clip-rule="evenodd" d="M10.2075 11.9924L10.2428 12.0157L10.5334 11.5743L10.4981 11.551L10.2075 11.9924ZM10.2435 12.0003L10.1537 11.5052L9.95588 11.7745L9.87199 11.4758L9.56543 11.7903L9.72014 12.3578L9.91334 12.0413L10.0178 12.3595L10.2382 12.0167L10.2026 11.9938L10.0302 12.2614L9.92466 11.94L9.73469 12.2503L9.61234 11.8028L9.85123 11.5585L9.93823 11.8683L10.1297 11.6102L10.2019 12.0084L10.2124 12.0579L10.2951 12.449L10.3365 12.4402L10.2435 12.0003Z" fill="#C09300"/>
<path fill-rule="evenodd" clip-rule="evenodd" d="M9.71557 12.3521L9.83125 12.7359L9.99033 12.4683L10.0805 12.7428L10.1207 12.7296L10.0009 12.3647L9.84412 12.6319L9.73028 12.2542L9.52856 12.5375L9.56306 12.562L9.71557 12.3521Z" fill="#C09300"/>
<path fill-rule="evenodd" clip-rule="evenodd" d="M11.4302 10.3455L12.0662 12.6023L11.191 12.7362L10.8181 11.0388L11.4302 10.3455Z" fill="white"/>
<path fill-rule="evenodd" clip-rule="evenodd" d="M10.8264 10.9993L10.7965 11.0331L11.1756 12.7586L12.0913 12.6184L11.45 10.3454L11.4153 10.3323L11.4065 10.3422L11.4208 10.3852L12.0406 12.5845L11.2067 12.7137L10.8399 11.0457L10.8264 10.9993Z" fill="#C09300"/>
<path fill-rule="evenodd" clip-rule="evenodd" d="M11.5719 11.3386L11.1359 10.9222L11.1652 10.8916L11.5568 11.2638L11.621 11.1074L11.6602 11.1235L11.5719 11.3386Z" fill="#C09300"/>
<path fill-rule="evenodd" clip-rule="evenodd" d="M11.2831 11.5146L10.9878 11.1281L11.0215 11.1024L11.2522 11.4052L11.3331 10.6458L11.3752 10.6502L11.2831 11.5146Z" fill="#C09300"/>
<path fill-rule="evenodd" clip-rule="evenodd" d="M11.1301 11.255L10.9865 11.7508L10.9458 11.739L11.0895 11.2432L11.1301 11.255Z" fill="#C09300"/>
<path fill-rule="evenodd" clip-rule="evenodd" d="M11.2181 11.9924L11.1827 12.0157L10.8921 11.5743L10.9275 11.551L11.2181 11.9924ZM11.182 12.0003L11.2719 11.5052L11.4697 11.7745L11.5535 11.4758L11.8601 11.7903L11.7054 12.3578L11.5122 12.0413L11.4077 12.3595L11.1873 12.0167L11.2229 11.9938L11.3954 12.2614L11.5009 11.94L11.6908 12.2503L11.8132 11.8028L11.5743 11.5585L11.4873 11.8683L11.2958 11.6102L11.2236 12.0084L11.2131 12.0579L11.1305 12.449L11.089 12.4402L11.182 12.0003Z" fill="#C09300"/>
<path fill-rule="evenodd" clip-rule="evenodd" d="M11.71 12.3521L11.5943 12.7359L11.4352 12.4683L11.345 12.7428L11.3048 12.7296L11.4246 12.3647L11.5814 12.6319L11.6953 12.2542L11.897 12.5375L11.8625 12.562L11.71 12.3521Z" fill="#C09300"/>
<path fill-rule="evenodd" clip-rule="evenodd" d="M12.3864 13.4531C12.5442 13.4245 12.5442 13.3432 12.5442 13.2379C12.7021 13.1853 12.6207 12.9989 12.7307 12.9989C12.6207 13.0276 12.5968 12.8124 12.4629 12.8412C12.4629 12.6546 12.2764 12.6307 12.1186 12.6832C11.8029 12.7885 11.2434 12.8124 10.7126 12.8124C10.1818 12.7885 9.62702 12.7885 9.30662 12.6832C9.14881 12.6307 8.96238 12.6546 8.96238 12.8412C8.82844 12.8124 8.80454 13.0276 8.69458 12.9989C8.80454 12.9989 8.72323 13.1853 8.88106 13.2379C8.88106 13.3432 8.88106 13.4245 9.04365 13.4531C9.41182 13.5583 10.0479 13.6109 10.7126 13.6109C11.3774 13.6109 12.0134 13.5583 12.3864 13.4531Z" fill="white"/>
<path fill-rule="evenodd" clip-rule="evenodd" d="M12.5817 13.2658C12.6368 13.2402 12.6677 13.1974 12.6862 13.1369C12.6885 13.1294 12.6969 13.096 12.6982 13.0907C12.7093 13.0452 12.7547 12.9899 12.7547 12.9899C12.7547 12.9899 12.6839 12.9552 12.6502 12.9125C12.6472 12.9088 12.6354 12.8936 12.6371 12.8957C12.5755 12.817 12.5447 12.7984 12.4994 12.7978C12.474 12.6313 12.2994 12.5815 12.1061 12.6458C11.8344 12.7364 11.3654 12.7729 10.7126 12.7729C10.6688 12.7709 10.6208 12.7689 10.566 12.7668C10.5258 12.7653 10.5014 12.7643 10.4184 12.7613C9.78791 12.7381 9.53245 12.7158 9.31905 12.6457C9.10998 12.5762 8.94165 12.7356 8.92881 12.7984C8.87626 12.8003 8.8377 12.8326 8.78834 12.8957C8.79 12.8936 8.77814 12.9088 8.77516 12.9126C8.74148 12.9552 8.66528 13.0043 8.66528 13.0043C8.66528 13.0043 8.71611 13.0453 8.72719 13.0907C8.72846 13.096 8.73694 13.1294 8.73923 13.1369C8.76031 13.206 8.80278 13.2657 8.84187 13.2657C8.84598 13.4082 8.88548 13.4656 9.03684 13.4922C9.39124 13.5937 10.0146 13.6506 10.7126 13.6506C11.4101 13.6506 12.034 13.5938 12.3972 13.4913C12.5504 13.4637 12.5953 13.3296 12.5817 13.2658ZM10.7126 13.5714C10.0214 13.5714 9.40439 13.5151 9.0546 13.4151C8.93555 13.3939 8.92075 13.3669 8.92075 13.238V13.2095L8.89365 13.2004C8.84997 13.1859 8.82924 13.1603 8.81503 13.1138C8.81317 13.1077 8.80551 13.0774 8.8042 13.072C8.78529 12.9944 8.78663 13.0156 8.78663 13.0156C8.78663 13.0156 8.81944 12.9844 8.83736 12.9617C8.84051 12.9577 8.85257 12.9423 8.85077 12.9446C8.89509 12.8879 8.91784 12.8723 8.95413 12.88L9.00208 12.8903V12.8413C9.00208 12.7092 9.12856 12.6659 9.29417 12.721C9.51794 12.7945 9.77576 12.817 10.4155 12.8405C10.4984 12.8435 10.5228 12.8445 10.563 12.846C10.6176 12.8481 10.6654 12.8501 10.7109 12.8521C11.374 12.8522 11.8485 12.8152 12.1312 12.721C12.2968 12.6659 12.4234 12.7092 12.4234 12.8413V12.8903L12.4713 12.88C12.5076 12.8723 12.5303 12.8879 12.5746 12.9446C12.5728 12.9423 12.5848 12.9577 12.588 12.9617C12.6397 13.0272 12.6392 13.0166 12.6392 13.0166C12.6392 13.0166 12.6265 13.0502 12.6212 13.072C12.6199 13.0774 12.6122 13.1077 12.6104 13.1138C12.5962 13.1603 12.5754 13.1859 12.5317 13.2004L12.5046 13.2095V13.238C12.5046 13.3671 12.4902 13.3941 12.3793 13.4142C12.0209 13.5151 11.4034 13.5714 10.7126 13.5714Z" fill="#C09300"/>
<path fill-rule="evenodd" clip-rule="evenodd" d="M10.45 12.6307C10.4679 12.6307 10.5584 12.6832 10.5584 12.6832C10.5584 12.6832 10.6403 12.7117 10.6563 12.754C10.6853 12.8306 10.6155 13.0026 10.6155 13.0026C10.6155 13.0026 10.5106 12.8289 10.4212 12.8412C10.2348 12.865 9.94305 12.8412 9.78521 12.8124C9.65131 12.7885 9.35961 12.7359 9.17308 12.6832C9.11402 12.6575 8.96906 12.767 8.96318 12.7342C8.95805 12.7055 8.94174 12.6169 8.98433 12.5666C9.04698 12.4926 9.1829 12.4585 9.22565 12.4682C9.38829 12.5207 9.59872 12.5734 9.80915 12.602C10.0243 12.6307 10.2634 12.6546 10.45 12.6307Z" fill="white"/>
<path fill-rule="evenodd" clip-rule="evenodd" d="M9.68105 12.815C9.46205 12.7748 9.29764 12.7404 9.16448 12.7026C9.07 12.6614 9.03797 12.5926 9.07093 12.5267C9.09928 12.4701 9.16939 12.4336 9.23202 12.4479C9.41169 12.506 9.61898 12.5547 9.8118 12.581C10.0903 12.6181 10.2884 12.63 10.4471 12.6096L10.4498 12.6095C10.5118 12.6095 10.5673 12.6615 10.5748 12.7225C10.5833 12.7926 10.529 12.8477 10.4237 12.8621C10.2868 12.8796 10.0741 12.8723 9.89784 12.8507C9.88833 12.8682 9.87335 12.8841 9.85148 12.9033C9.81623 12.9342 9.78361 12.9859 9.78361 12.9859C9.78361 12.9859 9.75388 12.9314 9.72582 12.8952C9.72226 12.8906 9.72025 12.888 9.71864 12.886C9.69856 12.8599 9.68605 12.8383 9.68105 12.815ZM9.91024 12.8095C10.0818 12.8301 10.2871 12.8369 10.4182 12.8201C10.5023 12.8086 10.5382 12.7722 10.5327 12.7276C10.5278 12.6874 10.5066 12.6518 10.4498 12.6518C10.3425 12.6628 10.0881 12.6606 9.80615 12.6229C9.61068 12.5963 9.40096 12.5471 9.22082 12.4887C9.17971 12.4794 9.1287 12.5059 9.1088 12.5457C9.08753 12.5882 9.10776 12.6317 9.17869 12.6628C9.30607 12.6988 9.46664 12.7325 9.67994 12.7718C9.68067 12.7664 9.6817 12.7609 9.68301 12.7551L9.68248 12.7598C9.68248 12.6955 9.7446 12.6335 9.80891 12.6335C9.87062 12.6335 9.91131 12.7132 9.91131 12.7886C9.91131 12.7961 9.91096 12.803 9.91024 12.8095Z" fill="#C09300"/>
<path fill-rule="evenodd" clip-rule="evenodd" d="M9.75944 12.8692C9.75583 12.8646 9.75388 12.8621 9.75233 12.86C9.72359 12.8228 9.71597 12.8018 9.72446 12.7645L9.72499 12.7598C9.72499 12.7189 9.76813 12.6758 9.80906 12.6758C9.83966 12.6758 9.86911 12.7335 9.86911 12.7885C9.86911 12.8248 9.85903 12.8404 9.82375 12.8713C9.808 12.8851 9.78673 12.9094 9.78673 12.9094C9.78673 12.9094 9.79274 12.9122 9.75944 12.8692Z" fill="white"/>
<path fill-rule="evenodd" clip-rule="evenodd" d="M9.15275 12.4762C8.98633 12.4468 8.87632 12.6348 8.9437 12.7694L8.96357 12.8091L8.98192 12.7687C8.98859 12.754 9.00475 12.7446 9.04927 12.7271C9.04925 12.7271 9.04928 12.7271 9.04927 12.7271C9.10513 12.7051 9.12648 12.6927 9.13973 12.6636C9.15212 12.6286 9.15292 12.6082 9.14792 12.5783C9.14691 12.5722 9.14681 12.5716 9.14649 12.5694C9.14381 12.5505 9.14727 12.5371 9.16652 12.5091L9.18515 12.4819L9.15275 12.4762Z" fill="#C09300"/>
<path fill-rule="evenodd" clip-rule="evenodd" d="M9.1045 12.5753C9.10489 12.5781 9.105 12.5787 9.1061 12.5853C9.11 12.6086 9.10948 12.622 9.10043 12.6477C9.09444 12.6607 9.07827 12.6701 9.03376 12.6876C8.97784 12.7096 8.97012 12.7192 8.97012 12.7192C8.94784 12.6268 9.01459 12.5185 9.11501 12.5156C9.11036 12.5246 9.10029 12.5456 9.1045 12.5753Z" fill="white"/>
<path fill-rule="evenodd" clip-rule="evenodd" d="M10.5865 13.064L10.6248 13.0114C10.6667 12.9539 10.6905 12.8697 10.6838 12.7997C10.6759 12.7161 10.6266 12.6621 10.5422 12.6621H10.502L10.5247 12.6953C10.5397 12.7171 10.5376 12.7242 10.5161 12.7425C10.5132 12.745 10.502 12.7541 10.5011 12.7549C10.4683 12.7821 10.4526 12.805 10.4526 12.8412C10.4526 12.8657 10.4672 12.884 10.4957 12.9053C10.5004 12.9088 10.5054 12.9124 10.512 12.917C10.514 12.9183 10.5254 12.9262 10.5287 12.9285C10.57 12.9572 10.5865 12.976 10.5865 12.9989V13.064Z" fill="#C09300"/>
<path fill-rule="evenodd" clip-rule="evenodd" d="M10.5527 12.8938C10.5493 12.8915 10.5379 12.8836 10.5361 12.8823C10.5298 12.878 10.5252 12.8747 10.521 12.8715C10.5025 12.8576 10.4949 12.8481 10.4949 12.8413C10.4949 12.8209 10.504 12.8075 10.528 12.7876C10.5286 12.7871 10.5401 12.7777 10.5434 12.7749C10.5798 12.744 10.5766 12.7261 10.5766 12.7092C10.6154 12.7208 10.6368 12.7538 10.6416 12.8038C10.6459 12.8495 10.6346 12.9037 10.6129 12.9487C10.608 12.935 10.605 12.9302 10.5527 12.8938Z" fill="white"/>
<path fill-rule="evenodd" clip-rule="evenodd" d="M9.19678 12.5635L9.35478 12.6162L9.40442 12.6327L9.37088 12.5926C9.34477 12.5613 9.26151 12.5347 9.20163 12.5347L9.19678 12.5635Z" fill="#C09300"/>
<path fill-rule="evenodd" clip-rule="evenodd" d="M9.46021 12.645L9.64687 12.6976L9.65801 12.6703C9.60977 12.644 9.50263 12.616 9.46438 12.616L9.46021 12.645Z" fill="#C09300"/>
<path fill-rule="evenodd" clip-rule="evenodd" d="M10.3385 12.7226C10.2818 12.7256 10.2436 12.7328 10.2251 12.7482L10.2365 12.7744L10.4228 12.7504L10.421 12.7209C10.3843 12.7209 10.3635 12.7212 10.3385 12.7226Z" fill="#C09300"/>
<path fill-rule="evenodd" clip-rule="evenodd" d="M9.93579 12.7229L9.94292 12.7508H10.1293L10.1399 12.7254C10.1059 12.6913 9.99358 12.6913 9.93579 12.7229Z" fill="#C09300"/>
<path fill-rule="evenodd" clip-rule="evenodd" d="M10.9753 12.6307C10.9574 12.6307 10.8669 12.6832 10.8669 12.6832C10.8669 12.6832 10.785 12.7117 10.769 12.754C10.74 12.8306 10.8098 13.0026 10.8098 13.0026C10.8098 13.0026 10.9147 12.8289 11.0041 12.8412C11.1905 12.865 11.4822 12.8412 11.6401 12.8124C11.774 12.7885 12.0657 12.7359 12.2522 12.6832C12.3113 12.6575 12.4562 12.767 12.4621 12.7342C12.4672 12.7055 12.4836 12.6169 12.441 12.5666C12.3783 12.4926 12.2424 12.4585 12.1996 12.4682C12.037 12.5207 11.8266 12.5734 11.6161 12.602C11.401 12.6307 11.1619 12.6546 10.9753 12.6307Z" fill="white"/>
<path fill-rule="evenodd" clip-rule="evenodd" d="M11.7442 12.815C11.9632 12.7748 12.1277 12.7404 12.2608 12.7026C12.3553 12.6614 12.3873 12.5926 12.3544 12.5267C12.326 12.4701 12.2559 12.4336 12.1933 12.4479C12.0136 12.506 11.8063 12.5547 11.6135 12.581C11.335 12.6181 11.1368 12.63 10.9782 12.6096L10.9755 12.6095C10.9135 12.6095 10.858 12.6615 10.8505 12.7225C10.842 12.7926 10.8963 12.8477 11.0015 12.8621C11.1385 12.8796 11.3512 12.8723 11.5275 12.8507C11.537 12.8682 11.5519 12.8841 11.5738 12.9033C11.6091 12.9342 11.6417 12.9859 11.6417 12.9859C11.6417 12.9859 11.6714 12.9314 11.6995 12.8952C11.703 12.8906 11.705 12.888 11.7066 12.886C11.7267 12.8599 11.7392 12.8383 11.7442 12.815ZM11.5151 12.8095C11.3435 12.8301 11.1382 12.8369 11.0071 12.8201C10.923 12.8086 10.8871 12.7722 10.8926 12.7276C10.8975 12.6874 10.9187 12.6518 10.9755 12.6518C11.0828 12.6628 11.3372 12.6606 11.6191 12.6229C11.8146 12.5963 12.0243 12.5471 12.2045 12.4887C12.2456 12.4794 12.2966 12.5059 12.3165 12.5457C12.3378 12.5882 12.3175 12.6317 12.2466 12.6628C12.1192 12.6988 11.9587 12.7325 11.7454 12.7718C11.7446 12.7664 11.7436 12.7609 11.7423 12.7551L11.7428 12.7598C11.7428 12.6955 11.6807 12.6335 11.6164 12.6335C11.5547 12.6335 11.514 12.7132 11.514 12.7886C11.514 12.7961 11.5143 12.803 11.5151 12.8095Z" fill="#C09300"/>
<path fill-rule="evenodd" clip-rule="evenodd" d="M11.6659 12.8692C11.6695 12.8646 11.6714 12.8621 11.673 12.86C11.7017 12.8228 11.7093 12.8018 11.7008 12.7645L11.7003 12.7598C11.7003 12.7189 11.6572 12.6758 11.6162 12.6758C11.5856 12.6758 11.5562 12.7335 11.5562 12.7885C11.5562 12.8248 11.5663 12.8404 11.6015 12.8713C11.6173 12.8851 11.6386 12.9094 11.6386 12.9094C11.6386 12.9094 11.6325 12.9122 11.6659 12.8692Z" fill="white"/>
<path fill-rule="evenodd" clip-rule="evenodd" d="M12.2725 12.4762C12.439 12.4468 12.549 12.6348 12.4816 12.7694L12.4617 12.8091L12.4434 12.7687C12.4367 12.754 12.4205 12.7446 12.376 12.7271C12.376 12.7271 12.376 12.7271 12.376 12.7271C12.3202 12.7051 12.2988 12.6927 12.2856 12.6636C12.2732 12.6286 12.2724 12.6082 12.2774 12.5783C12.2784 12.5722 12.2785 12.5716 12.2788 12.5694C12.2815 12.5505 12.278 12.5371 12.2588 12.5091L12.2401 12.4819L12.2725 12.4762Z" fill="#C09300"/>
<path fill-rule="evenodd" clip-rule="evenodd" d="M12.3208 12.5753C12.3204 12.5781 12.3203 12.5787 12.3192 12.5853C12.3153 12.6086 12.3158 12.622 12.3249 12.6477C12.3309 12.6607 12.347 12.6701 12.3915 12.6876C12.4475 12.7096 12.4552 12.7192 12.4552 12.7192C12.4775 12.6268 12.4107 12.5185 12.3103 12.5156C12.3149 12.5246 12.325 12.5456 12.3208 12.5753Z" fill="white"/>
<path fill-rule="evenodd" clip-rule="evenodd" d="M10.8388 13.064L10.8005 13.0114C10.7586 12.9539 10.7348 12.8697 10.7414 12.7997C10.7494 12.7161 10.7987 12.6621 10.8831 12.6621H10.9233L10.9006 12.6953C10.8856 12.7171 10.8876 12.7242 10.9092 12.7425C10.9121 12.745 10.9233 12.7541 10.9242 12.7549C10.957 12.7821 10.9727 12.805 10.9727 12.8412C10.9727 12.8657 10.9581 12.884 10.9296 12.9053C10.9249 12.9088 10.9199 12.9124 10.9132 12.917C10.9113 12.9183 10.8999 12.9262 10.8966 12.9285C10.8553 12.9572 10.8388 12.976 10.8388 12.9989V13.064Z" fill="#C09300"/>
<path fill-rule="evenodd" clip-rule="evenodd" d="M10.8726 12.8938C10.876 12.8915 10.8874 12.8836 10.8892 12.8823C10.8954 12.878 10.9001 12.8747 10.9043 12.8715C10.9228 12.8576 10.9304 12.8481 10.9304 12.8413C10.9304 12.8209 10.9213 12.8075 10.8973 12.7876C10.8967 12.7871 10.8852 12.7777 10.8819 12.7749C10.8455 12.744 10.8487 12.7261 10.8487 12.7092C10.8099 12.7208 10.7885 12.7538 10.7837 12.8038C10.7794 12.8495 10.7907 12.9037 10.8124 12.9487C10.8172 12.935 10.8203 12.9302 10.8726 12.8938Z" fill="white"/>
<path fill-rule="evenodd" clip-rule="evenodd" d="M12.2285 12.5635L12.0705 12.6162L12.0209 12.6327L12.0544 12.5926C12.0805 12.5613 12.1638 12.5347 12.2237 12.5347L12.2285 12.5635Z" fill="#C09300"/>
<path fill-rule="evenodd" clip-rule="evenodd" d="M11.9651 12.645L11.7784 12.6976L11.7673 12.6703C11.8155 12.644 11.9227 12.616 11.9609 12.616L11.9651 12.645Z" fill="#C09300"/>
<path fill-rule="evenodd" clip-rule="evenodd" d="M11.0868 12.7226C11.1434 12.7256 11.1817 12.7328 11.2002 12.7482L11.1888 12.7744L11.0025 12.7504L11.0043 12.7209C11.041 12.7209 11.0618 12.7212 11.0868 12.7226Z" fill="#C09300"/>
<path fill-rule="evenodd" clip-rule="evenodd" d="M11.4895 12.7229L11.4824 12.7508H11.296L11.2854 12.7254C11.3194 12.6913 11.4317 12.6913 11.4895 12.7229Z" fill="#C09300"/>
<path fill-rule="evenodd" clip-rule="evenodd" d="M9.15733 12.9699C9.13953 12.9665 9.13018 12.9524 9.13466 12.9358C9.14011 12.9155 9.15638 12.9039 9.17174 12.9093C9.18151 12.9127 9.1994 12.9308 9.19947 12.9373C9.19957 12.9447 9.19012 12.9623 9.18605 12.9624C9.18429 12.9624 9.18158 12.9639 9.18001 12.9658C9.17668 12.9697 9.16623 12.9716 9.15733 12.9699Z" fill="#C09300"/>
<path fill-rule="evenodd" clip-rule="evenodd" d="M10.9884 13.1007C10.9817 13.0982 10.9712 13.0834 10.9712 13.0765C10.9713 13.0636 10.9903 13.0426 11.0022 13.0425C11.008 13.0424 11.024 13.0508 11.03 13.057C11.0408 13.0682 11.0384 13.0867 11.0248 13.0972C11.0181 13.1024 10.9981 13.1043 10.9884 13.1007Z" fill="#C09300"/>
<path fill-rule="evenodd" clip-rule="evenodd" d="M11.0003 13.1834C10.9863 13.1786 10.9812 13.1718 10.98 13.1562C10.9789 13.1401 10.9804 13.1375 10.9975 13.1282L11.0097 13.1216L11.0213 13.1267C11.0373 13.1339 11.0444 13.1416 11.0449 13.1523C11.0455 13.1639 11.0369 13.1758 11.0236 13.1817C11.0119 13.187 11.0112 13.187 11.0003 13.1834Z" fill="#C09300"/>
<path fill-rule="evenodd" clip-rule="evenodd" d="M9.30438 12.8203C9.29284 12.82 9.277 12.8306 9.26792 12.8359C9.24628 12.841 9.2211 12.8543 9.20021 12.8401C9.17964 12.8338 9.15228 12.8388 9.14917 12.8641C9.15445 12.8858 9.18489 12.8982 9.20334 12.8839C9.21703 12.8659 9.25438 12.8554 9.25855 12.8859C9.24331 12.909 9.24505 12.9396 9.2325 12.9641C9.23046 12.9793 9.22411 12.9938 9.21584 13.0068C9.20043 13.0083 9.18405 13.0065 9.17104 13.0162C9.15018 13.0173 9.12889 13.0277 9.11688 13.0453C9.10343 13.0646 9.09059 13.0842 9.08667 13.1078C9.09024 13.132 9.11792 13.1389 9.13875 13.1401C9.16098 13.1462 9.18323 13.1543 9.20542 13.1609C9.2416 13.169 9.27549 13.1821 9.31167 13.1901C9.36448 13.206 9.41993 13.2134 9.47313 13.2276C9.4787 13.2295 9.48393 13.2311 9.4898 13.2318C9.51187 13.2364 9.52339 13.2124 9.52521 13.1943C9.53617 13.1556 9.54453 13.1163 9.55542 13.0776C9.56292 13.0621 9.57197 13.027 9.54188 13.0349C9.52472 13.0452 9.51015 13.0607 9.48875 13.062C9.45962 13.0637 9.47625 13.0935 9.48771 13.1057C9.49024 13.1253 9.48405 13.1487 9.47105 13.1641C9.45372 13.1751 9.43199 13.1622 9.41375 13.1578C9.3946 13.1582 9.35631 13.1484 9.37417 13.1224C9.38051 13.1032 9.38108 13.0821 9.38875 13.063C9.39854 13.0425 9.39994 13.0202 9.40438 12.9984C9.39234 12.9725 9.37176 13.007 9.35542 13.0099C9.34416 13.0177 9.3019 13.021 9.32417 13.0412C9.34334 13.0557 9.32864 13.081 9.32521 13.0995C9.32398 13.1252 9.29728 13.1313 9.27625 13.1255C9.25533 13.1245 9.2262 13.109 9.24396 13.0859C9.24799 13.0668 9.25469 13.0479 9.25854 13.0287C9.26645 13.0054 9.27312 12.9832 9.28146 12.9599C9.28507 12.9392 9.29249 12.9196 9.30229 12.9016C9.30287 12.8787 9.31821 12.8591 9.31791 12.8359C9.31635 12.8247 9.3113 12.8205 9.30438 12.8203ZM9.18459 13.062C9.18731 13.0615 9.18925 13.0619 9.19188 13.063C9.2002 13.0666 9.20045 13.0733 9.19188 13.0807C9.18813 13.084 9.18388 13.0871 9.1825 13.087C9.16691 13.0856 9.16232 13.0833 9.16167 13.0776C9.1611 13.0726 9.16269 13.0711 9.17313 13.0662C9.17831 13.0637 9.18186 13.0625 9.18459 13.062Z" fill="#C09300"/>
<path fill-rule="evenodd" clip-rule="evenodd" d="M9.15013 13.2294C9.1336 13.2139 9.13626 13.2026 9.16071 13.1843C9.17117 13.1765 9.17751 13.1774 9.18948 13.1883C9.20789 13.2051 9.20863 13.2158 9.19237 13.2302C9.18434 13.2373 9.18083 13.2387 9.17147 13.2388C9.16169 13.2389 9.15892 13.2377 9.15013 13.2294Z" fill="#C09300"/>
<path fill-rule="evenodd" clip-rule="evenodd" d="M9.25172 13.2599C9.23556 13.2559 9.22624 13.2396 9.23097 13.2237C9.23525 13.2092 9.23773 13.2077 9.25898 13.2075C9.2828 13.2073 9.28743 13.2113 9.28766 13.2323C9.28779 13.2441 9.28687 13.2468 9.281 13.2523C9.2741 13.2587 9.26083 13.2622 9.25172 13.2599Z" fill="#C09300"/>
<path fill-rule="evenodd" clip-rule="evenodd" d="M12.2221 13.2628C12.2145 13.2565 12.213 13.2536 12.2129 13.2456C12.2128 13.2319 12.2207 13.2219 12.2378 13.2142C12.2605 13.2039 12.2698 13.2053 12.2783 13.2203C12.2897 13.2404 12.2892 13.2486 12.2755 13.2621C12.268 13.2695 12.2666 13.27 12.2494 13.2701C12.2324 13.2702 12.2305 13.2698 12.2221 13.2628Z" fill="#C09300"/>
<path fill-rule="evenodd" clip-rule="evenodd" d="M9.38675 13.3009C9.37462 13.2977 9.36834 13.2886 9.36818 13.274C9.36804 13.2629 9.36885 13.2611 9.37663 13.255C9.38167 13.2511 9.38964 13.2477 9.39592 13.2468C9.40481 13.2456 9.40806 13.2464 9.41522 13.2514C9.43357 13.2643 9.43747 13.2771 9.42684 13.2895C9.41553 13.3027 9.4048 13.3057 9.38675 13.3009Z" fill="#C09300"/>
<path fill-rule="evenodd" clip-rule="evenodd" d="M10.1174 13.3337C10.1147 13.3303 10.1088 13.3283 10.1082 13.3241C10.1092 13.3056 10.1101 13.2869 10.116 13.2691C10.1192 13.2517 10.1164 13.2335 10.1225 13.2165C10.1287 13.1856 10.1287 13.1538 10.1359 13.1231C10.1362 13.1073 10.1377 13.0914 10.1423 13.0762C10.1476 13.0522 10.1427 13.027 10.1498 13.0032C10.1491 12.9943 10.1594 12.9705 10.1684 12.9846C10.1815 13.0038 10.1988 13.0194 10.2157 13.0351C10.2303 13.0435 10.2169 13.0559 10.2069 13.0601C10.193 13.0656 10.1897 13.0808 10.1906 13.0942C10.1887 13.108 10.1831 13.1211 10.1826 13.1352C10.1797 13.1559 10.1802 13.177 10.1775 13.1977C10.1715 13.218 10.1738 13.2397 10.1718 13.2606C10.172 13.2739 10.1657 13.286 10.1666 13.2993C10.165 13.3128 10.1644 13.3291 10.153 13.3384C10.142 13.3439 10.1262 13.343 10.1174 13.3337Z" fill="#C09300"/>
<path fill-rule="evenodd" clip-rule="evenodd" d="M11.1073 13.0069C11.0912 13.019 11.0768 13.0334 11.0625 13.0475C11.0427 13.0625 11.0787 13.0712 11.0833 13.084C11.0886 13.1035 11.0882 13.1243 11.0896 13.1444C11.0955 13.1628 11.0982 13.1823 11.0969 13.2017C11.0951 13.2224 11.0681 13.218 11.0562 13.2298C11.0398 13.2367 11.0333 13.2528 11.0208 13.2642C11.0126 13.2803 11.0104 13.3001 11.0094 13.3183C11.0105 13.3333 10.9993 13.35 11.0094 13.3631C11.0107 13.365 11.0122 13.3675 11.0135 13.3694C11.0169 13.3742 11.0249 13.3704 11.0302 13.3715C11.047 13.3705 11.0645 13.373 11.0802 13.3663C11.1205 13.3593 11.1612 13.3587 11.2021 13.3569C11.227 13.3577 11.2511 13.349 11.276 13.3496C11.2956 13.3539 11.3044 13.3327 11.3041 13.3173C11.2931 13.2955 11.3026 13.2697 11.2937 13.2475C11.2859 13.2251 11.289 13.1999 11.2854 13.1767C11.2849 13.1584 11.2617 13.1516 11.25 13.1652C11.2386 13.1767 11.2202 13.179 11.2114 13.1933C11.2016 13.2134 11.2324 13.2134 11.2375 13.2288C11.2433 13.2442 11.2414 13.2614 11.2427 13.2777C11.2465 13.2975 11.2251 13.2986 11.2114 13.3006C11.1936 13.3073 11.1684 13.3118 11.1583 13.2902C11.152 13.2742 11.1528 13.2571 11.151 13.2402C11.1506 13.2105 11.1434 13.1813 11.1416 13.1517C11.1399 13.1151 11.1336 13.0788 11.1312 13.0423C11.1309 13.0271 11.1289 13.0024 11.1073 13.0069ZM11.0864 13.2819L11.0969 13.2829L11.0979 13.2954L11.0989 13.3079L11.0854 13.3121C11.0782 13.3142 11.072 13.3152 11.0719 13.3152C11.0718 13.3152 11.0689 13.3134 11.0656 13.311C11.0583 13.3058 11.0602 13.2982 11.0698 13.2881C11.0752 13.2825 11.0777 13.2814 11.0864 13.2819Z" fill="#C09300"/>
<path fill-rule="evenodd" clip-rule="evenodd" d="M10.0876 12.9727C10.075 12.9772 10.0589 12.9958 10.046 12.9956C10.0166 12.9977 10.0207 13.0262 10.0418 13.0362C10.0446 13.0449 10.042 13.0558 10.0428 13.0654C10.0469 13.0917 10.0303 13.1129 10.0335 13.1393C10.032 13.1683 10.0232 13.1966 10.022 13.2258C10.0138 13.2559 10.0137 13.2869 10.0085 13.3175C10.005 13.3449 9.98515 13.3352 9.96784 13.3279C9.96771 13.316 9.96693 13.3043 9.9668 13.2925C9.97401 13.2652 9.9521 13.2573 9.93034 13.2539C9.90747 13.2561 9.89625 13.2365 9.90117 13.2164C9.911 13.2047 9.93571 13.208 9.95117 13.206C9.98388 13.2128 9.98256 13.1689 9.96576 13.1539C9.95427 13.1327 9.92582 13.1236 9.91784 13.1018C9.92103 13.0729 9.90185 13.0441 9.87826 13.03C9.84197 13.0274 9.81458 13.0587 9.80117 13.0893C9.78609 13.0937 9.77104 13.0982 9.75638 13.1039C9.73275 13.1098 9.69906 13.1508 9.73138 13.1664C9.74952 13.1714 9.80472 13.184 9.78034 13.2091C9.7666 13.2327 9.74031 13.2331 9.7168 13.2268C9.69268 13.2268 9.66582 13.2151 9.6668 13.1872C9.66188 13.1623 9.66269 13.1353 9.65118 13.1122C9.64623 13.0843 9.61448 13.0908 9.61264 13.1164C9.58819 13.1342 9.59145 13.163 9.60847 13.1841C9.61909 13.2084 9.60857 13.2367 9.59805 13.2591C9.59169 13.2883 9.55952 13.2893 9.53659 13.2987C9.52534 13.3031 9.48231 13.2961 9.49805 13.3206C9.52316 13.3294 9.55314 13.3374 9.5793 13.331C9.60673 13.3276 9.63055 13.3088 9.64389 13.2852C9.66231 13.2665 9.69395 13.2763 9.71785 13.2758C9.74361 13.2757 9.76993 13.2939 9.79493 13.282C9.80217 13.2632 9.83566 13.2322 9.84597 13.2643C9.84422 13.2931 9.86961 13.3085 9.89597 13.305C9.92476 13.3033 9.91412 13.3253 9.91368 13.3425C9.91558 13.3736 9.93567 13.3899 9.96159 13.4029C9.97042 13.4053 9.97976 13.4045 9.98868 13.4029C10.0136 13.395 10.0405 13.3839 10.0481 13.356C10.0582 13.3333 10.0584 13.3076 10.0658 13.2841C10.0717 13.2465 10.0793 13.2088 10.0803 13.1706C10.0895 13.136 10.0869 13.0994 10.0939 13.0643C10.0983 13.0383 10.1016 13.0122 10.1043 12.9862C10.1012 12.9723 10.0952 12.97 10.0876 12.9727ZM9.8616 13.1112C9.86664 13.1118 9.86945 13.118 9.86993 13.1289C9.87046 13.141 9.8768 13.1509 9.88451 13.1529C9.89059 13.1544 9.89007 13.1608 9.88347 13.1654C9.87964 13.168 9.87278 13.1696 9.86056 13.1695C9.84129 13.1694 9.82934 13.1644 9.81889 13.1539L9.81264 13.1477L9.82201 13.1414C9.82674 13.1378 9.83529 13.1303 9.84076 13.1247C9.85026 13.1151 9.85655 13.1106 9.8616 13.1112Z" fill="#C09300"/>
<path fill-rule="evenodd" clip-rule="evenodd" d="M12.0626 12.8486C12.0437 12.8495 12.0247 12.8525 12.0074 12.8569C11.9727 12.8548 11.9553 12.8912 11.9886 12.909C12.0087 12.9602 12.04 12.8985 12.072 12.9028C12.1199 12.9121 12.1239 12.9638 12.1314 13.0028C12.134 13.0413 12.1452 13.0788 12.1564 13.1153C12.1884 13.1509 12.1323 13.1733 12.1084 13.1455C12.0881 13.1233 12.0444 13.0962 12.0199 13.1267C11.9898 13.1395 11.9885 13.1797 11.9636 13.1913C11.9233 13.2036 11.9183 13.154 11.897 13.133C11.8774 13.1055 11.84 13.1031 11.8095 13.0934C11.7952 13.0644 11.8026 13.0152 11.773 12.9955C11.7482 13.0056 11.7026 13.0522 11.7407 13.0736C11.778 13.1056 11.7245 13.1203 11.7074 13.1424C11.683 13.1695 11.6791 13.2069 11.6751 13.2413C11.6331 13.2645 11.625 13.2151 11.6199 13.184C11.6166 13.147 11.5854 13.1578 11.5636 13.1715C11.5319 13.1844 11.516 13.2145 11.4939 13.2382C11.4912 13.2598 11.4951 13.2834 11.4949 13.3059C11.5021 13.3329 11.535 13.3202 11.5553 13.3184C11.5879 13.3047 11.6013 13.3393 11.5751 13.359C11.5574 13.3816 11.5011 13.3698 11.5064 13.4059C11.5245 13.408 11.5434 13.4073 11.5616 13.4059C11.5979 13.396 11.6369 13.3703 11.6407 13.3299C11.6455 13.2946 11.6963 13.301 11.7241 13.2934C11.7588 13.2834 11.8006 13.2808 11.8084 13.3246C11.8321 13.3495 11.8834 13.3774 11.9095 13.3434C11.936 13.3272 11.9487 13.2988 11.947 13.2684C11.9416 13.2422 11.9893 13.2413 12.0011 13.2559C12.0185 13.2845 12.0728 13.2761 12.0991 13.2601C12.1269 13.2395 12.133 13.2032 12.173 13.2028C12.2324 13.185 12.2942 13.1747 12.3522 13.1528C12.3992 13.1425 12.3452 13.1128 12.3334 13.0955C12.2976 13.0778 12.2665 13.1502 12.2261 13.1142C12.195 13.0904 12.1971 13.045 12.1855 13.0101C12.1776 12.9648 12.1796 12.9126 12.147 12.8767C12.1246 12.8529 12.0941 12.8472 12.0626 12.8486ZM11.8355 13.1642C11.8397 13.1641 11.8444 13.1662 11.8522 13.1705C11.8668 13.1785 11.8772 13.1919 11.8772 13.2028C11.8772 13.2099 11.8754 13.2103 11.8647 13.2153C11.8581 13.2183 11.8506 13.2216 11.848 13.2215C11.842 13.2215 11.8272 13.2096 11.8272 13.2049C11.8272 13.2029 11.8252 13.1953 11.823 13.1892C11.8191 13.1785 11.8197 13.1787 11.8251 13.1715C11.8286 13.1669 11.8313 13.1643 11.8355 13.1642ZM12.0532 13.1757C12.0656 13.1749 12.073 13.1787 12.0782 13.1882C12.0843 13.1991 12.0802 13.2075 12.0647 13.2142C12.0579 13.2172 12.0511 13.2195 12.0501 13.2194C12.0491 13.2193 12.0435 13.216 12.0376 13.2121C12.0286 13.2062 12.0273 13.2033 12.0272 13.1965C12.0271 13.186 12.0388 13.1766 12.0532 13.1757ZM11.7553 13.1788C11.7589 13.1782 11.7623 13.1801 11.7668 13.184C11.7728 13.1892 11.7747 13.1933 11.7761 13.2038C11.7772 13.2111 11.777 13.2205 11.7761 13.2246C11.7745 13.2322 11.7744 13.2318 11.7574 13.2319C11.7361 13.2321 11.7341 13.2298 11.7345 13.2101C11.7347 13.1975 11.7349 13.1941 11.7418 13.1871C11.7471 13.1817 11.7517 13.1794 11.7553 13.1788ZM11.572 13.2267C11.5786 13.2283 11.5849 13.2333 11.5866 13.2413C11.5887 13.2519 11.5868 13.2567 11.5782 13.2611C11.5708 13.2649 11.5538 13.2661 11.5491 13.2632C11.5475 13.2622 11.5444 13.2597 11.5428 13.2569C11.5405 13.2529 11.541 13.251 11.5438 13.2486C11.5459 13.247 11.548 13.2446 11.548 13.2434C11.548 13.2422 11.5503 13.238 11.5532 13.234C11.5581 13.2276 11.5653 13.2252 11.572 13.2267ZM11.8803 13.2663C11.8862 13.2663 11.8913 13.2683 11.8949 13.2715C11.9011 13.2769 11.9009 13.2849 11.8939 13.2903C11.8894 13.2937 11.8648 13.2934 11.8564 13.2903C11.8526 13.2889 11.8512 13.287 11.8511 13.283C11.8511 13.2783 11.8524 13.2754 11.8605 13.2715C11.8673 13.2683 11.8744 13.2663 11.8803 13.2663Z" fill="#C09300"/>
<path fill-rule="evenodd" clip-rule="evenodd" d="M11.3082 13.427C11.305 13.4249 11.3002 13.4231 11.305 13.4196C11.3108 13.4096 11.3223 13.4061 11.3325 13.4023C11.3507 13.3944 11.3665 13.381 11.3783 13.365C11.3799 13.3539 11.3924 13.3479 11.3923 13.3363C11.3924 13.3205 11.3934 13.3043 11.3895 13.2888C11.3852 13.2746 11.3745 13.2637 11.362 13.2563C11.3534 13.2496 11.3395 13.2477 11.3363 13.2358C11.3346 13.2244 11.3448 13.2157 11.3484 13.2055C11.3558 13.1915 11.3621 13.1767 11.3701 13.163C11.3787 13.1534 11.392 13.1625 11.3965 13.1718C11.4028 13.181 11.4084 13.191 11.4115 13.2017C11.4216 13.2127 11.4305 13.2257 11.4342 13.2404C11.4391 13.2508 11.4469 13.2605 11.4465 13.2726C11.4465 13.2865 11.4543 13.2989 11.4538 13.3128C11.4542 13.3315 11.4542 13.351 11.4474 13.3686C11.4427 13.3784 11.4334 13.3843 11.4272 13.3931C11.4166 13.4029 11.4049 13.4124 11.3912 13.4176C11.3816 13.4207 11.376 13.4318 11.3639 13.4291C11.3467 13.4294 11.3293 13.4317 11.3123 13.4289C11.3134 13.4308 11.3071 13.4259 11.3082 13.427Z" fill="#C09300"/>
<path fill-rule="evenodd" clip-rule="evenodd" d="M11.0798 13.4419C11.0717 13.4336 11.0699 13.4301 11.0698 13.4219C11.0697 13.4137 11.0713 13.4104 11.0792 13.4024C11.0938 13.3876 11.101 13.3873 11.1262 13.4C11.1503 13.4122 11.1585 13.4133 11.1606 13.4047C11.1627 13.3964 11.1766 13.3887 11.1898 13.3887C11.1981 13.3886 11.2028 13.3903 11.2095 13.3955C11.2179 13.402 11.2183 13.403 11.2185 13.4181C11.2186 13.4335 11.2184 13.4341 11.2088 13.4426C11.1996 13.4508 11.1981 13.4513 11.1866 13.4501C11.172 13.4487 11.1633 13.442 11.1609 13.4305C11.1592 13.4222 11.1563 13.4202 11.1541 13.4259C11.1534 13.4277 11.1498 13.4299 11.1461 13.4308C11.1393 13.4326 11.1278 13.4398 11.1197 13.4475C11.1166 13.4504 11.1111 13.4518 11.1024 13.4519C11.0905 13.452 11.0889 13.4513 11.0798 13.4419Z" fill="#C09300"/>
<path fill-rule="evenodd" clip-rule="evenodd" d="M10.419 13.1453C10.3968 13.1455 10.3729 13.1641 10.37 13.1859C10.3751 13.211 10.3959 13.2355 10.3825 13.2619C10.3917 13.2957 10.3571 13.3085 10.3335 13.289C10.3193 13.2566 10.3121 13.2212 10.2908 13.1921C10.264 13.1846 10.2523 13.2274 10.2335 13.2421C10.2429 13.2673 10.2701 13.2899 10.2731 13.3213C10.2796 13.3518 10.2611 13.3857 10.2346 13.4015C10.2117 13.4233 10.1804 13.4155 10.1523 13.4203C10.1181 13.4402 10.1773 13.4475 10.1929 13.4484C10.2278 13.4519 10.2641 13.4473 10.2898 13.4213C10.3154 13.4091 10.3134 13.3647 10.344 13.3598C10.3969 13.3575 10.4494 13.368 10.5023 13.3692C10.5306 13.376 10.5744 13.3659 10.594 13.3869C10.594 13.4238 10.6253 13.4466 10.6554 13.4609C10.672 13.4655 10.6895 13.4449 10.7065 13.4411C10.7386 13.4308 10.7288 13.391 10.7481 13.3755C10.8031 13.3725 10.8587 13.3731 10.9137 13.3723C10.9242 13.3726 10.9273 13.3577 10.9346 13.3515C10.9334 13.3302 10.9326 13.3091 10.9294 13.288C10.9188 13.2611 10.9311 13.2265 10.9117 13.2036C10.884 13.1961 10.8605 13.2214 10.8325 13.2234C10.8016 13.2371 10.7756 13.2656 10.7742 13.3005C10.7559 13.3304 10.7266 13.2952 10.7367 13.2703C10.7355 13.2594 10.739 13.2468 10.7356 13.2369C10.7187 13.2167 10.6891 13.2233 10.6658 13.2203C10.6319 13.2216 10.5987 13.2143 10.5648 13.2151C10.535 13.2128 10.5041 13.2176 10.4752 13.2099C10.4408 13.2089 10.4456 13.1752 10.4398 13.1515C10.4337 13.147 10.4263 13.1452 10.419 13.1453ZM10.4856 13.2682C10.4971 13.2684 10.5078 13.2699 10.519 13.2713C10.5333 13.2737 10.5486 13.2664 10.5627 13.2713C10.5953 13.2768 10.6278 13.2755 10.6606 13.2786C10.6693 13.2785 10.6755 13.2848 10.6815 13.2901C10.6815 13.3128 10.6815 13.336 10.6815 13.3588C10.6805 13.3674 10.684 13.3787 10.6762 13.3848C10.6738 13.3866 10.671 13.3884 10.6679 13.389C10.6589 13.3867 10.6493 13.3807 10.645 13.3723C10.6436 13.3604 10.6456 13.3489 10.646 13.3369C10.6458 13.3338 10.6474 13.329 10.646 13.3265C10.6389 13.3215 10.6309 13.3182 10.6221 13.3182C10.5938 13.3172 10.566 13.3151 10.5377 13.314C10.5141 13.3125 10.4899 13.316 10.4669 13.3098C10.4579 13.3066 10.4463 13.3077 10.4408 13.2984C10.433 13.2893 10.4443 13.2785 10.4523 13.2744C10.4629 13.2696 10.4742 13.268 10.4856 13.2682ZM10.8617 13.2765C10.8669 13.2764 10.8686 13.2782 10.871 13.288C10.8726 13.2942 10.8743 13.3019 10.8752 13.3046C10.8764 13.3086 10.8745 13.3098 10.8689 13.3119C10.8525 13.3181 10.8361 13.3175 10.8304 13.3098C10.8278 13.3064 10.8308 13.2954 10.8356 13.2911C10.8453 13.2825 10.8559 13.2765 10.8617 13.2765Z" fill="#C09300"/>
<path fill-rule="evenodd" clip-rule="evenodd" d="M10.712 11.3918C11.8001 10.555 11.7068 9.32907 11.7068 9.32907C11.678 9.33481 11.6508 9.33768 11.6221 9.33768C11.3938 9.33768 10.8495 9.20711 10.7225 9.04126C10.5864 9.19137 10.0301 9.33768 9.80333 9.33768C9.77462 9.33768 9.74591 9.33481 9.71864 9.32907C9.71864 9.32907 9.62391 10.5549 10.712 11.3918Z" fill="white"/>
<path fill-rule="evenodd" clip-rule="evenodd" d="M11.3267 10.7521C11.5085 10.4668 11.6226 10.1617 11.6823 9.85311C11.7215 9.64988 11.7321 9.47585 11.727 9.34726C11.7266 9.33765 11.7243 9.30591 11.7243 9.30591C11.7243 9.30591 11.6492 9.31839 11.6221 9.31839C11.3479 9.31839 10.8451 9.16973 10.7378 9.02949L10.7238 9.01123L10.7083 9.02827C10.5895 9.15942 10.0597 9.31839 9.80341 9.31839C9.77582 9.31839 9.70129 9.30569 9.70129 9.30569C9.70129 9.30569 9.69892 9.33789 9.69852 9.34774C9.69328 9.47675 9.70379 9.65096 9.74295 9.85419C9.80236 10.1624 9.91627 10.4672 10.0976 10.7521C10.2528 10.9959 10.4523 11.2161 10.7004 11.4069L10.7238 11.4069C10.9719 11.2161 11.1714 10.9959 11.3267 10.7521ZM10.712 11.3725C10.4824 11.1855 10.2615 10.9382 10.13 10.7315C9.95136 10.4509 9.83914 10.1507 9.7806 9.84693C9.74204 9.64681 9.7317 9.47551 9.73683 9.3493C9.75669 9.35673 9.77321 9.35673 9.80341 9.35673C10.0694 9.35673 10.5909 9.21473 10.72 9.06773C10.8572 9.21473 11.3464 9.35673 11.6221 9.35673C11.6518 9.35673 11.6887 9.34879 11.6887 9.34879C11.6937 9.47459 11.6833 9.64571 11.6446 9.84583C11.5859 10.1499 11.4734 10.4505 11.2944 10.7315C11.1414 10.9716 10.945 11.1855 10.712 11.3725ZM11.5918 9.40434C11.3414 9.40434 10.8892 9.28023 10.7293 9.14278L10.7199 9.13476L10.7101 9.1422C10.5378 9.27271 10.0661 9.40434 9.83344 9.40434C9.82564 9.40434 9.81739 9.40345 9.80788 9.40171L9.79004 9.39843L9.78986 9.41656C9.78944 9.45782 9.79114 9.50171 9.79471 9.55584C9.8054 9.71803 9.83375 9.88295 9.87814 10.044C10.0156 10.5424 10.2971 10.9675 10.7024 11.2903L10.7119 11.2979L10.7214 11.2903C11.1271 10.9672 11.4089 10.5418 11.5467 10.0429C11.5911 9.88196 11.6196 9.71706 11.6304 9.55488C11.6339 9.50198 11.6356 9.45906 11.6353 9.41861V9.40171C11.6353 9.40171 11.601 9.40434 11.5918 9.40434Z" fill="#C09300"/>
<path fill-rule="evenodd" clip-rule="evenodd" d="M10.3586 10.9102C10.4628 11.0369 10.5809 11.1536 10.7125 11.2593C10.8354 11.16 10.9468 11.0513 11.046 10.9338L11.046 9.33186C10.9118 9.28734 10.7912 9.23206 10.7186 9.17358C10.6404 9.23518 10.5055 9.29323 10.3586 9.33889L10.3586 10.9102Z" fill="white"/>
<path fill-rule="evenodd" clip-rule="evenodd" d="M11.2222 8.87541C11.2551 8.88236 11.2903 8.88772 11.3255 8.89171C11.3378 8.8931 11.3702 8.89597 11.3726 8.89613L11.4868 8.90351L11.3821 8.8573C11.2578 8.80244 11.1281 8.36279 11.1433 8.0194C11.1557 7.71308 11.1118 7.53429 11.0341 7.45655C10.9673 7.38977 10.7563 7.32609 10.5987 7.31733C10.5545 7.31516 10.5262 7.33136 10.5149 7.36014C10.5099 7.37286 10.5102 7.37165 10.5102 7.37165C10.3503 7.33349 10.2219 7.3302 10.1577 7.37299C10.1228 7.39622 10.0998 7.45758 10.093 7.52439C10.0901 7.55349 10.0909 7.5797 10.0959 7.59751C10.1038 7.62581 10.1272 7.63957 10.1515 7.62006C10.2362 7.55233 10.3172 7.58941 10.3966 7.7046C10.4535 7.78683 10.4438 8.02904 10.3638 8.29361C10.3332 8.39539 10.2819 8.50429 10.2158 8.6158C10.1764 8.68236 10.1341 8.74574 10.0918 8.80379C10.077 8.82409 10.0632 8.84227 10.0509 8.85806C10.0436 8.86749 10.0384 8.87399 10.0356 8.87731L10.0083 8.91051H10.0513C10.0813 8.91051 10.1147 8.90497 10.1509 8.89467C10.1883 8.88406 10.2278 8.86869 10.2682 8.84979C10.2962 8.83668 10.338 8.81388 10.338 8.81388L10.3047 8.95211L10.2947 8.99352L10.3332 8.97519C10.3682 8.95851 10.4032 8.93878 10.4378 8.91663C10.4769 8.89158 10.5136 8.86476 10.5468 8.83794C10.5585 8.82854 10.5755 8.81542 10.5755 8.81542L10.694 8.94081L10.7105 8.95811L10.7249 8.93904C10.7335 8.92759 10.7705 8.88596 10.7777 8.87842C10.7947 8.86054 10.813 8.84234 10.8313 8.82482C10.8423 8.8143 10.8424 8.81542 10.8424 8.81542C10.8424 8.81542 10.8483 8.82066 10.8518 8.82355C10.8712 8.84004 10.8937 8.85649 10.9191 8.87185C10.9803 8.90893 11.0481 8.93374 11.1211 8.94049C11.1475 8.94209 11.1516 8.92312 11.1477 8.89883C11.1458 8.88717 11.1415 8.87215 11.1353 8.85421C11.1336 8.84919 11.1542 8.86107 11.2222 8.87541Z" fill="white"/>
<path fill-rule="evenodd" clip-rule="evenodd" d="M10.3539 8.75784C10.3369 8.7676 10.2751 8.80176 10.251 8.81301C10.2124 8.83105 10.1749 8.84566 10.1399 8.85562C10.1069 8.86497 10.0958 8.86635 10.0958 8.86635C10.0958 8.86635 10.1145 8.84157 10.1246 8.8277C10.1676 8.76867 10.2106 8.70425 10.2508 8.6365C10.3184 8.52239 10.371 8.41064 10.4027 8.30535C10.4694 8.08455 10.4892 7.87837 10.4604 7.75602C10.4639 7.75184 10.4683 7.74745 10.4735 7.74287C10.4957 7.72327 10.5885 7.74418 10.5885 7.74418C10.463 7.52985 10.3206 7.47888 10.2578 7.4828C10.1999 7.4856 10.164 7.54661 10.1482 7.5811C10.1432 7.5853 10.1382 7.58993 10.1334 7.59499C10.1334 7.59499 10.1309 7.55299 10.1334 7.52851C10.1372 7.49149 10.147 7.45635 10.1595 7.43266C10.1792 7.42003 10.2084 7.40784 10.2502 7.40441C10.3469 7.39788 10.3756 7.41225 10.4501 7.47107C10.5246 7.52988 10.5834 7.55863 10.62 7.55209C10.6318 7.55079 10.6383 7.5717 10.6501 7.58607C10.6592 7.59653 10.6566 7.60568 10.6919 7.60568C10.7141 7.60568 10.7259 7.56255 10.7402 7.55079C10.7585 7.53641 10.7925 7.52988 10.8147 7.52465C10.8618 7.51289 10.884 7.51419 10.9193 7.51027C10.9363 7.50827 10.995 7.50626 11.0361 7.52614C11.0853 7.61094 11.1127 7.76943 11.1027 8.01768C11.0868 8.37625 11.2037 8.75544 11.3083 8.84871C11.2817 8.84523 11.2554 8.84091 11.2305 8.83568C11.1729 8.82353 11.1301 8.80771 11.1102 8.7898L11.1103 8.78969C11.0682 8.72787 11.0336 8.62124 11.0065 8.48328C10.9904 8.40091 10.9779 8.31251 10.9686 8.2241C10.9654 8.19314 10.9628 8.16439 10.9608 8.13861C10.9595 8.12318 10.9588 8.11219 10.9584 8.10639L10.9162 8.10889C10.9165 8.11495 10.9173 8.12621 10.9185 8.14193C10.9206 8.16806 10.9232 8.19717 10.9265 8.22851C10.9359 8.31809 10.9486 8.40768 10.965 8.49144C10.9931 8.63462 11.0292 8.74572 11.0753 8.81352L11.0758 8.81323C11.0823 8.83022 11.1079 8.89816 11.1079 8.89816C11.0482 8.89009 10.9917 8.86839 10.9401 8.83712C10.9167 8.82294 10.8959 8.80774 10.878 8.79258C10.8736 8.78887 10.8669 8.78243 10.8605 8.77613C10.8476 8.73354 10.8381 8.61165 10.8324 8.43919C10.8298 8.36012 10.8282 8.27537 10.8272 8.19061C10.8269 8.16094 10.8267 8.13339 10.8266 8.10867C10.8265 8.09385 10.8265 8.08327 10.8265 8.07764H10.7841C10.7841 8.08333 10.7842 8.09398 10.7842 8.10887C10.7844 8.13368 10.7846 8.16131 10.7849 8.19107C10.7858 8.27612 10.7875 8.36117 10.7901 8.44058C10.7957 8.60985 10.8045 8.72866 10.8181 8.78159C10.8116 8.78769 10.8056 8.79321 10.8033 8.79549C10.7845 8.81342 10.7658 8.83203 10.7483 8.85041C10.7409 8.8582 10.7338 8.86581 10.7271 8.87318C10.7136 8.88821 10.7074 8.896 10.7074 8.896L10.6008 8.78424C10.6344 8.71487 10.6614 8.60017 10.6831 8.45139C10.6957 8.36494 10.7057 8.2724 10.7134 8.17988C10.7161 8.14751 10.7183 8.11745 10.7201 8.09046C10.7211 8.07424 10.7218 8.06264 10.7221 8.0564L10.6798 8.05421C10.6795 8.06026 10.6789 8.07168 10.6778 8.0877C10.6761 8.11445 10.6739 8.14426 10.6712 8.17637C10.6636 8.26808 10.6536 8.35978 10.6412 8.44528C10.6191 8.59668 10.5914 8.71178 10.5584 8.77421C10.545 8.78607 10.5278 8.80114 10.5213 8.80635C10.4892 8.83229 10.4537 8.85824 10.4159 8.88243C10.3826 8.90372 10.3548 8.91766 10.3548 8.91766L10.3869 8.78448C10.4412 8.72239 10.4882 8.60498 10.5297 8.44695C10.5512 8.36498 10.5698 8.27727 10.5854 8.18958C10.5909 8.1589 10.5956 8.13041 10.5995 8.10483C10.6019 8.08944 10.6035 8.07843 10.6043 8.07249L10.5623 8.06679C10.5616 8.07248 10.56 8.08325 10.5577 8.09838C10.5538 8.12365 10.5491 8.15182 10.5437 8.18216C10.5283 8.26881 10.5099 8.35545 10.4887 8.43621C10.4486 8.58932 10.403 8.70272 10.3539 8.75784ZM11.2222 8.87541C11.2551 8.88236 11.2903 8.88772 11.3255 8.89171C11.3378 8.8931 11.3702 8.89597 11.3726 8.89613L11.4868 8.90351L11.3821 8.8573C11.2578 8.80244 11.1281 8.36279 11.1433 8.0194C11.1557 7.71308 11.1118 7.53429 11.0341 7.45655C10.9673 7.38977 10.7563 7.32609 10.5987 7.31733C10.5545 7.31516 10.5262 7.33136 10.5149 7.36014C10.5099 7.37286 10.5102 7.37165 10.5102 7.37165C10.3503 7.33349 10.2219 7.3302 10.1577 7.37299C10.1228 7.39622 10.0998 7.45758 10.093 7.52439C10.0901 7.55349 10.0909 7.5797 10.0959 7.59751C10.1038 7.62581 10.1272 7.63957 10.1515 7.62006C10.2362 7.55233 10.3172 7.58941 10.3966 7.7046C10.4535 7.78683 10.4438 8.02904 10.3638 8.29361C10.3332 8.39539 10.2819 8.50429 10.2158 8.6158C10.1764 8.68236 10.1341 8.74574 10.0918 8.80379C10.077 8.82409 10.0632 8.84227 10.0509 8.85806C10.0436 8.86749 10.0384 8.87399 10.0356 8.87731L10.0083 8.91051H10.0513C10.0813 8.91051 10.1147 8.90497 10.1509 8.89467C10.1883 8.88406 10.2278 8.86869 10.2682 8.84979C10.2962 8.83668 10.338 8.81388 10.338 8.81388L10.3047 8.95211L10.2947 8.99352L10.3332 8.97519C10.3682 8.95851 10.4032 8.93878 10.4378 8.91663C10.4769 8.89158 10.5136 8.86476 10.5468 8.83794C10.5585 8.82854 10.5755 8.81542 10.5755 8.81542L10.694 8.94081L10.7105 8.95811L10.7249 8.93904C10.7335 8.92759 10.7705 8.88596 10.7777 8.87842C10.7947 8.86054 10.813 8.84234 10.8313 8.82482C10.8423 8.8143 10.8424 8.81542 10.8424 8.81542C10.8424 8.81542 10.8483 8.82066 10.8518 8.82355C10.8712 8.84004 10.8937 8.85649 10.9191 8.87185C10.9803 8.90893 11.0481 8.93374 11.1211 8.94049C11.1475 8.94209 11.1516 8.92312 11.1477 8.89883C11.1458 8.88717 11.1415 8.87215 11.1353 8.85421C11.1336 8.84919 11.1542 8.86107 11.2222 8.87541Z" fill="#C09300"/>
<path d="M10.6735 7.54573C10.6952 7.54573 10.7127 7.52817 10.7127 7.50651C10.7127 7.48485 10.6952 7.46729 10.6735 7.46729C10.6518 7.46729 10.6343 7.48485 10.6343 7.50651C10.6343 7.52817 10.6518 7.54573 10.6735 7.54573Z" fill="white"/>
</g>
<defs>
<clipPath id="clip0_8066_4443">
<rect width="20" height="20" fill="white" transform="translate(0.712646 0.506104)"/>
</clipPath>
</defs>
</svg>
