<svg width="24" height="24" viewBox="0 0 24 24" fill="none" xmlns="http://www.w3.org/2000/svg">
<path d="M5.44091 4.557C5.09891 4.557 4.76691 4.382 4.57991 4.067L3.98691 3.067C3.70591 2.592 3.86191 1.979 4.33791 1.697C4.81191 1.416 5.42591 1.572 5.70791 2.048L6.30091 3.048C6.58191 3.523 6.42591 4.136 5.94991 4.418C5.78991 4.513 5.61491 4.557 5.44091 4.557ZM11.9999 10C10.8969 10 9.99991 10.897 9.99991 12C9.99991 13.103 10.8969 14 11.9999 14C13.1029 14 13.9999 13.103 13.9999 12C13.9999 10.897 13.1029 10 11.9999 10ZM21.1899 14.274C20.3439 15.382 17.1799 19 11.9999 19C6.81991 19 3.84491 15.741 2.79491 14.339C1.77291 12.975 1.77491 11.083 2.79991 9.738C3.64691 8.627 6.81491 5 11.9999 5C17.1159 5 20.1339 8.266 21.1939 9.67C22.2219 11.032 22.2199 12.925 21.1899 14.274ZM15.9999 12C15.9999 9.794 14.2059 8 11.9999 8C9.79391 8 7.99991 9.794 7.99991 12C7.99991 14.206 9.79391 16 11.9999 16C14.2059 16 15.9999 14.206 15.9999 12ZM12.9999 2V1C12.9999 0.448 12.5519 0 11.9999 0C11.4479 0 10.9999 0.448 10.9999 1V2C10.9999 2.552 11.4479 3 11.9999 3C12.5519 3 12.9999 2.552 12.9999 2ZM19.4199 4.066L20.0129 3.066C20.2939 2.591 20.1379 1.978 19.6619 1.696C19.1879 1.415 18.5739 1.571 18.2919 2.047L17.6989 3.047C17.4179 3.522 17.5739 4.135 18.0499 4.417C18.5169 4.696 19.1369 4.546 19.4199 4.066ZM19.6619 22.303C20.1369 22.021 20.2939 21.408 20.0129 20.933L19.4199 19.933C19.1379 19.457 18.5249 19.301 18.0499 19.582C17.5749 19.863 17.4179 20.477 17.6989 20.952L18.2919 21.952C18.5749 22.431 19.1949 22.581 19.6619 22.303ZM12.9999 22.999V21.999C12.9999 21.447 12.5519 20.999 11.9999 20.999C11.4479 20.999 10.9999 21.447 10.9999 21.999V22.999C10.9999 23.551 11.4479 23.999 11.9999 23.999C12.5519 23.999 12.9999 23.551 12.9999 22.999ZM5.70791 21.952L6.30091 20.952C6.58191 20.477 6.42591 19.864 5.94991 19.582C5.47391 19.3 4.86191 19.457 4.57991 19.933L3.98691 20.933C3.70591 21.408 3.86191 22.021 4.33791 22.303C4.80491 22.582 5.42491 22.432 5.70791 21.952Z" fill="white"/>
</svg>
