<svg width="390" height="139" viewBox="0 0 390 139" fill="none" xmlns="http://www.w3.org/2000/svg">
<g clip-path="url(#clip0_8180_340)">
<mask id="mask0_8180_340" style="mask-type:luminance" maskUnits="userSpaceOnUse" x="-36" y="-382" width="462" height="563">
<path d="M426 -381.865H-36V180.741H426V-381.865Z" fill="white"/>
</mask>
<g mask="url(#mask0_8180_340)">
<path d="M-8.27928 162.424C-8.27928 162.424 -14.8487 145.893 -1.24469 137.303C12.3578 128.713 26.2206 132.323 26.2206 132.323C26.2206 132.323 26.8689 117.81 40.7362 110.276C54.6021 102.741 63.4272 108.731 63.4272 108.731C63.4272 108.731 69.8555 91.2098 78.6416 88.4546C87.4291 85.7009 90.6461 99.5558 90.6461 99.5558C90.6461 99.5558 102.865 84.9873 115.383 84.3177C127.901 83.6481 129.962 98.5567 129.962 98.5567C129.962 98.5567 126.262 83.5565 145.053 81.0065C163.846 78.4565 177.584 95.2153 177.584 95.2153C177.584 95.2153 181.38 81.2709 197.61 82.2145C218.058 83.4034 217.435 96.2027 217.435 96.2027C217.435 96.2027 220.15 80.5651 238.868 80.831C257.585 81.0969 261.923 99.5261 261.923 99.5261C261.923 99.5261 273.139 87.8388 282.032 86.3788C291.559 84.8481 304.789 101.023 304.789 101.023C304.789 101.023 319.207 81.7858 329.916 86.584C340.622 91.3838 330.911 110.326 330.911 110.326C330.911 110.326 336.267 105.179 349.367 111.622C362.467 118.065 364.071 128.572 364.071 128.572C364.071 128.572 389.719 124.286 397.687 130.744C405.655 137.203 401.655 163.958 401.655 163.958" stroke="#FFBF45" stroke-width="6.059" stroke-linecap="round" stroke-linejoin="round"/>
<path d="M-8.27928 162.424C-8.27928 162.424 -14.8487 145.893 -1.24469 137.303C12.3578 128.713 26.2206 132.323 26.2206 132.323C26.2206 132.323 26.8689 117.81 40.7362 110.276C54.6021 102.741 63.4272 108.731 63.4272 108.731C63.4272 108.731 69.8555 91.2098 78.6416 88.4546C87.4291 85.7009 90.6461 99.5558 90.6461 99.5558C90.6461 99.5558 102.865 84.9873 115.383 84.3177C127.901 83.6481 129.962 98.5567 129.962 98.5567C129.962 98.5567 126.262 83.5565 145.053 81.0065C163.846 78.4565 177.584 95.2153 177.584 95.2153C177.584 95.2153 181.38 81.2709 197.61 82.2145C218.058 83.4034 217.435 96.2027 217.435 96.2027C217.435 96.2027 220.15 80.5651 238.868 80.831C257.585 81.0969 261.923 99.5261 261.923 99.5261C261.923 99.5261 273.139 87.8388 282.032 86.3788C291.559 84.8481 304.789 101.023 304.789 101.023C304.789 101.023 319.207 81.7858 329.916 86.584C340.622 91.3838 330.911 110.326 330.911 110.326C330.911 110.326 336.267 105.179 349.367 111.622C362.467 118.065 364.071 128.572 364.071 128.572C364.071 128.572 389.719 124.286 397.687 130.744C405.655 137.203 401.655 163.958 401.655 163.958" fill="white"/>
<path d="M120.33 32.7642L96.4203 37.1595L83.9139 111.881L134.307 114.078L120.33 32.7642Z" fill="white"/>
<path d="M95.6846 36.427L83.9139 110.416" stroke="#FFBF45" stroke-width="4"/>
<path d="M119.226 33.4966L132.836 112.613" stroke="#FFBF45" stroke-width="4"/>
<path d="M305.35 33.8628L278.13 35.6942L267.095 111.881L317.489 114.078L305.35 33.8628Z" fill="white"/>
<path d="M277.763 33.4966L267.095 110.415" stroke="#FFBF45" stroke-width="4"/>
<path d="M305.718 38.6245L316.018 112.613" stroke="#FFBF45" stroke-width="4"/>
<path d="M214.863 35.3281L181.758 36.427L174.401 111.881L224.795 114.078L214.863 35.3281Z" fill="white"/>
<path d="M182.861 36.427L174.401 110.416" stroke="#FFBF45" stroke-width="4"/>
<path d="M214.495 35.8774L223.323 112.613" stroke="#FFBF45" stroke-width="4"/>
<mask id="mask1_8180_340" style="mask-type:luminance" maskUnits="userSpaceOnUse" x="-19" y="-483" width="796" height="792">
<path d="M-18.344 -482.959H776.178V308.207H-18.344V-482.959Z" fill="white"/>
</mask>
<g mask="url(#mask1_8180_340)">
<path d="M291.005 58.8865C291.005 72.833 291.005 101.81 291.005 115.145" stroke="#FFBF45"/>
<path d="M285.119 42.6536C285.119 42.6536 284.823 45.6395 284.351 50.3813" stroke="#FFBF45"/>
<path d="M296.89 38.6245C296.89 38.6245 298.511 61.0819 299.788 78.782" stroke="#FFBF45"/>
</g>
<mask id="mask2_8180_340" style="mask-type:luminance" maskUnits="userSpaceOnUse" x="-203" y="-483" width="796" height="792">
<path d="M-202.261 -482.959H592.261V308.207H-202.261V-482.959Z" fill="white"/>
</mask>
<g mask="url(#mask2_8180_340)">
<path d="M107.088 58.8865C107.088 72.833 107.088 101.81 107.088 115.145" stroke="#FFBF45"/>
<path d="M101.202 42.6536C101.202 42.6536 100.906 45.6395 100.434 50.3813" stroke="#FFBF45"/>
<path d="M112.973 38.6245C112.973 38.6245 114.594 61.0819 115.871 78.782" stroke="#FFBF45"/>
</g>
<mask id="mask3_8180_340" style="mask-type:luminance" maskUnits="userSpaceOnUse" x="-112" y="-483" width="795" height="792">
<path d="M-111.774 -482.959H682.748V308.207H-111.774V-482.959Z" fill="white"/>
</mask>
<g mask="url(#mask3_8180_340)">
<path d="M197.575 97.7283C197.575 111.101 197.575 122.136 197.575 122.136" stroke="#FFBF45"/>
<path d="M191.689 42.6536C191.689 42.6536 189.123 68.4734 187.101 88.8232" stroke="#FFBF45"/>
<path d="M205.052 60.6877C206.317 78.2121 207.874 99.7933 207.874 99.7933" stroke="#FFBF45"/>
</g>
<path d="M278.281 5.4021C278.281 5.4021 268.458 13.2896 261.988 22.6305C255.52 31.9714 252.912 42.7686 252.912 42.7686H319.975C319.975 42.7686 318.752 31.9714 312.458 22.6305C306.163 13.2896 296.3 5.4021 296.3 5.4021H278.281Z" fill="#3DA881"/>
<path d="M261.847 0.587162C261.847 -0.844995 262.997 -2.0061 264.417 -2.0061H312.452C313.872 -2.0061 315.022 -0.844995 315.022 0.587162V10.2189C315.022 11.651 313.872 12.8121 312.452 12.8121H264.417C262.997 12.8121 261.847 11.651 261.847 10.2189V0.587162Z" fill="white"/>
<path d="M99.2477 5.4021C99.2477 5.4021 89.4066 13.2896 82.9261 22.6305C76.4456 31.9714 73.8347 42.7686 73.8347 42.7686H141.013C141.013 42.7686 139.788 31.9714 133.481 22.6305C127.177 13.2896 117.296 5.4021 117.296 5.4021H99.2477Z" fill="#3DA881"/>
<path d="M80.8368 0.587162C80.8368 -0.844995 81.9859 -2.0061 83.4057 -2.0061H131.442C132.861 -2.0061 134.011 -0.844995 134.011 0.587162V10.2189C134.011 11.651 132.861 12.8121 131.442 12.8121H83.4057C81.9859 12.8121 80.8368 11.651 80.8368 10.2189V0.587162Z" fill="white"/>
<path d="M182.884 26.2866C182.884 26.2866 175.156 35.8334 171.545 41.4851C165.868 50.371 162.419 59.2489 162.419 59.2489H229.852C229.852 59.2489 228.231 52.1958 222.293 41.4851C216.355 30.7743 212.289 26.2866 212.289 26.2866H182.884Z" fill="#1A2E34"/>
<path d="M175.077 15.4038C175.077 13.9717 176.228 12.812 177.647 12.812H218.419C219.838 12.812 220.988 13.9717 220.988 15.4038V23.6935C220.988 25.1256 219.838 26.2867 218.419 26.2867H177.647C176.228 26.2867 175.077 25.1256 175.077 23.6935V15.4038Z" stroke="#1A2E34" stroke-width="6.059" stroke-linecap="round" stroke-linejoin="round"/>
<path d="M155.74 -189.266C155.74 -189.266 148.973 -163.526 130.479 -132.801C111.984 -102.076 97.048 -94.4166 78.4414 -63.3736C59.8349 -32.3321 62.2516 -2.38204 62.2516 -2.38204L162.333 -2.00697L163.078 -189.266H155.74Z" stroke="#1A2E34" stroke-width="6.059" stroke-linecap="round" stroke-linejoin="round"/>
<path d="M239.284 -189.266C239.284 -189.266 246.051 -163.526 264.546 -132.801C283.04 -102.076 297.977 -94.4166 316.583 -63.3736C335.189 -32.3321 332.774 -2.38204 332.774 -2.38204L232.692 -2.00697L231.948 -189.266H239.284Z" stroke="#1A2E34" stroke-width="6.059" stroke-linecap="round" stroke-linejoin="round"/>
<path d="M153.587 -206.318C153.587 -207.159 153.814 -207.983 154.243 -208.698L193.805 -269.239C195.518 -272.104 199.548 -272.096 201.251 -269.225L240.486 -208.694C240.908 -207.982 241.132 -207.162 241.132 -206.327V8.28766C241.132 10.7864 239.173 12.812 236.757 12.812H157.961C155.546 12.812 153.587 10.7864 153.587 8.28766V-206.318Z" fill="#3DA881"/>
</g>
</g>
<defs>
<clipPath id="clip0_8180_340">
<rect width="462" height="139" fill="white" transform="translate(-36)"/>
</clipPath>
</defs>
</svg>
