<svg width="197" height="124" viewBox="0 0 197 124" fill="none" xmlns="http://www.w3.org/2000/svg">
<path d="M101.937 26.8476L87.7835 36.283C85.4246 37.7994 82.3918 37.4624 80.3699 35.6091C75.3152 30.8913 68.5756 28.027 59.9826 28.027C50.4853 28.027 43.1504 31.5821 38.0002 37.0581C32.0075 43.4382 28.9803 52.4132 28.9803 61.3881C28.9803 78.0686 39.4267 94.7492 59.9826 94.7492C70.502 94.7492 78.0335 91.0368 83.0601 85.3362C83.1163 85.3362 83.1668 85.3306 83.2174 85.3306C84.5148 85.3586 85.6661 85.7349 86.5423 86.4145C87.2948 86.9986 87.8116 87.7681 88.098 88.7116L93.9951 109.947C91.5408 112.3 88.8169 114.356 85.8121 116.08C78.7692 120.135 70.1931 122.382 59.9826 122.382C25.1051 122.382 0 96.2656 0 61.3881C0 58.9618 0.117943 56.5805 0.365062 54.2441C3.14515 26.5836 22.1059 5.73009 48.7836 1.164C52.3837 0.546206 56.1241 0.226074 59.9826 0.226074C77.3371 0.226074 92.3327 6.7972 102.948 17.5806C105.475 20.2764 105.138 24.8257 101.937 26.8476Z" fill="#173A48"/>
<path fill-rule="evenodd" clip-rule="evenodd" d="M87.8679 49.3195L77.6176 51.8805L75.9308 52.3053L75.0341 52.5265L67.345 54.4473L65.871 54.814L65.4507 54.9188L65.0752 55.012L65.1033 55.0117L65.7108 54.4784L66.2917 54.1083L67.4088 53.402L67.7108 53.2478L68.9017 52.6308L68.9576 52.6022L73.4977 50.2484L74.8619 49.54L75.695 49.1059L79.5473 47.112L79.8604 46.9464C80.8056 46.4888 81.8481 46.2438 82.9268 46.2737C85.1346 46.333 86.9481 47.5359 87.8677 49.2971C87.8677 49.2971 87.8677 49.2971 87.8678 49.3027L87.8679 49.3195Z" fill="#3EA981"/>
<path fill-rule="evenodd" clip-rule="evenodd" d="M95.7189 56.44L95.4832 56.4533L82.3808 56.5792L67.0096 56.7305L66.4031 56.7358L66.1841 56.7378L66.9158 56.2764L67.6548 56.0003L67.9518 55.9304L77.1816 53.5693L80.6678 52.73L83.3637 52.083L86.5304 51.3195L87.9091 50.9873L88.918 50.7425C89.0975 50.7129 89.277 50.6945 89.4566 50.6817C89.5353 50.681 89.6082 50.6691 89.6868 50.6684C89.8441 50.667 90.0013 50.6657 90.1586 50.6643C93.3666 50.7823 95.7139 53.2948 95.7132 56.4288L95.7189 56.44Z" fill="#3EA981"/>
<path d="M160.5 48.2261C181.836 48.2261 197 63.5738 197 83.7261C197 103.745 181.836 119.226 160.5 119.226C139.298 119.226 124 103.745 124 83.7261C124 63.5738 139.298 48.2261 160.5 48.2261ZM160.5 98.1396C169.357 98.1396 175.127 91.6001 175.127 83.7261C175.127 75.852 169.357 69.1791 160.5 69.1791C151.778 69.1791 146.007 75.852 146.007 83.7261C146.007 91.6001 151.778 98.1396 160.5 98.1396Z" fill="#173A48"/>
<path d="M116.314 64.5388V118.119C116.314 120.983 113.956 123.342 111.091 123.342H105.98C103.622 123.342 101.6 121.657 100.926 119.467L98.6735 112.238C98.6117 111.885 98.5275 111.525 98.4208 111.171L97.1515 106.594L91.8777 87.622C91.3442 85.8247 90.3164 84.3645 88.9572 83.3142C88.0249 82.5897 86.941 82.0618 85.7503 81.7473C84.9416 81.5226 84.0766 81.4103 83.178 81.3991C82.7063 81.4159 82.2289 81.4271 81.7515 81.4271C81.173 81.4271 80.5833 81.4103 79.9992 81.3878H66.6098C63.4534 81.3878 60.7857 78.765 60.7126 75.4626V64.5388C60.7126 61.169 63.4085 58.4731 66.6098 58.4731H110.417C113.619 58.4731 116.314 61.169 116.314 64.5388Z" fill="#3EA981"/>
</svg>
