<svg width="111" height="69" viewBox="0 0 111 69" fill="none" xmlns="http://www.w3.org/2000/svg">
<g clip-path="url(#clip0_8182_938)">
<path d="M57.1302 14.9199L49.198 20.208C47.876 21.0579 46.1763 20.869 45.0431 19.8303C42.2102 17.1863 38.433 15.581 33.6171 15.581C28.2944 15.581 24.1835 17.5734 21.2971 20.6424C17.9386 24.2182 16.242 29.2481 16.242 34.2781C16.242 43.6267 22.0966 52.9753 33.6171 52.9753C39.5127 52.9753 43.7337 50.8946 46.5509 47.6998C46.5823 47.6998 46.6107 47.6966 46.639 47.6966C47.3661 47.7123 48.0114 47.9232 48.5024 48.3041C48.9242 48.6315 49.2138 49.0627 49.3743 49.5915L52.6794 61.4928C51.3038 62.8117 49.7772 63.9638 48.0932 64.9301C44.146 67.2027 39.3396 68.4618 33.6171 68.4618C14.0701 68.4618 0 53.8251 0 34.2781C0 32.9183 0.066101 31.5837 0.204598 30.2743C1.76269 14.772 12.3892 3.08471 27.3406 0.525661C29.3583 0.179417 31.4546 0 33.6171 0C43.3434 0 51.7477 3.68277 57.6967 9.72629C59.1132 11.2372 58.9243 13.7868 57.1302 14.9199Z" fill="#173A48"/>
<path fill-rule="evenodd" clip-rule="evenodd" d="M49.2453 27.5141L43.5006 28.9494L42.5552 29.1875L42.0526 29.3115L37.7433 30.3879L36.9172 30.5935L36.6816 30.6522L36.4712 30.7044L36.4869 30.7043L36.8274 30.4054L37.153 30.1979L37.7791 29.8021L37.9483 29.7157L38.6157 29.3699L38.6471 29.3539L41.1915 28.0347L41.9561 27.6377L42.423 27.3944L44.5821 26.2769L44.7575 26.1841C45.2873 25.9276 45.8715 25.7903 46.4761 25.807C47.7134 25.8403 48.7298 26.5145 49.2452 27.5015C49.2452 27.5015 49.2452 27.5015 49.2452 27.5047L49.2453 27.5141Z" fill="#3EA981"/>
<path fill-rule="evenodd" clip-rule="evenodd" d="M53.6455 31.5049L53.5133 31.5124L46.1702 31.5829L37.5554 31.6677L37.2155 31.6707L37.0927 31.6718L37.5028 31.4132L37.917 31.2585L38.0835 31.2193L43.2563 29.896L45.2101 29.4256L46.721 29.063L48.4958 28.6351L49.2685 28.4489L49.8339 28.3118C49.9345 28.2952 50.0351 28.2848 50.1358 28.2777C50.1799 28.2773 50.2207 28.2706 50.2648 28.2702C50.3529 28.2695 50.441 28.2687 50.5292 28.2679C52.3271 28.334 53.6426 29.7422 53.6423 31.4987L53.6455 31.5049Z" fill="#3EA981"/>
<path d="M89.9518 26.9014C101.91 26.9014 110.408 35.503 110.408 46.7973C110.408 58.0167 101.91 66.6932 89.9518 66.6932C78.0691 66.6932 69.4955 58.0167 69.4955 46.7973C69.4955 35.503 78.0691 26.9014 89.9518 26.9014ZM89.9518 54.8753C94.9155 54.8753 98.1494 51.2103 98.1494 46.7973C98.1494 42.3843 94.9155 38.6444 89.9518 38.6444C85.0634 38.6444 81.8295 42.3843 81.8295 46.7973C81.8295 51.2103 85.0634 54.8753 89.9518 54.8753Z" fill="#173A48"/>
<path d="M65.1882 36.044V66.0728C65.1882 67.6781 63.8661 69.0001 62.2608 69.0001H59.3964C58.0744 69.0001 56.9413 68.0558 56.5635 66.8282L55.3013 62.7772C55.2667 62.5789 55.2195 62.3774 55.1597 62.1791L54.4483 59.6137L51.4927 48.9809C51.1936 47.9737 50.6176 47.1553 49.8559 46.5667C49.3334 46.1606 48.7259 45.8647 48.0585 45.6885C47.6053 45.5626 47.1205 45.4996 46.6169 45.4933C46.3525 45.5028 46.085 45.509 45.8174 45.509C45.4932 45.509 45.1627 45.4996 44.8353 45.487H37.3313C35.5623 45.487 34.0672 44.0171 34.0262 42.1662V36.044C34.0262 34.1554 35.5371 32.6445 37.3313 32.6445H61.8831C63.6773 32.6445 65.1882 34.1554 65.1882 36.044Z" fill="#3EA981"/>
</g>
<defs>
<clipPath id="clip0_8182_938">
<rect width="110.408" height="69.0001" fill="white"/>
</clipPath>
</defs>
</svg>
