<svg width="25" height="24" viewBox="0 0 25 24" fill="none" xmlns="http://www.w3.org/2000/svg">
<g clip-path="url(#clip0_8332_77)">
<path d="M21.5 6H5.5C4.641 6 3.828 5.628 3.265 5.001C3.815 4.387 4.614 4 5.5 4H23.5C24.053 4 24.5 3.552 24.5 3C24.5 2.448 24.053 2 23.5 2H5.5C2.739 2 0.5 4.239 0.5 7V17C0.5 19.761 2.739 22 5.5 22H21.5C23.157 22 24.5 20.657 24.5 19V9C24.5 7.343 23.157 6 21.5 6ZM22.5 19C22.5 19.551 22.052 20 21.5 20H5.5C3.846 20 2.5 18.654 2.5 17V6.998C3.354 7.637 4.404 8 5.5 8H21.5C22.052 8 22.5 8.449 22.5 9V19ZM20.5 14C20.5 14.552 20.052 15 19.5 15C18.948 15 18.5 14.552 18.5 14C18.5 13.448 18.948 13 19.5 13C20.052 13 20.5 13.448 20.5 14Z" fill="#173A48"/>
</g>
<defs>
<clipPath id="clip0_8332_77">
<rect width="24" height="24" fill="white" transform="translate(0.5)"/>
</clipPath>
</defs>
</svg>
