<svg width="24" height="24" viewBox="0 0 24 24" fill="none" xmlns="http://www.w3.org/2000/svg">
<rect x="5" y="2" width="14" height="14" rx="7" fill="#9FE0C7"/>
<path d="M20.9572 16.5524L20.5064 15.8024C19.9222 14.8289 19.6132 13.7144 19.6132 12.5789V8.43895C19.6132 4.24045 16.1984 0.824951 11.9999 0.824951C7.80141 0.824951 4.38666 4.24045 4.38666 8.4382V12.5782C4.38666 13.7137 4.07766 14.8282 3.49341 15.8017L3.04266 16.5524C2.67891 17.1592 2.66916 17.8882 3.01791 18.5047C3.36666 19.1204 3.99666 19.4879 4.70466 19.4879H19.2959C20.0032 19.4879 20.6339 19.1204 20.9827 18.5047C21.3307 17.889 21.3209 17.1592 20.9572 16.5524ZM19.8074 17.8394C19.7564 17.9294 19.6049 18.1379 19.2959 18.1379H4.70391C4.39416 18.1379 4.24341 17.9294 4.19241 17.8394C4.14141 17.7502 4.04091 17.5124 4.19991 17.2477L4.65066 16.4977C5.36091 15.3142 5.73666 13.9597 5.73666 12.5789V8.43895C5.73591 4.98445 8.54616 2.17495 11.9999 2.17495C15.4537 2.17495 18.2639 4.9852 18.2639 8.43895V12.5789C18.2639 13.9589 18.6389 15.3142 19.3499 16.4977L19.8007 17.2477C19.9589 17.5124 19.8584 17.7502 19.8074 17.8394Z" fill="#173A48"/>
<path d="M14.3151 20.8183C13.8223 21.4483 12.9568 21.8248 11.9998 21.8248C11.0428 21.8248 10.1773 21.4483 9.68456 20.8183C9.45431 20.5251 9.02981 20.4733 8.73656 20.7028C8.44331 20.9323 8.39156 21.3568 8.62106 21.6508C9.36731 22.6048 10.6311 23.1748 11.9998 23.1748C13.3686 23.1748 14.6323 22.6048 15.3786 21.6501C15.6081 21.3561 15.5563 20.9316 15.2631 20.7021C14.9698 20.4733 14.5453 20.5258 14.3151 20.8183Z" fill="#173A48"/>
</svg>
