<svg width="45" height="45" viewBox="0 0 45 45" fill="none" xmlns="http://www.w3.org/2000/svg">
<rect width="45" height="45" rx="22.5" fill="white" fill-opacity="0.2"/>
<path d="M16.4409 15.557C16.0989 15.557 15.7669 15.382 15.5799 15.067L14.9869 14.067C14.7059 13.592 14.8619 12.979 15.3379 12.697C15.8119 12.416 16.4259 12.572 16.7079 13.048L17.3009 14.048C17.5819 14.523 17.4259 15.136 16.9499 15.418C16.7899 15.513 16.6149 15.557 16.4409 15.557ZM22.9999 21C21.8969 21 20.9999 21.897 20.9999 23C20.9999 24.103 21.8969 25 22.9999 25C24.1029 25 24.9999 24.103 24.9999 23C24.9999 21.897 24.1029 21 22.9999 21ZM32.1899 25.274C31.3439 26.382 28.1799 30 22.9999 30C17.8199 30 14.8449 26.741 13.7949 25.339C12.7729 23.975 12.7749 22.083 13.7999 20.738C14.6469 19.627 17.8149 16 22.9999 16C28.1159 16 31.1339 19.266 32.1939 20.67C33.2219 22.032 33.2199 23.925 32.1899 25.274ZM26.9999 23C26.9999 20.794 25.2059 19 22.9999 19C20.7939 19 18.9999 20.794 18.9999 23C18.9999 25.206 20.7939 27 22.9999 27C25.2059 27 26.9999 25.206 26.9999 23ZM23.9999 13V12C23.9999 11.448 23.5519 11 22.9999 11C22.4479 11 21.9999 11.448 21.9999 12V13C21.9999 13.552 22.4479 14 22.9999 14C23.5519 14 23.9999 13.552 23.9999 13ZM30.4199 15.066L31.0129 14.066C31.2939 13.591 31.1379 12.978 30.6619 12.696C30.1879 12.415 29.5739 12.571 29.2919 13.047L28.6989 14.047C28.4179 14.522 28.5739 15.135 29.0499 15.417C29.5169 15.696 30.1369 15.546 30.4199 15.066ZM30.6619 33.303C31.1369 33.021 31.2939 32.408 31.0129 31.933L30.4199 30.933C30.1379 30.457 29.5249 30.301 29.0499 30.582C28.5749 30.863 28.4179 31.477 28.6989 31.952L29.2919 32.952C29.5749 33.431 30.1949 33.581 30.6619 33.303ZM23.9999 33.999V32.999C23.9999 32.447 23.5519 31.999 22.9999 31.999C22.4479 31.999 21.9999 32.447 21.9999 32.999V33.999C21.9999 34.551 22.4479 34.999 22.9999 34.999C23.5519 34.999 23.9999 34.551 23.9999 33.999ZM16.7079 32.952L17.3009 31.952C17.5819 31.477 17.4259 30.864 16.9499 30.582C16.4739 30.3 15.8619 30.457 15.5799 30.933L14.9869 31.933C14.7059 32.408 14.8619 33.021 15.3379 33.303C15.8049 33.582 16.4249 33.432 16.7079 32.952Z" fill="white"/>
</svg>
