<svg width="390" height="317" viewBox="0 0 390 317" fill="none" xmlns="http://www.w3.org/2000/svg">
<rect width="390" height="317" fill="url(#paint0_linear_8431_1703)"/>
<g opacity="0.08" clip-path="url(#clip0_8431_1703)">
<path d="M68.5331 187.466V236.091C68.5331 238.69 66.3841 240.831 63.7745 240.831H59.1183C56.9692 240.831 55.1272 239.302 54.5132 237.314L52.4614 230.754C52.4051 230.433 52.3284 230.107 52.2311 229.786L51.0747 225.632L46.2701 208.414C45.784 206.783 44.8476 205.458 43.6094 204.505C42.76 203.847 41.7725 203.368 40.6877 203.083C39.9509 202.879 39.1629 202.777 38.3442 202.767C37.9144 202.782 37.4795 202.792 37.0446 202.792C36.5176 202.792 35.9803 202.777 35.4482 202.757H23.2498C20.3742 202.757 17.9437 200.376 17.8772 197.379V187.466C17.8772 184.407 20.3332 181.961 23.2498 181.961H63.1605C66.0771 181.961 68.5331 184.407 68.5331 187.466Z" fill="white"/>
<path fill-rule="evenodd" clip-rule="evenodd" d="M44.3155 170.743L34.9569 172.985L33.4168 173.357L32.5981 173.551L25.5779 175.233L24.2322 175.554L23.8484 175.646L23.5056 175.728H23.5312L24.0889 175.248L24.6211 174.917L25.6444 174.285L25.9207 174.148L27.0106 173.597L27.0618 173.572L31.2166 171.472L32.4651 170.84L33.2275 170.452L36.7529 168.673L37.0394 168.526C37.9042 168.118 38.8559 167.904 39.8383 167.939C41.8492 168.011 43.4917 169.117 44.3155 170.722C44.3155 170.722 44.3155 170.722 44.3155 170.727V170.743Z" fill="white"/>
<path fill-rule="evenodd" clip-rule="evenodd" d="M49.4781 178.796L49.2632 178.806L37.3258 178.816L23.3213 178.832H22.7686H22.5691L23.2394 178.419L23.9148 178.174L24.186 178.113L32.6133 176.043L35.7959 175.309L38.2571 174.744L41.1481 174.076L42.4068 173.785L43.3278 173.571C43.4915 173.546 43.6553 173.531 43.819 173.52C43.8906 173.52 43.9572 173.51 44.0288 173.51C44.1721 173.51 44.3153 173.51 44.4586 173.51C47.3803 173.643 49.4986 175.942 49.473 178.786L49.4781 178.796Z" fill="white"/>
<path d="M-12.1606 235.327L-12.1606 186.702C-12.1606 184.102 -10.0115 181.961 -7.40198 181.961L-2.74572 181.961C-0.596686 181.961 1.24535 183.491 1.85936 185.478L3.91118 192.038C3.96746 192.359 4.04421 192.685 4.14143 193.007L5.29782 197.161L10.1025 214.378C10.5886 216.009 11.5249 217.334 12.7632 218.288C13.6126 218.945 14.6001 219.424 15.6848 219.71C16.4217 219.914 17.2096 220.015 18.0283 220.026C18.4581 220.01 18.8931 220 19.328 220C19.855 220 20.3923 220.015 20.9244 220.036L33.1228 220.036C35.9984 220.036 38.4288 222.416 38.4954 225.413L38.4954 235.327C38.4954 238.385 36.0393 240.832 33.1228 240.832L-6.78798 240.832C-9.70453 240.832 -12.1606 238.385 -12.1606 235.327Z" fill="white"/>
<path fill-rule="evenodd" clip-rule="evenodd" d="M12.0571 252.05L21.4156 249.807L22.9558 249.435L23.7745 249.241L30.7947 247.559L32.1404 247.238L32.5241 247.146L32.8669 247.065L32.8414 247.065L32.2836 247.544L31.7515 247.875L30.7281 248.507L30.4518 248.645L29.362 249.195L29.3108 249.221L25.156 251.321L23.9075 251.953L23.1451 252.34L19.6196 254.119L19.3331 254.267C18.4684 254.675 17.5167 254.889 16.5342 254.853C14.5234 254.782 12.8809 253.676 12.0571 252.07C12.0571 252.07 12.0571 252.07 12.0571 252.065L12.0571 252.05Z" fill="white"/>
<path fill-rule="evenodd" clip-rule="evenodd" d="M6.89442 243.997L7.10932 243.986L19.0467 243.976L33.0513 243.961L33.6039 243.961L33.8035 243.961L33.1332 244.374L32.4578 244.618L32.1866 244.68L23.7593 246.749L20.5766 247.483L18.1155 248.049L15.2245 248.716L13.9658 249.007L13.0448 249.221C12.881 249.247 12.7173 249.262 12.5536 249.272C12.4819 249.272 12.4154 249.282 12.3438 249.282C12.2005 249.282 12.0572 249.282 11.914 249.282C8.99229 249.15 6.87395 246.851 6.89953 244.007L6.89442 243.997Z" fill="white"/>
<path d="M164.065 187.466V236.091C164.065 238.69 161.916 240.831 159.307 240.831H154.651C152.501 240.831 150.659 239.302 150.045 237.314L147.994 230.754C147.937 230.433 147.861 230.107 147.763 229.786L146.607 225.632L141.802 208.414C141.316 206.783 140.38 205.458 139.142 204.505C138.292 203.847 137.305 203.368 136.22 203.083C135.483 202.879 134.695 202.777 133.876 202.767C133.447 202.782 133.012 202.792 132.577 202.792C132.05 202.792 131.513 202.777 130.98 202.757H118.782C115.906 202.757 113.476 200.376 113.409 197.379V187.466C113.409 184.407 115.865 181.961 118.782 181.961H158.693C161.609 181.961 164.065 184.407 164.065 187.466Z" fill="white"/>
<path fill-rule="evenodd" clip-rule="evenodd" d="M139.848 170.743L130.489 172.985L128.949 173.357L128.13 173.551L121.11 175.233L119.764 175.554L119.381 175.646L119.038 175.728H119.063L119.621 175.248L120.153 174.917L121.177 174.285L121.453 174.148L122.543 173.597L122.594 173.572L126.749 171.472L127.997 170.84L128.76 170.452L132.285 168.673L132.572 168.526C133.436 168.118 134.388 167.904 135.371 167.939C137.381 168.011 139.024 169.117 139.848 170.722C139.848 170.722 139.848 170.722 139.848 170.727V170.743Z" fill="white"/>
<path fill-rule="evenodd" clip-rule="evenodd" d="M145.01 178.796L144.795 178.806L132.858 178.816L118.853 178.832H118.301H118.101L118.772 178.419L119.447 178.174L119.718 178.113L128.146 176.043L131.328 175.309L133.789 174.744L136.68 174.076L137.939 173.785L138.86 173.571C139.024 173.546 139.187 173.531 139.351 173.52C139.423 173.52 139.489 173.51 139.561 173.51C139.704 173.51 139.848 173.51 139.991 173.51C142.912 173.643 145.031 175.942 145.005 178.786L145.01 178.796Z" fill="white"/>
<path d="M83.3719 235.327L83.3719 186.702C83.3719 184.102 85.5209 181.961 88.1305 181.961L92.7867 181.961C94.9358 181.961 96.7778 183.491 97.3918 185.478L99.4436 192.038C99.4999 192.359 99.5767 192.685 99.6739 193.007L100.83 197.161L105.635 214.378C106.121 216.009 107.057 217.334 108.296 218.288C109.145 218.945 110.133 219.424 111.217 219.71C111.954 219.914 112.742 220.015 113.561 220.026C113.991 220.01 114.426 220 114.86 220C115.387 220 115.925 220.015 116.457 220.036L128.655 220.036C131.531 220.036 133.961 222.416 134.028 225.413L134.028 235.327C134.028 238.385 131.572 240.832 128.655 240.832L88.7445 240.832C85.8279 240.832 83.3719 238.385 83.3719 235.327Z" fill="white"/>
<path fill-rule="evenodd" clip-rule="evenodd" d="M107.589 252.05L116.948 249.807L118.488 249.435L119.307 249.241L126.327 247.559L127.673 247.238L128.056 247.146L128.399 247.065L128.374 247.065L127.816 247.544L127.284 247.875L126.26 248.507L125.984 248.645L124.894 249.195L124.843 249.221L120.688 251.321L119.44 251.953L118.677 252.34L115.152 254.119L114.865 254.267C114.001 254.675 113.049 254.889 112.066 254.853C110.056 254.782 108.413 253.676 107.589 252.07C107.589 252.07 107.589 252.07 107.589 252.065L107.589 252.05Z" fill="white"/>
<path fill-rule="evenodd" clip-rule="evenodd" d="M102.427 243.997L102.642 243.986L114.579 243.976L128.584 243.961L129.136 243.961L129.336 243.961L128.665 244.374L127.99 244.618L127.719 244.68L119.291 246.749L116.109 247.483L113.648 248.049L110.757 248.716L109.498 249.007L108.577 249.221C108.413 249.247 108.25 249.262 108.086 249.272C108.014 249.272 107.948 249.282 107.876 249.282C107.733 249.282 107.589 249.282 107.446 249.282C104.525 249.15 102.406 246.851 102.432 244.007L102.427 243.997Z" fill="white"/>
<path d="M19.0519 280.504V329.129C19.0519 331.729 16.9029 333.87 14.2933 333.87H9.63708C7.48805 333.87 5.64602 332.341 5.032 330.353L2.98018 323.793C2.9239 323.472 2.84715 323.146 2.74993 322.824L1.59354 318.67L-3.2111 301.453C-3.69719 299.822 -4.63356 298.497 -5.87181 297.543C-6.7212 296.886 -7.70873 296.407 -8.79349 296.121C-9.5303 295.918 -10.3183 295.816 -11.137 295.805C-11.5668 295.821 -12.0017 295.831 -12.4366 295.831C-12.9636 295.831 -13.5009 295.816 -14.033 295.795H-26.2314C-29.107 295.795 -31.5375 293.415 -31.604 290.418V280.504C-31.604 277.446 -29.148 275 -26.2314 275H13.6793C16.5959 275 19.0519 277.446 19.0519 280.504Z" fill="white"/>
<path fill-rule="evenodd" clip-rule="evenodd" d="M-0.00281525 271.834L-0.217718 271.844L-12.1551 271.854L-26.1597 271.87H-26.7123H-26.9119L-26.2416 271.457L-25.5662 271.212L-25.295 271.151L-16.8677 269.082L-13.685 268.348L-11.2239 267.782L-8.3329 267.114L-7.07418 266.824L-6.15316 266.61C-5.98943 266.584 -5.82569 266.569 -5.66195 266.559C-5.59032 266.559 -5.5238 266.548 -5.45216 266.548C-5.30889 266.548 -5.16563 266.548 -5.02236 266.548C-2.10069 266.681 0.0176544 268.98 -0.00792885 271.824L-0.00281525 271.834Z" fill="white"/>
<path d="M114.584 280.504V329.129C114.584 331.729 112.435 333.87 109.825 333.87H105.169C103.02 333.87 101.178 332.341 100.564 330.353L98.5122 323.793C98.4559 323.472 98.3791 323.146 98.2819 322.824L97.1255 318.67L92.3209 301.453C91.8348 299.822 90.8984 298.497 89.6602 297.543C88.8108 296.886 87.8232 296.407 86.7385 296.121C86.0017 295.918 85.2137 295.816 84.395 295.805C83.9652 295.821 83.5303 295.831 83.0954 295.831C82.5683 295.831 82.0311 295.816 81.4989 295.795H69.3006C66.425 295.795 63.9945 293.415 63.928 290.418V280.504C63.928 277.446 66.384 275 69.3006 275H109.211C112.128 275 114.584 277.446 114.584 280.504Z" fill="white"/>
<path fill-rule="evenodd" clip-rule="evenodd" d="M90.3665 263.781L81.0079 266.023L79.4678 266.396L78.6491 266.589L71.6289 268.271L70.2832 268.592L69.8995 268.684L69.5566 268.766H69.5822L70.14 268.287L70.6721 267.955L71.6954 267.323L71.9718 267.186L73.0616 266.635L73.1128 266.61L77.2676 264.51L78.5161 263.878L79.2785 263.49L82.8039 261.711L83.0905 261.564C83.9552 261.156 84.9069 260.942 85.8893 260.977C87.9002 261.049 89.5427 262.155 90.3665 263.76C90.3665 263.76 90.3665 263.76 90.3665 263.766V263.781Z" fill="white"/>
<path fill-rule="evenodd" clip-rule="evenodd" d="M95.5292 271.834L95.3143 271.844L83.3769 271.854L69.3723 271.87H68.8197H68.6201L69.2904 271.457L69.9658 271.212L70.237 271.151L78.6643 269.082L81.8469 268.348L84.3081 267.782L87.1991 267.114L88.4578 266.824L89.3788 266.61C89.5426 266.584 89.7063 266.569 89.87 266.559C89.9417 266.559 90.0082 266.548 90.0798 266.548C90.2231 266.548 90.3664 266.548 90.5096 266.548C93.4313 266.681 95.5496 268.98 95.5241 271.824L95.5292 271.834Z" fill="white"/>
<path d="M33.8905 328.365L33.8905 279.74C33.8905 277.14 36.0395 275 38.649 275L43.3053 275C45.4543 275 47.2964 276.529 47.9104 278.516L49.9622 285.076C50.0185 285.397 50.0952 285.724 50.1925 286.045L51.3488 290.199L56.1535 307.416C56.6396 309.047 57.5759 310.373 58.8142 311.326C59.6636 311.983 60.6511 312.462 61.7359 312.748C62.4727 312.952 63.2607 313.054 64.0793 313.064C64.5091 313.048 64.9441 313.038 65.379 313.038C65.906 313.038 66.4433 313.054 66.9754 313.074L79.1738 313.074C82.0494 313.074 84.4799 315.454 84.5464 318.451L84.5464 328.365C84.5464 331.423 82.0903 333.87 79.1738 333.87L39.2631 333.87C36.3465 333.87 33.8905 331.423 33.8905 328.365Z" fill="white"/>
<path d="M210.116 280.504V329.129C210.116 331.729 207.967 333.87 205.358 333.87H200.702C198.553 333.87 196.71 332.341 196.096 330.353L194.045 323.793C193.988 323.472 193.912 323.146 193.814 322.824L192.658 318.67L187.853 301.453C187.367 299.822 186.431 298.497 185.193 297.543C184.343 296.886 183.356 296.407 182.271 296.121C181.534 295.918 180.746 295.816 179.927 295.805C179.498 295.821 179.063 295.831 178.628 295.831C178.101 295.831 177.564 295.816 177.031 295.795H164.833C161.957 295.795 159.527 293.415 159.46 290.418V280.504C159.46 277.446 161.916 275 164.833 275H204.744C207.66 275 210.116 277.446 210.116 280.504Z" fill="white"/>
<path fill-rule="evenodd" clip-rule="evenodd" d="M185.899 263.781L176.54 266.023L175 266.396L174.181 266.589L167.161 268.271L165.815 268.592L165.432 268.684L165.089 268.766H165.114L165.672 268.287L166.204 267.955L167.228 267.323L167.504 267.186L168.594 266.635L168.645 266.61L172.8 264.51L174.048 263.878L174.811 263.49L178.336 261.711L178.623 261.564C179.487 261.156 180.439 260.942 181.422 260.977C183.432 261.049 185.075 262.155 185.899 263.76C185.899 263.76 185.899 263.76 185.899 263.766V263.781Z" fill="white"/>
<path fill-rule="evenodd" clip-rule="evenodd" d="M191.061 271.834L190.846 271.844L178.909 271.854L164.905 271.87H164.352H164.152L164.823 271.457L165.498 271.212L165.769 271.151L174.197 269.082L177.379 268.348L179.84 267.782L182.731 267.114L183.99 266.824L184.911 266.61C185.075 266.584 185.239 266.569 185.402 266.559C185.474 266.559 185.54 266.548 185.612 266.548C185.755 266.548 185.899 266.548 186.042 266.548C188.964 266.681 191.082 268.98 191.056 271.824L191.061 271.834Z" fill="white"/>
<path d="M129.423 328.365L129.423 279.74C129.423 277.14 131.572 275 134.181 275L138.838 275C140.987 275 142.829 276.529 143.443 278.516L145.494 285.076C145.551 285.397 145.627 285.724 145.725 286.045L146.881 290.199L151.686 307.416C152.172 309.047 153.108 310.373 154.346 311.326C155.196 311.983 156.183 312.462 157.268 312.748C158.005 312.952 158.793 313.054 159.612 313.064C160.041 313.048 160.476 313.038 160.911 313.038C161.438 313.038 161.976 313.054 162.508 313.074L174.706 313.074C177.582 313.074 180.012 315.454 180.079 318.451L180.079 328.365C180.079 331.423 177.623 333.87 174.706 333.87L134.795 333.87C131.879 333.87 129.423 331.423 129.423 328.365Z" fill="white"/>
</g>
<defs>
<linearGradient id="paint0_linear_8431_1703" x1="0" y1="158.5" x2="390" y2="158.5" gradientUnits="userSpaceOnUse">
<stop stop-color="#264F5F"/>
<stop offset="1" stop-color="#173A48"/>
</linearGradient>
<clipPath id="clip0_8431_1703">
<rect width="210" height="181" fill="white" transform="translate(0 136)"/>
</clipPath>
</defs>
</svg>
