<svg width="25" height="24" viewBox="0 0 25 24" fill="none" xmlns="http://www.w3.org/2000/svg">
<path d="M11.9001 11.122C8.83423 11.122 6.34082 8.6286 6.34082 5.56276C6.34082 2.49692 8.83423 0 11.9001 0C14.9659 0 17.4593 2.49341 17.4593 5.55925C17.4593 8.62509 14.9659 11.122 11.9001 11.122ZM11.9001 1.75592C9.8035 1.75592 8.09674 3.46268 8.09674 5.55925C8.09674 7.65582 9.8035 9.36609 11.9001 9.36609C13.9966 9.36609 15.7034 7.65933 15.7034 5.56276C15.7034 3.46619 13.9966 1.75592 11.9001 1.75592Z" fill="#173A48"/>
<path d="M11.9 23.9999C9.56106 23.9999 7.3486 23.4732 5.66994 22.5144C3.83676 21.4679 2.82886 20.021 2.82886 18.4407C2.82886 16.8604 3.83676 15.4135 5.66994 14.367C7.3486 13.4047 9.56106 12.8779 11.9 12.8779C14.2388 12.8779 16.4513 13.4047 18.13 14.3634C19.9631 15.41 20.971 16.8568 20.971 18.4372C20.971 20.0175 19.9631 21.4644 18.13 22.5109C16.4513 23.4697 14.2388 23.9999 11.9 23.9999ZM11.9 14.6339C9.86308 14.6339 7.95966 15.0799 6.54088 15.8911C5.81041 16.309 4.58478 17.194 4.58478 18.4407C4.58478 19.6839 5.81041 20.5724 6.54088 20.9903C7.95966 21.798 9.86308 22.244 11.9 22.244C13.9368 22.244 15.8402 21.798 17.259 20.9868C17.9895 20.5689 19.2151 19.6839 19.2151 18.4372C19.2151 17.194 17.9895 16.3055 17.259 15.8876C15.8402 15.0799 13.9368 14.6339 11.9 14.6339Z" fill="#173A48"/>
</svg>
