<svg width="21" height="21" viewBox="0 0 21 21" fill="none" xmlns="http://www.w3.org/2000/svg">
<rect x="0.333252" y="0.401611" width="10.6347" height="10.6347" rx="5.31733" fill="#9FE0C7"/>
<path d="M7.41658 3.73494H5.74992C4.60159 3.73494 3.66659 4.66994 3.66659 5.81828V7.48494C3.66659 8.63328 4.60159 9.56828 5.74992 9.56828H7.41658C8.56492 9.56828 9.49992 8.63328 9.49992 7.48494V5.81828C9.49992 4.66994 8.56492 3.73494 7.41658 3.73494ZM7.83325 7.48494C7.83325 7.71494 7.64658 7.90161 7.41658 7.90161H5.74992C5.51992 7.90161 5.33325 7.71494 5.33325 7.48494V5.81828C5.33325 5.58828 5.51992 5.40161 5.74992 5.40161H7.41658C7.64658 5.40161 7.83325 5.58828 7.83325 5.81828V7.48494ZM13.2499 9.56828H14.9166C16.0649 9.56828 16.9999 8.63328 16.9999 7.48494V5.81828C16.9999 4.66994 16.0649 3.73494 14.9166 3.73494H13.2499C12.1016 3.73494 11.1666 4.66994 11.1666 5.81828V7.48494C11.1666 8.63328 12.1016 9.56828 13.2499 9.56828ZM12.8333 5.81828C12.8333 5.58828 13.0199 5.40161 13.2499 5.40161H14.9166C15.1466 5.40161 15.3333 5.58828 15.3333 5.81828V7.48494C15.3333 7.71494 15.1466 7.90161 14.9166 7.90161H13.2499C13.0199 7.90161 12.8333 7.71494 12.8333 7.48494V5.81828ZM7.41658 11.2349H5.74992C4.60159 11.2349 3.66659 12.1699 3.66659 13.3183V14.9849C3.66659 16.1333 4.60159 17.0683 5.74992 17.0683H7.41658C8.56492 17.0683 9.49992 16.1333 9.49992 14.9849V13.3183C9.49992 12.1699 8.56492 11.2349 7.41658 11.2349ZM7.83325 14.9849C7.83325 15.2149 7.64658 15.4016 7.41658 15.4016H5.74992C5.51992 15.4016 5.33325 15.2149 5.33325 14.9849V13.3183C5.33325 13.0883 5.51992 12.9016 5.74992 12.9016H7.41658C7.64658 12.9016 7.83325 13.0883 7.83325 13.3183V14.9849ZM6.99992 19.5683C6.99992 20.0283 6.62659 20.4016 6.16658 20.4016H4.49992C2.20242 20.4016 0.333252 18.5324 0.333252 16.2349V14.5683C0.333252 14.1083 0.706585 13.7349 1.16659 13.7349C1.62659 13.7349 1.99992 14.1083 1.99992 14.5683V16.2349C1.99992 17.6133 3.12159 18.7349 4.49992 18.7349H6.16658C6.62659 18.7349 6.99992 19.1083 6.99992 19.5683ZM20.3333 14.5683V16.2349C20.3333 18.5324 18.4641 20.4016 16.1666 20.4016H14.4999C14.0399 20.4016 13.6666 20.0283 13.6666 19.5683C13.6666 19.1083 14.0399 18.7349 14.4999 18.7349H16.1666C17.5449 18.7349 18.6666 17.6133 18.6666 16.2349V14.5683C18.6666 14.1083 19.0399 13.7349 19.4999 13.7349C19.9599 13.7349 20.3333 14.1083 20.3333 14.5683ZM20.3333 4.56828V6.23494C20.3333 6.69494 19.9599 7.06828 19.4999 7.06828C19.0399 7.06828 18.6666 6.69494 18.6666 6.23494V4.56828C18.6666 3.18994 17.5449 2.06828 16.1666 2.06828H14.4999C14.0399 2.06828 13.6666 1.69494 13.6666 1.23494C13.6666 0.774945 14.0399 0.401611 14.4999 0.401611H16.1666C18.4641 0.401611 20.3333 2.27078 20.3333 4.56828ZM0.333252 6.23494V4.56828C0.333252 2.27078 2.20242 0.401611 4.49992 0.401611H6.16658C6.62659 0.401611 6.99992 0.774945 6.99992 1.23494C6.99992 1.69494 6.62659 2.06828 6.16658 2.06828H4.49992C3.12159 2.06828 1.99992 3.18994 1.99992 4.56828V6.23494C1.99992 6.69494 1.62659 7.06828 1.16659 7.06828C0.706585 7.06828 0.333252 6.69494 0.333252 6.23494ZM13.6666 15.8183C13.6666 16.5083 13.1066 17.0683 12.4166 17.0683C11.7266 17.0683 11.1666 16.5083 11.1666 15.8183C11.1666 15.1283 11.7266 14.5683 12.4166 14.5683C13.1066 14.5683 13.6666 15.1283 13.6666 15.8183ZM15.7499 11.2349C16.4399 11.2349 16.9999 11.7949 16.9999 12.4849C16.9999 13.1749 16.4399 13.7349 15.7499 13.7349C15.0599 13.7349 14.4999 13.1749 14.4999 12.4849C14.4999 11.7949 15.0599 11.2349 15.7499 11.2349ZM11.1666 12.4849C11.1666 11.7949 11.7266 11.2349 12.4166 11.2349C13.1066 11.2349 13.6666 11.7949 13.6666 12.4849C13.6666 13.1749 13.1066 13.7349 12.4166 13.7349C11.7266 13.7349 11.1666 13.1749 11.1666 12.4849Z" fill="#173A48"/>
</svg>
