<svg width="24" height="25" viewBox="0 0 24 25" fill="none" xmlns="http://www.w3.org/2000/svg">
<path d="M7.45639 8.96276C7.5884 8.96222 7.71921 8.98782 7.84128 9.03809C7.96335 9.08836 8.07425 9.1623 8.1676 9.25565C8.26094 9.34899 8.33488 9.4599 8.38515 9.58197C8.43542 9.70403 8.46102 9.83484 8.46048 9.96685L8.46048 14.6196L15.5315 7.54855C15.7191 7.36101 15.9734 7.25565 16.2387 7.25565C16.5039 7.25565 16.7582 7.36101 16.9458 7.54855C17.1333 7.73608 17.2387 7.99044 17.2387 8.25565C17.2387 8.52087 17.1333 8.77522 16.9458 8.96276L9.8747 16.0338L14.5275 16.0338C14.6595 16.0333 14.7903 16.0589 14.9123 16.1092C15.0344 16.1594 15.1453 16.2334 15.2387 16.3267C15.332 16.4201 15.406 16.531 15.4562 16.653C15.5065 16.7751 15.5321 16.9059 15.5316 17.0379C15.5308 17.3021 15.4255 17.5552 15.2387 17.7421C15.0519 17.9289 14.7987 18.0342 14.5345 18.0349L8.46048 18.0279C7.9309 18.0295 7.42231 17.8209 7.04627 17.448C6.6777 17.0726 6.47192 16.567 6.47351 16.0409L6.46644 9.96685C6.46535 9.70266 6.56884 9.44877 6.75433 9.26064C6.93981 9.0725 7.19221 8.96542 7.45639 8.96276Z" fill="#3EA981"/>
</svg>
