<svg width="21" height="20" viewBox="0 0 21 20" fill="none" xmlns="http://www.w3.org/2000/svg">
<g clip-path="url(#clip0_8066_4553)">
<path d="M1.29639 10.3909H19.6741V14.2212C19.6741 15.3258 18.7787 16.2212 17.6741 16.2212H3.29639C2.19182 16.2212 1.29639 15.3258 1.29639 14.2212V10.3909Z" fill="#9FE0C7"/>
<path d="M4.9165 14.1667C5.60686 14.1667 6.1665 13.6071 6.1665 12.9167C6.1665 12.2264 5.60686 11.6667 4.9165 11.6667C4.22615 11.6667 3.6665 12.2264 3.6665 12.9167C3.6665 13.6071 4.22615 14.1667 4.9165 14.1667Z" fill="#173A48"/>
<path d="M16.1666 2.5H4.49992C3.39526 2.50132 2.33622 2.94073 1.5551 3.72185C0.773987 4.50296 0.334575 5.562 0.333252 6.66667L0.333252 13.3333C0.334575 14.438 0.773987 15.497 1.5551 16.2782C2.33622 17.0593 3.39526 17.4987 4.49992 17.5H16.1666C17.2712 17.4987 18.3303 17.0593 19.1114 16.2782C19.8925 15.497 20.3319 14.438 20.3333 13.3333V6.66667C20.3319 5.562 19.8925 4.50296 19.1114 3.72185C18.3303 2.94073 17.2712 2.50132 16.1666 2.5ZM4.49992 4.16667H16.1666C16.8296 4.16667 17.4655 4.43006 17.9344 4.8989C18.4032 5.36774 18.6666 6.00363 18.6666 6.66667H1.99992C1.99992 6.00363 2.26331 5.36774 2.73215 4.8989C3.20099 4.43006 3.83688 4.16667 4.49992 4.16667ZM16.1666 15.8333H4.49992C3.83688 15.8333 3.20099 15.5699 2.73215 15.1011C2.26331 14.6323 1.99992 13.9964 1.99992 13.3333V8.33333H18.6666V13.3333C18.6666 13.9964 18.4032 14.6323 17.9344 15.1011C17.4655 15.5699 16.8296 15.8333 16.1666 15.8333Z" fill="#173A48"/>
</g>
<defs>
<clipPath id="clip0_8066_4553">
<rect width="20" height="20" fill="white" transform="translate(0.333252)"/>
</clipPath>
</defs>
</svg>
