<svg width="160" height="137" viewBox="0 0 160 137" fill="none" xmlns="http://www.w3.org/2000/svg">
<g clip-path="url(#clip0_8265_514)">
<mask id="mask0_8265_514" style="mask-type:luminance" maskUnits="userSpaceOnUse" x="0" y="-44" width="160" height="292">
<path d="M160 -44H0V247.108H160V-44Z" fill="white"/>
</mask>
<g mask="url(#mask0_8265_514)">
<path d="M75.9048 14.3292C75.9048 14.3292 75.4724 17.9899 69.8481 20.9209C66.8034 22.5071 64.324 22.5634 64.324 22.5634L66.6925 28.4021L53.3086 28.404C53.3086 28.404 57.3045 18.8293 60.5993 14.5418C63.8941 10.2549 66.41 9.20569 69.5335 8.91743C72.6601 8.62853 75.3965 11.6491 75.3965 11.6491C75.3965 11.6491 77.7662 10.4771 80.6812 11.6722C83.5961 12.8667 84.4875 17.426 84.9631 20.9377C85.4062 24.2114 87.3697 29.1279 87.3697 29.1279L78.1599 29.1289C78.1599 29.1289 81.4399 25.504 81.1281 21.3477C80.6771 15.325 75.9048 14.3292 75.9048 14.3292Z" fill="#FFBF45"/>
<path d="M113.682 57.8111C104.616 59.6911 99.2145 65.2135 99.2145 65.2135C99.2145 65.2135 90.6102 68.9889 85.25 74.8694C81.2397 79.2689 79.9529 86.4864 80.4993 85.256C83.0225 88.2902 86.1291 92.9075 91.0049 93.8219C102.534 95.9841 121.823 78.8014 125.104 73.5007C130.126 65.386 120.878 56.318 113.682 57.8111Z" fill="#3DA881"/>
<path d="M113.535 57.1069C117.459 56.2927 121.819 58.3541 124.523 61.5924C127.253 64.8623 128.426 69.4965 125.712 73.8807C124.842 75.2875 122.965 77.407 120.506 79.7386C118.032 82.0834 114.926 84.6832 111.559 87.0485C108.194 89.4121 104.55 91.5547 101.001 92.9715C97.4647 94.3832 93.9486 95.104 90.8746 94.5276C85.3562 93.4929 82.6905 89.3054 80.1671 86.4281C79.9055 86.1298 79.9339 85.6761 80.2305 85.4147C80.5271 85.1532 80.9795 85.1828 81.2412 85.4811C83.9514 88.5714 86.2303 92.1964 91.1332 93.1157L91.3869 93.1597C94.025 93.5811 97.1493 92.9615 100.468 91.6368C103.881 90.2742 107.426 88.1954 110.735 85.871C114.041 83.5484 117.094 80.9936 119.52 78.6934C121.96 76.3801 123.725 74.364 124.495 73.1204C126.804 69.3898 125.864 65.4322 123.426 62.5125C120.962 59.5612 117.101 57.8348 113.829 58.5136L113.829 58.5139C109.403 59.4317 105.868 61.2393 103.439 62.8195C102.225 63.6091 101.29 64.3401 100.662 64.8708C100.347 65.1359 100.11 65.3508 99.9528 65.4978C99.8742 65.5712 99.8155 65.6278 99.7775 65.665C99.7585 65.6836 99.7446 65.6975 99.7359 65.7062C99.7317 65.7104 99.7287 65.7134 99.727 65.7152L99.7252 65.7169C99.7252 65.7169 99.7253 65.7168 99.725 65.7165C99.4484 65.999 98.9956 66.0028 98.7129 65.7246C98.4302 65.4464 98.4253 64.9914 98.7018 64.7087L99.2137 65.2127C98.7291 64.7356 98.7034 64.71 98.7023 64.7085L98.7025 64.7078C98.7029 64.7074 98.7036 64.707 98.7041 64.7064C98.7052 64.7053 98.7067 64.7038 98.7084 64.702C98.7119 64.6985 98.7169 64.6938 98.723 64.6877C98.7353 64.6753 98.7527 64.6577 98.7754 64.6354C98.821 64.5908 98.8874 64.5268 98.9743 64.4456C99.1479 64.2833 99.4033 64.0522 99.7371 63.7705C100.405 63.207 101.387 62.4394 102.657 61.6134C105.195 59.9624 108.895 58.0692 113.535 57.1069Z" fill="#1A2E34"/>
<g opacity="0.99853">
<path d="M138.044 46.2797C139.114 46.0635 140.366 46.1025 141.084 47.1313C141.439 47.6395 141.517 48.2043 141.395 48.7516C141.279 49.2707 140.989 49.7556 140.642 50.1883C139.947 51.0533 138.869 51.8944 137.793 52.6156C137.703 52.6755 137.613 52.7338 137.523 52.7924C138.577 53.2028 139.106 54.1477 139.229 55.0855C139.317 55.7569 139.207 56.4812 138.905 57.1044C139.052 57.2013 139.212 57.3163 139.371 57.4502C139.963 57.9471 140.659 58.793 140.604 59.9911L140.588 60.2253C140.376 62.619 138.621 64.1811 136.73 65.2681C135.741 65.8361 134.67 66.3018 133.669 66.7058C132.773 67.0674 131.967 67.3673 131.27 67.6605L130.978 67.7859C129.662 68.3644 127.79 68.601 126.32 68.7028C125.57 68.7547 124.898 68.7729 124.413 68.7783C124.171 68.781 123.974 68.7806 123.838 68.7794C123.77 68.7788 123.716 68.7781 123.68 68.7774C123.661 68.7771 123.647 68.7769 123.637 68.7767C123.632 68.7766 123.628 68.7763 123.626 68.7762C123.624 68.7762 123.623 68.7763 123.622 68.7763C123.622 68.7763 123.622 68.7763 123.621 68.7763L123.621 68.7761C123.226 68.7661 122.912 68.4364 122.921 68.0398C122.929 67.6433 123.257 67.3299 123.652 67.3398L123.652 67.34C123.653 67.34 123.653 67.3402 123.654 67.3402C123.656 67.3403 123.659 67.34 123.663 67.3401C123.671 67.3403 123.683 67.3406 123.7 67.3409C123.732 67.3414 123.782 67.3422 123.845 67.3428C123.973 67.344 124.16 67.3446 124.393 67.342C124.857 67.3368 125.501 67.3191 126.216 67.2696C127.676 67.1685 129.329 66.9403 130.399 66.47C131.181 66.1262 132.171 65.7602 133.13 65.3729C134.113 64.9763 135.112 64.5395 136.014 64.0211C137.842 62.9703 139.092 61.6905 139.173 59.9207L139.173 59.9203C139.198 59.3686 138.888 58.9152 138.454 58.5502C138.243 58.3732 138.026 58.238 137.86 58.1469C137.778 58.1019 137.71 58.0689 137.666 58.048C137.643 58.0376 137.627 58.03 137.617 58.0258C137.614 58.0243 137.612 58.0231 137.61 58.0224C137.391 57.9335 137.229 57.7425 137.178 57.5113C137.126 57.2801 137.191 57.0387 137.352 56.866C137.698 56.4933 137.887 55.8647 137.809 55.2675C137.734 54.6919 137.434 54.2651 136.928 54.1026C136.677 54.0223 136.34 54.0134 135.929 54.0836C135.524 54.1526 135.098 54.2897 134.699 54.4501C134.68 54.4577 134.661 54.4659 134.642 54.4736C134.233 54.6894 133.887 54.8642 133.639 54.9861C133.51 55.0499 133.407 55.0994 133.337 55.1332C133.301 55.1501 133.274 55.163 133.255 55.1719C133.246 55.1763 133.238 55.1798 133.233 55.1822C133.231 55.1834 133.229 55.1842 133.227 55.1848C133.227 55.1851 133.226 55.1856 133.226 55.1858L133.225 55.1861C133.225 55.1861 133.225 55.1859 132.922 54.5343C132.559 53.9522 132.543 53.9254 132.542 53.9241L132.542 53.9237L132.543 53.9233C132.544 53.9229 132.545 53.9224 132.546 53.9218C132.547 53.9206 132.55 53.919 132.553 53.9171C132.56 53.9132 132.569 53.9078 132.58 53.901C132.602 53.8874 132.634 53.8682 132.675 53.8445C132.756 53.797 132.872 53.7308 133.016 53.6538C133.276 53.5141 133.633 53.3358 134.04 53.166C134.879 52.7215 135.967 52.1085 136.995 51.4204C138.04 50.72 138.97 49.976 139.525 49.2849C139.803 48.9396 139.948 48.6536 139.997 48.4331C140.04 48.2408 140.013 48.0971 139.912 47.9522C139.718 47.6749 139.282 47.496 138.332 47.6879C137.425 47.8712 136.322 48.3491 135.222 48.9378C134.133 49.5207 133.093 50.1862 132.322 50.7094C131.938 50.9703 131.622 51.1946 131.403 51.353C131.293 51.4322 131.208 51.495 131.15 51.5377C131.122 51.559 131.1 51.5753 131.085 51.5863C131.078 51.5918 131.072 51.5962 131.068 51.5991C131.066 51.6005 131.064 51.6019 131.063 51.603C131.062 51.6035 131.061 51.6045 131.059 51.6054C131.059 51.6061 131.056 51.608 131.054 51.6091C131.05 51.612 131.024 51.6303 131.001 51.6449C130.859 51.7296 130.693 51.7625 130.53 51.7384C129.588 51.5993 128.482 51.4194 127.446 51.3683C126.422 51.3178 125.638 51.4073 125.182 51.6534C123.992 52.8485 122.2 55.2075 120.669 57.3285C119.897 58.3982 119.201 59.3923 118.699 60.1192C118.448 60.4825 118.245 60.779 118.105 60.9843C118.035 61.0869 117.981 61.1668 117.945 61.2209C117.926 61.2479 117.912 61.2685 117.903 61.2823C117.898 61.2892 117.895 61.2942 117.892 61.2977C117.891 61.2993 117.89 61.3006 117.89 61.3015C117.89 61.3019 117.889 61.3022 117.889 61.3024C117.668 61.6306 117.223 61.7161 116.895 61.4932C116.567 61.2703 116.48 60.8238 116.701 60.4957L117.295 60.8991C116.701 60.4955 116.701 60.4955 116.701 60.4954L116.702 60.495C116.702 60.4948 116.702 60.4945 116.702 60.4941C116.703 60.4932 116.704 60.4916 116.705 60.4897C116.708 60.486 116.711 60.4807 116.716 60.4737C116.726 60.4594 116.74 60.4382 116.759 60.4106C116.796 60.3555 116.851 60.2745 116.922 60.1707C117.063 59.9631 117.268 59.664 117.521 59.2978C118.027 58.5654 118.729 57.563 119.508 56.4833C121.053 54.3425 122.948 51.8374 124.237 50.5653L124.298 50.5118C124.319 50.4953 124.341 50.48 124.364 50.4659C125.214 49.9411 126.425 49.8799 127.511 49.9335C128.518 49.9831 129.581 50.1444 130.443 50.2737C130.479 50.2473 130.519 50.2181 130.562 50.1867C130.791 50.0213 131.119 49.7889 131.517 49.5187C132.311 48.9797 133.396 48.2843 134.545 47.6696C135.682 47.0608 136.931 46.5046 138.044 46.2797ZM137.61 58.0223L137.609 58.0226L137.609 58.0221L137.61 58.0223ZM132.922 54.5343L133.225 55.1859C132.882 55.3457 132.474 55.2098 132.293 54.8756C132.112 54.5414 132.221 54.1246 132.542 53.9243L132.922 54.5343ZM130.209 50.4466L130.208 50.4476C130.208 50.4471 130.209 50.4465 130.21 50.4458C130.21 50.4461 130.209 50.4464 130.209 50.4466Z" fill="#1A2E34"/>
</g>
<g opacity="0.99853">
<path d="M132.152 50.8022C132.488 50.9319 132.797 51.0763 133.059 51.2339C133.31 51.3852 133.565 51.5775 133.743 51.8213C134.063 52.2613 134.2 52.7734 134.034 53.2939C133.883 53.7655 133.522 54.109 133.164 54.356C132.445 54.8514 131.366 55.2072 130.331 55.4659C129.318 55.7191 128.262 55.8991 127.44 56.0185C127.474 56.052 127.51 56.0857 127.545 56.1204C128.246 56.8081 129.137 57.7324 129.861 58.6496C130.107 58.9611 130.055 59.4128 129.746 59.6582C129.436 59.9037 128.985 59.8501 128.739 59.5387C128.071 58.6915 127.229 57.8161 126.546 57.1451C126.206 56.8115 125.908 56.532 125.697 56.3363C125.591 56.2385 125.506 56.1618 125.449 56.1099C125.42 56.084 125.398 56.0642 125.384 56.0511C125.376 56.0446 125.371 56.0396 125.367 56.0364C125.366 56.0349 125.364 56.0335 125.363 56.0328C125.363 56.0324 125.363 56.0322 125.363 56.0321C125.148 55.8423 125.066 55.5435 125.154 55.2715C125.241 54.9995 125.482 54.806 125.766 54.7793L125.766 54.7794L125.771 54.7788C125.775 54.7784 125.781 54.7779 125.789 54.7771C125.805 54.7756 125.829 54.7732 125.861 54.7699C125.925 54.7634 126.019 54.7533 126.138 54.7397C126.377 54.7123 126.719 54.6706 127.123 54.6131C127.934 54.4975 128.988 54.32 129.98 54.072C130.996 53.818 131.858 53.5108 132.35 53.1715C132.597 53.0015 132.659 52.8848 132.67 52.8503C132.673 52.842 132.674 52.8373 132.671 52.8233C132.667 52.8043 132.651 52.752 132.588 52.6653L132.587 52.6652C132.574 52.6465 132.505 52.5731 132.325 52.4645C132.155 52.3621 131.926 52.2519 131.642 52.1423C131.075 51.9232 130.34 51.7245 129.536 51.5863C127.899 51.3046 126.142 51.3016 125.011 51.7481C124.644 51.8933 124.228 51.7118 124.082 51.3427C123.936 50.9736 124.115 50.5568 124.482 50.4116C125.978 49.8208 128.049 49.8742 129.773 50.1708C130.65 50.3218 131.48 50.5425 132.152 50.8022Z" fill="#1A2E34"/>
</g>
<g opacity="0.99853">
<path d="M132.466 53.9039C132.762 53.6414 133.214 53.6694 133.477 53.9667C133.74 54.264 133.713 54.7177 133.418 54.9802C132.538 55.762 131.444 56.806 130.751 57.8396C130.404 58.3574 130.193 58.8205 130.131 59.2066C130.073 59.5629 130.141 59.8387 130.352 60.0847C130.384 60.1215 130.454 60.1782 130.649 60.1967C130.854 60.2163 131.142 60.1862 131.512 60.0879C132.251 59.8916 133.151 59.4713 134.049 58.9721C134.937 58.4779 135.786 57.9283 136.415 57.5C136.729 57.2863 136.986 57.1042 137.165 56.9758C137.254 56.9117 137.323 56.8609 137.369 56.8266C137.393 56.8095 137.411 56.7964 137.422 56.7878C137.428 56.7835 137.432 56.7802 137.435 56.7782C137.436 56.7772 137.437 56.7765 137.438 56.7761L137.438 56.7755L137.499 56.7347C137.81 56.5475 138.218 56.6235 138.441 56.9215C138.679 57.2394 138.615 57.6896 138.299 57.9268L137.868 57.3511C138.272 57.8912 138.297 57.9246 138.299 57.9267L138.298 57.9271C138.298 57.9273 138.297 57.9277 138.297 57.9281C138.296 57.9288 138.294 57.93 138.293 57.9313C138.289 57.934 138.284 57.9379 138.278 57.9428C138.264 57.9527 138.245 57.9671 138.219 57.9856C138.169 58.0227 138.096 58.0764 138.002 58.1437C137.815 58.2782 137.548 58.4677 137.223 58.6893C136.573 59.1315 135.686 59.7064 134.746 60.2288C133.816 60.7461 132.794 61.2345 131.883 61.4764C131.428 61.5971 130.958 61.6684 130.519 61.6266C130.07 61.5838 129.609 61.4162 129.269 61.0207C128.737 60.4021 128.603 59.6779 128.717 58.9717C128.827 58.2951 129.161 57.6325 129.562 57.0349C130.365 55.8377 131.58 54.6911 132.466 53.9039Z" fill="#1A2E34"/>
</g>
<g opacity="0.99853">
<path d="M133.926 59.0637C134.21 58.7882 134.663 58.7963 134.939 59.0816C135.215 59.3669 135.208 59.8216 134.925 60.0971L134.919 60.1023C134.915 60.1067 134.908 60.1139 134.898 60.1234C134.879 60.1424 134.85 60.1713 134.813 60.2091C134.74 60.2849 134.633 60.3959 134.508 60.5337C134.255 60.8108 133.93 61.1899 133.629 61.6053C133.324 62.0269 133.068 62.455 132.928 62.8323C132.81 63.1511 132.808 63.3406 132.833 63.444C132.895 63.4454 133.001 63.4361 133.161 63.394C133.587 63.2821 134.148 63.0089 134.742 62.658C135.324 62.3142 135.889 61.9251 136.313 61.619C136.523 61.4667 136.697 61.3363 136.817 61.2444C136.877 61.1986 136.924 61.1622 136.955 61.1378C136.971 61.1256 136.983 61.1164 136.991 61.1104C136.994 61.1074 136.997 61.1053 136.999 61.104C137 61.1033 137 61.1025 137.001 61.1022L137.001 61.102C137.311 60.8564 137.761 60.9093 138.007 61.2203C138.253 61.5315 138.202 61.9832 137.893 62.2291L137.447 61.6658C137.875 62.2069 137.892 62.2285 137.893 62.2294L137.892 62.2298L137.888 62.233C137.886 62.235 137.882 62.2378 137.878 62.2414C137.868 62.2487 137.854 62.2595 137.837 62.2731C137.802 62.3004 137.751 62.3395 137.687 62.3885C137.559 62.4866 137.375 62.6245 137.153 62.7852C136.71 63.1054 136.106 63.522 135.472 63.8963C134.851 64.2633 134.151 64.62 133.528 64.7836C133.22 64.8647 132.866 64.9161 132.524 64.8513C132.149 64.7802 131.794 64.5666 131.585 64.1666C131.262 63.5443 131.388 62.8582 131.585 62.3264C131.79 61.7744 132.131 61.2262 132.469 60.7593C132.811 60.2862 133.174 59.8642 133.449 59.5626C133.587 59.4111 133.705 59.2878 133.788 59.2021C133.83 59.1592 133.864 59.1256 133.887 59.1022C133.899 59.0905 133.908 59.0813 133.915 59.0748C133.918 59.0717 133.921 59.0693 133.923 59.0675C133.924 59.0666 133.925 59.0658 133.925 59.0652C133.925 59.0649 133.926 59.0645 133.926 59.0643L133.926 59.0639L133.926 59.0637Z" fill="#1A2E34"/>
</g>
<path d="M95.0457 63.1096C95.0457 63.1096 92.4265 53.3437 89.3254 47.8419C87.5239 44.6463 85.0041 41.8571 82.1174 39.6099C81.2989 38.9727 80.3819 38.4549 79.4111 38.0196C79.6237 37.3924 76.7022 49.5386 76.7529 57.167C76.7926 63.1436 80.5527 88.202 80.8827 86.6474C83.9783 89.09 87.9721 92.9604 92.9307 92.8353C104.655 92.5399 95.0457 63.1096 95.0457 63.1096Z" fill="#3DA881"/>
<path d="M83.344 40.608C83.6095 40.3142 84.0627 40.2922 84.3563 40.5589C86.5551 42.556 88.4786 44.8869 89.9441 47.4864L90.0923 47.7533C91.6207 50.5424 93.0111 54.2715 94.0234 57.3101C94.548 58.8849 94.975 60.2862 95.2708 61.294C95.4188 61.798 95.534 62.2039 95.6124 62.4844C95.6517 62.6246 95.6817 62.7336 95.7019 62.8077C95.7121 62.8448 95.7201 62.873 95.7253 62.8923C95.727 62.8982 95.7283 62.9034 95.7294 62.9076L95.7297 62.9084C95.7345 62.9232 95.7415 62.9451 95.7506 62.9736C95.7689 63.0307 95.7958 63.1149 95.8301 63.2242C95.8985 63.4428 95.997 63.7623 96.118 64.1683C96.3599 64.9804 96.692 66.1397 97.0534 67.5311C97.7753 70.3109 98.618 74.0317 99.0918 77.7712C99.5632 81.4915 99.6807 85.3126 98.8955 88.2526C98.5011 89.7295 97.8654 91.0366 96.8821 91.9897C95.884 92.9572 94.5761 93.512 92.945 93.5532C87.3319 93.6949 83.8578 90.1531 80.7938 87.8641C80.4762 87.6268 80.4102 87.1768 80.6462 86.8588C80.8823 86.5409 81.3312 86.4752 81.6488 86.7124C84.9396 89.1709 87.919 92.243 92.906 92.117C94.2067 92.0842 95.1638 91.6544 95.8846 90.9558C96.6202 90.2427 97.1574 89.2022 97.511 87.8784C98.2219 85.2167 98.1357 81.6241 97.6701 77.9494C97.2069 74.2941 96.38 70.6385 95.6663 67.8906C95.3098 66.5182 94.9824 65.3755 94.7445 64.5769C94.6256 64.1777 94.529 63.8647 94.4624 63.6521C94.4291 63.5458 94.4034 63.4644 94.386 63.4101C94.3773 63.383 94.3707 63.3625 94.3664 63.349C94.3642 63.3423 94.3626 63.3372 94.3616 63.334C94.3611 63.3324 94.3607 63.3312 94.3605 63.3305L94.3602 63.3297C94.3562 63.3175 94.3525 63.3052 94.3492 63.2927L94.3492 63.2924C94.3492 63.2921 94.3487 63.2917 94.3486 63.2912C94.3483 63.2902 94.3479 63.2886 94.3473 63.2866C94.3461 63.2822 94.3445 63.2753 94.342 63.2663C94.3371 63.2482 94.3298 63.2211 94.32 63.1853C94.3004 63.1136 94.2711 63.0071 94.2326 62.8695C94.1557 62.5944 94.0419 62.1943 93.8959 61.6969C93.6037 60.7016 93.1821 59.3174 92.6642 57.7628C91.6241 54.6407 90.2113 50.8788 88.6964 48.1914C87.3141 45.7397 85.492 43.5275 83.395 41.6228C83.1014 41.3561 83.0786 40.9018 83.344 40.608Z" fill="#1A2E34"/>
<path d="M46.2966 97.9447C40.8355 101.172 34.902 110.003 37.091 126.621C30.1763 160.862 31.4629 222.307 31.4629 222.307C31.4629 222.307 54.782 227.142 63.7766 222.307C65.7754 210.825 68.604 136.438 68.604 136.438C68.604 136.438 82.0988 217.648 83.7643 220.28C85.4302 222.911 114.746 218.681 115.745 214.451C114.413 202.969 90.433 105.615 85.3379 100.089C86.2793 98.3035 86.1864 93.934 85.3943 93.1714C82.9946 94.1748 52.4188 93.5654 48.4884 91.2314C46.1007 91.832 46.2352 95.0146 46.2966 97.9447Z" fill="#1A2E34"/>
<path d="M45.6459 115.531C45.7695 115.154 46.1742 114.949 46.5496 115.073C46.9249 115.197 47.1288 115.603 47.0052 115.98C45.95 119.196 44.918 126.146 43.9598 135.111C43.0049 144.045 42.1307 154.899 41.3736 165.865C39.8594 187.797 38.8147 210.154 38.5259 218.453C38.5121 218.85 38.1807 219.16 37.7857 219.146C37.3907 219.132 37.0817 218.8 37.0954 218.403C37.3848 210.088 38.4304 187.714 39.9457 165.765C40.7033 154.791 41.579 143.918 42.5367 134.958C43.4909 126.03 44.5342 118.919 45.6459 115.531Z" fill="white"/>
<path d="M73.4471 100.023C73.8421 100.035 74.1527 100.366 74.141 100.763L73.3796 126.536C73.3741 126.723 73.2964 126.9 73.1632 127.03L69.8247 130.291L69.7382 133.222C69.7264 133.618 69.3967 133.93 69.0016 133.919C68.6066 133.907 68.296 133.575 68.3077 133.179L69.2694 100.617L69.2749 100.547C69.296 100.383 69.373 100.23 69.4939 100.116C69.632 99.9852 69.8162 99.9151 70.0059 99.9207L73.4471 100.023ZM69.8856 128.226L71.9572 126.203L72.6893 101.438L70.679 101.378L69.8856 128.226Z" fill="white"/>
<path d="M48.3493 98.4664C48.4116 98.0746 48.7788 97.8076 49.169 97.8702C51.9484 98.3156 56.3032 98.803 59.9774 99.18C61.8115 99.3682 63.471 99.5283 64.6719 99.6414C65.2723 99.698 65.7581 99.7426 66.0935 99.7733C66.2613 99.7886 66.3916 99.8007 66.4798 99.8086C66.5238 99.8126 66.5574 99.8154 66.5799 99.8175C66.5836 99.8178 66.587 99.8179 66.5902 99.8182L69.9998 99.9202C70.0028 99.9202 70.0062 99.9202 70.0101 99.9202C70.0264 99.9201 70.051 99.9197 70.083 99.9195C70.1472 99.9189 70.2421 99.9181 70.3644 99.9169C70.609 99.9145 70.9638 99.9107 71.4031 99.9055C72.2819 99.895 73.4998 99.8783 74.8553 99.8535C77.57 99.804 80.8239 99.7224 83.017 99.5939C83.4115 99.5709 83.7498 99.8732 83.7729 100.269C83.7959 100.665 83.4948 101.005 83.1002 101.029C80.8754 101.159 77.5957 101.241 74.8813 101.29C73.5222 101.315 72.3013 101.332 71.4203 101.342C70.9798 101.348 70.6239 101.351 70.3783 101.354C70.2555 101.355 70.1601 101.356 70.0955 101.356C70.0633 101.357 70.0387 101.357 70.0222 101.357H69.9701L66.5293 101.254C66.5153 101.254 66.5014 101.253 66.4875 101.252L66.5506 100.536L66.4871 101.252H66.4849C66.4835 101.252 66.4814 101.251 66.4787 101.251C66.4729 101.251 66.464 101.25 66.4526 101.249C66.4298 101.247 66.396 101.244 66.3518 101.24C66.263 101.232 66.132 101.22 65.9637 101.205C65.6271 101.174 65.1401 101.129 64.5384 101.072C63.3347 100.959 61.6708 100.798 59.8318 100.61C56.1599 100.233 51.7674 99.742 48.9431 99.2894C48.5528 99.2268 48.287 98.8582 48.3493 98.4664Z" fill="white"/>
<path d="M73.3723 96.9105C73.3493 97.6889 72.6349 98.2993 71.7767 98.2736C70.9184 98.248 70.2412 97.5962 70.2642 96.8178C70.2872 96.0394 71.0016 95.429 71.8598 95.4546C72.7181 95.4803 73.3953 96.1321 73.3723 96.9105Z" fill="white"/>
<path d="M53.295 107.631C53.4838 107.282 53.9183 107.153 54.2655 107.343C54.6127 107.532 54.7411 107.969 54.5523 108.317C53.3933 110.457 51.722 112.999 49.4206 114.786C47.0921 116.595 44.1148 117.63 40.4429 116.709C40.0594 116.613 39.8262 116.223 39.922 115.838C40.0179 115.453 40.4064 115.219 40.7898 115.315C43.9676 116.112 46.5028 115.236 48.5448 113.65C50.6137 112.042 52.1709 109.706 53.295 107.631Z" fill="white"/>
<path d="M90.4154 46.5792C88.2453 43.6279 85.4122 41.1687 82.2809 39.2929C81.393 38.761 80.422 38.3598 79.4075 38.0472C79.6806 36.7372 79.7139 35.0624 79.4535 34.1944C79.022 32.7575 67.1143 32.4497 64.502 32.9629C62.1335 33.4284 62.5952 35.1567 62.7017 36.8305C58.6979 37.1248 54.644 37.8326 50.7007 38.9566C39.4595 42.1607 38.9949 99.4122 46.5584 92.7951C50.6528 95.2009 76.8891 95.3104 82.6944 93.4179C85.8119 92.4015 86.4443 89.293 86.7218 86.1522C90.0837 88.1963 94.1511 51.6603 90.4154 46.5792Z" fill="#3DA881"/>
<path d="M85.3385 52.2939C85.6583 52.0606 86.1056 52.1316 86.338 52.4526C88.1878 55.0078 89.6129 57.2946 90.3121 59.9729C91.0146 62.6634 90.9676 65.6777 90.0132 69.6765C89.0866 73.559 88.5882 79.0986 87.8822 83.9449C87.5335 86.3383 87.1325 88.5638 86.597 90.2659C86.3295 91.1159 86.0177 91.8715 85.64 92.4621C85.2667 93.046 84.7783 93.547 84.1289 93.7458C83.7508 93.8615 83.3511 93.6477 83.2358 93.2682C83.1205 92.8886 83.3334 92.4872 83.7115 92.3715C83.9002 92.3137 84.1505 92.1316 84.4355 91.6858C84.7163 91.2466 84.9828 90.6256 85.2322 89.8328C85.7304 88.249 86.1182 86.1219 86.4657 83.7369C87.1519 79.0265 87.6754 73.3045 88.6213 69.3414C89.5393 65.4947 89.5527 62.7322 88.9275 60.3375C88.2991 57.9304 87.0088 55.8229 85.1805 53.2973C84.9481 52.9763 85.0188 52.5272 85.3385 52.2939Z" fill="#1A2E34"/>
<path d="M61.956 37.6542C62.1051 37.2867 62.5227 37.1101 62.8887 37.2598C64.9064 38.0852 68.1601 38.5565 71.2797 38.7136C72.8272 38.7916 74.3172 38.7907 75.571 38.7228C76.8423 38.654 77.8173 38.5184 78.3645 38.3483C78.742 38.2311 79.1429 38.4436 79.2598 38.8226C79.3765 39.2016 79.1651 39.6038 78.7877 39.7212C78.0631 39.9463 76.9404 40.0879 75.6481 40.1579C74.3383 40.2288 72.7981 40.2288 71.2078 40.1487C68.0516 39.9897 64.5985 39.5109 62.3488 38.5906C61.9828 38.4409 61.8069 38.0217 61.956 37.6542Z" fill="#1A2E34"/>
<path d="M64.8287 33.7924C64.9937 33.4318 65.4188 33.2737 65.778 33.4393C66.1371 33.6049 66.2946 34.0313 66.1297 34.3919C65.7289 35.2685 65.4864 36.2256 65.3973 36.9987C65.3526 37.3864 65.349 37.7042 65.3738 37.9285C65.3857 38.0362 65.4025 38.1046 65.4149 38.1414C65.6527 38.4107 65.6572 38.8216 65.4123 39.0962C65.1486 39.3918 64.6963 39.4169 64.4018 39.1522C64.2217 38.9903 64.1233 38.7867 64.0662 38.6241C64.0064 38.4538 63.9712 38.2691 63.951 38.0869C63.9107 37.7218 63.9227 37.2893 63.9752 36.8334C64.0807 35.9192 64.3613 34.8146 64.8287 33.7924Z" fill="#1A2E34"/>
<path d="M67.6056 33.7549C67.7909 33.4044 68.2244 33.2713 68.5735 33.4574C68.9225 33.6435 69.0552 34.0784 68.8699 34.4288C68.5214 35.0879 68.3969 36.0779 68.4008 37.043C68.4046 38.0018 68.5327 38.7804 68.5787 38.9398C68.6884 39.3209 68.4696 39.7191 68.0901 39.8295C67.7105 39.9398 67.3136 39.7204 67.2036 39.3393C67.1069 39.0039 66.9737 38.0795 66.9696 37.0489C66.9654 36.0245 67.0858 34.738 67.6056 33.7549Z" fill="#1A2E34"/>
<path d="M70.2925 34.309C70.4072 33.9293 70.8067 33.7148 71.1849 33.8299C71.5631 33.9451 71.7768 34.3461 71.6621 34.7259C71.6097 34.8994 71.5603 35.2329 71.5304 35.691C71.5016 36.1334 71.4938 36.6439 71.5062 37.1427C71.5186 37.6427 71.5511 38.1174 71.5994 38.4893C71.6236 38.6759 71.6502 38.8246 71.6768 38.9323C71.6928 38.9971 71.7047 39.0304 71.7087 39.0413L71.6926 39.0174C71.9157 39.3447 71.8326 39.7918 71.5066 40.0161C71.1805 40.2403 70.7349 40.1567 70.5115 39.8294C70.3906 39.6522 70.3267 39.4359 70.2878 39.2785C70.2435 39.0991 70.2082 38.8922 70.1799 38.6749C70.1233 38.2388 70.0883 37.7118 70.075 37.1787C70.0618 36.6443 70.07 36.0897 70.1022 35.5971C70.1333 35.1203 70.19 34.6488 70.2925 34.309Z" fill="#1A2E34"/>
<path d="M73.5398 39.4866V34.2973C73.5398 33.9005 73.8601 33.5789 74.2554 33.5789C74.6507 33.5789 74.971 33.9005 74.971 34.2973V39.4866C74.971 39.8835 74.6507 40.2051 74.2554 40.2051C73.8601 40.2051 73.5398 39.8835 73.5398 39.4866Z" fill="#1A2E34"/>
<path d="M76.8194 34.1735C77.1979 34.0596 77.5968 34.2754 77.7103 34.6555C78.2139 36.342 77.9581 38.234 77.9271 39.3223C77.9158 39.719 77.586 40.0315 77.1909 40.0201C76.796 40.0087 76.485 39.678 76.4962 39.2814C76.5339 37.9586 76.7552 36.4608 76.3393 35.0679C76.2258 34.6879 76.4408 34.2874 76.8194 34.1735Z" fill="#1A2E34"/>
<path d="M47.5424 60.0021C47.65 59.6202 48.0457 59.398 48.426 59.5061C48.8063 59.6141 49.0273 60.0113 48.9197 60.3932L45.8006 71.4637C45.693 71.8455 45.2973 72.0674 44.917 71.9594C44.5367 71.8514 44.3153 71.4541 44.4229 71.0723L47.5424 60.0021Z" fill="#1A2E34"/>
<path d="M65.8775 16.035C69.2292 12.1928 75.0178 11.8314 78.8026 15.2333C82.5835 18.6307 82.9314 24.4929 79.5843 28.3307C76.2324 32.1732 70.443 32.5338 66.6577 29.1324C62.8775 25.735 62.5303 19.8723 65.8775 16.035ZM77.8483 16.3042C74.6593 13.4375 69.783 13.7388 66.9541 16.9818C64.1219 20.2286 64.4188 25.1913 67.6124 28.0615L67.7632 28.1934C70.9541 30.9176 75.7227 30.5762 78.5074 27.384C81.2953 24.1873 81.0511 19.3293 77.9961 16.4405L77.8483 16.3042Z" fill="#1A2E34"/>
<path d="M73.6834 20.985C73.2277 20.8129 72.72 21.0338 72.5537 21.4948C72.3867 21.9558 72.6255 22.4779 73.0818 22.6494C73.5382 22.8215 74.0346 22.5766 74.2009 22.1156C74.3678 21.6546 74.1398 21.1572 73.6834 20.985Z" fill="#1A2E34"/>
<path d="M78.8815 21.4264C78.4258 21.2543 77.9181 21.4754 77.7518 21.9365C77.5848 22.3975 77.8236 22.9193 78.28 23.0908C78.7357 23.2629 79.2327 23.0177 79.399 22.5566C79.5659 22.0956 79.3373 21.5985 78.8815 21.4264Z" fill="#1A2E34"/>
<path d="M70.1628 23.796C69.9814 23.2698 70.2544 22.6961 70.7729 22.5154C71.2913 22.3351 71.8592 22.6148 72.0412 23.1416C72.2226 23.6679 71.9496 24.2415 71.4311 24.4222C70.9127 24.6026 70.3448 24.3228 70.1628 23.796Z" fill="#3DA881"/>
<path d="M76.198 21.1183C76.5824 21.0265 76.9683 21.2648 77.0599 21.6508L77.9079 25.2298C77.9653 25.4723 77.8935 25.7276 77.7179 25.904C77.5423 26.0804 77.288 26.1527 77.0463 26.0951L75.2311 25.6628C74.8465 25.5713 74.6084 25.1839 74.6996 24.7978C74.7909 24.4118 75.1767 24.1731 75.5612 24.2646L76.2464 24.4277L75.6676 21.9837C75.5761 21.5977 75.8135 21.2102 76.198 21.1183Z" fill="#1A2E34"/>
<path d="M71.703 25.2365C71.7909 24.8496 72.1744 24.6076 72.5598 24.6959C72.921 24.7786 73.1555 25.1222 73.111 25.4836L73.0997 25.551C73.0992 25.5534 73.0979 25.5594 73.0964 25.5686C73.0931 25.5878 73.0882 25.62 73.0843 25.6618C73.0762 25.7472 73.0728 25.8625 73.0876 25.9851C73.1174 26.233 73.2081 26.4355 73.4133 26.5644C73.6361 26.7043 73.9686 26.7242 74.346 26.6491C74.5211 26.6142 74.6767 26.5642 74.7887 26.5228C74.8441 26.5023 74.8872 26.4845 74.9145 26.4727C74.9281 26.4668 74.9379 26.4625 74.9431 26.4602C74.9439 26.4598 74.9444 26.4593 74.945 26.459L74.9472 26.4583C75.3026 26.2877 75.729 26.4376 75.9004 26.7942C76.0722 27.1515 75.9226 27.5813 75.5667 27.7538L75.2556 27.1064C75.5504 27.7197 75.5657 27.752 75.5663 27.7538L75.5659 27.7542L75.5652 27.7545C75.5645 27.7549 75.5635 27.7552 75.5626 27.7556C75.561 27.7564 75.559 27.7575 75.5568 27.7586C75.5521 27.7608 75.546 27.7637 75.5388 27.7671C75.5243 27.7737 75.5046 27.7824 75.4805 27.7928C75.4324 27.8136 75.3655 27.8409 75.2835 27.8713C75.1207 27.9314 74.8912 28.0056 74.6244 28.0587C74.1177 28.1596 73.3386 28.2128 72.654 27.7829C71.9519 27.3419 71.7262 26.6557 71.6663 26.1575C71.6362 25.9071 71.6443 25.6847 71.6593 25.5259C71.6669 25.4457 71.6767 25.3791 71.685 25.33C71.6891 25.3054 71.6929 25.2849 71.696 25.2692C71.6975 25.2615 71.6989 25.2548 71.7 25.2494C71.7006 25.2466 71.7014 25.2441 71.7019 25.242C71.7021 25.241 71.702 25.2399 71.7022 25.2391C71.7023 25.2386 71.7025 25.238 71.7026 25.2376V25.2372C71.7027 25.2369 71.7029 25.2365 72.4006 25.3963L71.703 25.2365Z" fill="#1A2E34"/>
<path d="M53.0138 38.3478C40.8929 41.2775 29.5068 48.0629 23.3893 58.787C13.8724 75.4701 14.7216 87.6903 18.4252 92.0063C26.3701 101.265 42.3934 76.0387 45.0214 65.0924C48.3464 51.2426 54.629 37.9573 53.0138 38.3478Z" fill="#3DA881"/>
<path d="M66.8429 55.2146C67.1131 54.1287 68.1371 53.4069 69.2457 53.5214L88.716 55.5269C90.0738 55.6668 90.9925 56.9831 90.6612 58.3137L83.0631 88.8148C82.7922 89.9005 81.7689 90.6219 80.6602 90.508L61.19 88.5029C59.8322 88.3624 58.9128 87.0467 59.2445 85.7161L66.8429 55.2146Z" fill="white"/>
<path d="M74.5902 74.6895C72.6847 72.1708 75.5108 69.3315 78.0173 71.2433C79.9234 73.7595 77.0973 76.6042 74.5902 74.6895Z" fill="#FFBF45"/>
<path d="M52.6627 82.1565C59.0013 83.4035 60.9676 76.0657 60.9676 76.0657C60.9676 76.0657 62.0816 75.6999 64.7962 76.2717C66.925 76.7203 68.9531 77.575 69.6151 76.6754C70.2778 75.7761 69.0967 73.8918 66.8847 73.0723C64.6728 72.2528 62.6085 72.0196 62.6085 72.0196C62.6085 72.0196 65.9061 72.5369 67.1222 73.0761C70.9619 74.7797 73.5717 73.7004 71.5521 71.4358C70.4948 70.2505 69.6025 69.7078 67.9452 68.9354C66.1521 68.1007 63.3543 67.9422 63.3543 67.9422C63.3543 67.9422 64.8869 67.8181 67.7638 68.4158C69.8526 68.8497 71.692 69.4268 72.3046 68.6351C73.1383 67.5571 73.1408 65.6592 68.3764 64.3571C64.5512 63.3116 59.2265 63.7388 55.6224 66.218C51.1924 69.2658 49.3789 74.7566 49.3789 74.7566" fill="white"/>
<path d="M55.2178 65.6251C59.0299 63.0028 64.5811 62.5752 68.5643 63.6638C70.9894 64.3266 72.4034 65.1873 73.0431 66.1936C73.7421 67.2933 73.4145 68.3718 72.87 69.0759C72.5726 69.4602 72.1538 69.6342 71.752 69.7038C71.4446 69.757 71.1125 69.7554 70.7786 69.727C71.1515 70.0126 71.5062 70.3344 71.8716 70.7231L72.0854 70.9565L72.1867 71.0733C72.681 71.6593 72.9997 72.2913 72.9664 72.9248C72.9266 73.6828 72.409 74.1761 71.7913 74.4147C71.2978 74.6053 70.6927 74.6622 70.034 74.6125C70.4991 75.3514 70.763 76.3262 70.1906 77.1029L70.1903 77.1025C69.8714 77.5356 69.41 77.7132 68.9703 77.768C68.5448 77.8209 68.0772 77.7686 67.6268 77.6858C67.1697 77.6018 66.6714 77.4744 66.1758 77.3463C65.7976 77.2486 65.4166 77.1494 65.0333 77.0602L64.6493 76.9748C63.3412 76.6993 62.4413 76.6545 61.887 76.6724C61.7405 76.6772 61.618 76.6863 61.5184 76.6967C61.448 76.9012 61.3499 77.1674 61.2198 77.4741C60.9209 78.1791 60.4491 79.1151 59.7597 80.0165C58.3699 81.8333 56.0451 83.554 52.5252 82.8615C52.1373 82.7852 51.8844 82.4077 51.9604 82.0182C52.0364 81.6289 52.4124 81.3752 52.8003 81.4515C55.6188 82.006 57.4464 80.6813 58.6245 79.1411C59.2189 78.364 59.6348 77.5432 59.9027 76.9114C60.036 76.597 60.1311 76.3331 60.1921 76.1503C60.2226 76.0589 60.2446 75.988 60.2585 75.9415C60.2654 75.9184 60.2702 75.9012 60.2732 75.8906C60.2746 75.8854 60.2759 75.8815 60.2765 75.8796L60.2768 75.8785C60.3397 75.6445 60.5158 75.4582 60.7452 75.3828L60.9675 76.0656C60.7451 75.3828 60.7455 75.3826 60.7459 75.3825L60.7467 75.3821C60.7472 75.3819 60.7479 75.3819 60.7485 75.3817C60.7497 75.3813 60.7509 75.3807 60.7522 75.3803C60.7548 75.3794 60.7578 75.3787 60.761 75.3777C60.7673 75.3757 60.7748 75.3735 60.7834 75.371C60.8006 75.3661 60.8227 75.3603 60.849 75.3537C60.9017 75.3407 60.9727 75.3248 61.0628 75.3092C61.2433 75.278 61.5003 75.2473 61.8408 75.2363C62.5221 75.2142 63.5366 75.2722 64.943 75.5684C65.4942 75.6846 66.0374 75.8267 66.5327 75.9547C67.0367 76.085 67.4859 76.1992 67.8847 76.2725C68.2901 76.347 68.5868 76.3675 68.7943 76.3417C68.9872 76.3177 69.0275 76.2651 69.0397 76.2486C69.0805 76.1932 69.1856 75.879 68.7459 75.262C68.3483 74.7043 67.6219 74.1113 66.6369 73.7464C65.7917 73.4332 64.9655 73.2089 64.2759 73.0515C64.2734 73.051 64.271 73.0505 64.2685 73.05C63.7884 72.9533 63.3449 72.8731 63.0211 72.8169C62.8594 72.7888 62.7278 72.767 62.6371 72.7521C62.5917 72.7446 62.5565 72.7389 62.5329 72.7351L62.4999 72.7296H62.4981C62.1135 72.6693 61.8473 72.3112 61.8991 71.9239C61.9509 71.5366 62.3017 71.262 62.6884 71.3056H62.6895C62.69 71.3057 62.691 71.3059 62.6917 71.306C62.6932 71.3062 62.6952 71.3064 62.6976 71.3067C62.7026 71.3073 62.7096 71.3079 62.7185 71.3089C62.7363 71.3111 62.7618 71.3146 62.7944 71.3189C62.8597 71.3274 62.9538 71.3402 63.0728 71.3583C63.3109 71.3945 63.6496 71.4513 64.0587 71.5343C64.2226 71.5675 64.3983 71.6055 64.5836 71.6477C65.5412 71.8415 66.7279 72.1157 67.4115 72.4188L67.7482 72.5621C68.5232 72.8777 69.2237 73.0641 69.815 73.145C70.5034 73.2391 70.9923 73.1837 71.2774 73.0736C71.5392 72.9724 71.5356 72.8776 71.5371 72.8493C71.5429 72.7391 71.4771 72.429 71.0188 71.9151C70.0523 70.8317 69.2568 70.3386 67.644 69.587C66.8404 69.2129 65.7726 68.9769 64.8675 68.8358C64.4224 68.7664 64.031 68.722 63.7514 68.6951C63.6117 68.6817 63.5004 68.6728 63.4249 68.6671C63.3873 68.6643 63.3586 68.6625 63.3398 68.6613C63.3305 68.6606 63.3236 68.66 63.3193 68.6598C63.3171 68.6596 63.3154 68.6595 63.3145 68.6594H63.3138C62.9383 68.638 62.6435 68.3285 62.6389 67.9509C62.6344 67.5732 62.9219 67.2562 63.2969 67.2258L63.3545 67.9421C63.297 67.2259 63.2967 67.2258 63.2969 67.2258H63.2988C63.2994 67.2258 63.3001 67.2255 63.301 67.2255C63.3027 67.2253 63.3048 67.2253 63.3072 67.2251C63.3121 67.2247 63.3187 67.2245 63.3266 67.224C63.3426 67.223 63.3648 67.2216 63.3927 67.2203C63.4483 67.2177 63.5275 67.2149 63.63 67.2137C63.8352 67.2112 64.1336 67.2148 64.522 67.2376C65.299 67.2833 66.436 67.4063 67.9089 67.7123C69.0062 67.9402 69.916 68.1771 70.6762 68.272C71.0479 68.3184 71.3196 68.3206 71.5088 68.2878C71.6888 68.2567 71.7301 68.206 71.7392 68.1943C72.0284 67.8204 72.1188 67.4108 71.8364 66.9666C71.4946 66.429 70.5275 65.6895 68.1884 65.0502C64.5212 64.048 59.4229 64.4748 56.0269 66.8108C53.9334 68.2512 52.4374 70.2859 51.4593 71.9891C50.9726 72.8367 50.6201 73.5921 50.3898 74.1334C50.2748 74.4037 50.1904 74.6199 50.1356 74.7668C50.1082 74.8402 50.0883 74.8962 50.0755 74.9328C50.0691 74.9511 50.0644 74.9646 50.0615 74.973C50.0601 74.9772 50.0591 74.9802 50.0586 74.9818C50.0583 74.9826 50.0583 74.9831 50.0582 74.9833C49.9338 75.3598 49.5288 75.5636 49.1537 75.4388C48.7786 75.3139 48.5752 74.907 48.6997 74.5303L49.3789 74.7564C48.6997 74.5303 48.6996 74.5306 48.6997 74.5303L48.7 74.5296C48.7001 74.5292 48.7002 74.5286 48.7004 74.5281C48.7008 74.527 48.7012 74.5252 48.7019 74.5233C48.7031 74.5197 48.7049 74.5148 48.707 74.5086C48.7113 74.4961 48.7174 74.4782 48.7253 74.4556C48.7412 74.4103 48.7645 74.3453 48.7954 74.2626C48.8571 74.0973 48.9492 73.8608 49.0734 73.5689C49.3216 72.9854 49.6992 72.1775 50.2196 71.2714C51.2557 69.4672 52.8815 67.2325 55.2178 65.6251Z" fill="#1A2E34"/>
<path d="M17.9333 84.8129C16.8508 87.1566 16.6643 89.9541 18.4252 92.0064C26.3701 101.265 38.995 99.4123 46.5585 92.7953C48.4278 93.8936 56.9204 77.3191 49.6451 73.6321C47.423 72.506 44.3515 71.9462 40.9742 72.6158C31.1887 74.5561 18.9169 82.6837 17.9333 84.8129Z" fill="#3DA881"/>
<path d="M18.4253 92.0065C28.4442 103.682 45.9144 97.6961 51.2782 86.7558C56.642 75.8155 49.2858 71.2938 43.7689 72.0149" fill="#3DA881"/>
<path d="M40.927 71.3763C44.1233 70.7644 47.5223 70.9023 50.0625 72.5344V72.5348C52.6846 74.2198 53.7046 76.7755 53.7836 79.4316C53.8617 82.0601 53.0261 84.8177 51.9203 87.0731C49.132 92.7602 43.2305 97.117 36.7527 98.5635C30.2482 100.016 23.0918 98.5455 17.8831 92.4753C17.6252 92.1747 17.6586 91.7213 17.9579 91.4622C18.2573 91.2033 18.7093 91.2368 18.9673 91.5373C23.7775 97.1431 30.3657 98.5177 36.442 97.1608C42.5449 95.798 48.0607 91.6914 50.6362 86.4383C51.6774 84.3145 52.4217 81.794 52.3527 79.4744C52.2846 77.1823 51.4303 75.1196 49.2912 73.7448C47.1939 72.3973 44.2281 72.2071 41.1952 72.7878C38.1774 73.3655 35.2347 74.6813 33.2829 76.1602C32.9674 76.3992 32.5186 76.3362 32.2805 76.0195C32.0424 75.7027 32.1051 75.2521 32.4206 75.0131C34.5648 73.3885 37.7158 71.9911 40.927 71.3763Z" fill="#1A2E34"/>
</g>
</g>
<defs>
<clipPath id="clip0_8265_514">
<rect width="160" height="137" fill="white"/>
</clipPath>
</defs>
</svg>
