<svg width="197" height="165" viewBox="0 0 197 165" fill="none" xmlns="http://www.w3.org/2000/svg">
<path d="M180 149.641C180 150.15 179.595 150.558 179.088 150.558H176.014V158.102C176.014 160.549 176.081 162.18 178.716 162.18C178.885 162.18 179.054 162.18 179.189 162.18C179.628 162.146 180 162.485 180 162.927V164.184C180 164.592 179.696 164.898 179.324 164.932C179.02 164.966 178.682 165 178.345 165C174.595 165 172.939 162.995 172.939 159.189V150.558H170.912C170.405 150.558 170 150.15 170 149.641V148.519C170 148.01 170.405 147.602 170.912 147.602H172.939V144.883C172.939 144.408 173.345 144 173.851 144H175.101C175.608 144 176.014 144.408 176.014 144.883V147.602H179.088C179.595 147.602 180 148.01 180 148.519V149.641Z" fill="#3EA981"/>
<path d="M144.667 148C149.034 148 153.164 151.266 152.995 156.644C152.995 157.252 152.453 157.765 151.81 157.765H139.25C139.758 160.422 141.823 162.247 145.208 162.247C146.766 162.247 148.221 161.734 149.237 160.87C149.542 160.614 149.982 160.582 150.32 160.806L151.336 161.414C151.844 161.702 151.912 162.343 151.539 162.727C149.982 164.2 147.781 165 145.208 165C139.521 165 136 161.19 136 156.516C136 151.81 139.622 148 144.667 148ZM139.25 155.235H149.779C149.373 152.514 147.578 150.753 144.667 150.753C141.721 150.753 139.724 152.546 139.25 155.235Z" fill="#3EA981"/>
<path d="M115 140.964C115 140.429 115.527 140 116.187 140H117.857C118.516 140 119 140.429 119 140.964V164.036C119 164.571 118.516 165 117.857 165H116.187C115.527 165 115 164.571 115 164.036V140.964Z" fill="#3EA981"/>
<path d="M94 140.964C94 140.429 94.5275 140 95.1868 140H96.8571C97.5165 140 98 140.429 98 140.964V164.036C98 164.571 97.5165 165 96.8571 165H95.1868C94.5275 165 94 164.571 94 164.036V140.964Z" fill="#3EA981"/>
<path d="M74.0379 149.249C74.0379 148.768 74.4242 148.384 74.9072 148.384H76.1307C76.6136 148.384 77 148.768 77 149.249V163.751C77 164.232 76.6136 164.616 76.1307 164.616H74.9072C74.4242 164.616 74.0379 164.232 74.0379 163.751V162.343C72.8466 163.847 70.947 165 68.1136 165C63.0265 165 60 160.742 60 156.516C60 152.258 63.0265 148 68.1136 148C70.947 148 72.8466 149.153 74.0379 150.657V149.249ZM68.4034 162.247C72.0095 162.247 74.0379 159.718 74.0379 156.516C74.0379 153.282 72.0095 150.753 68.4034 150.753C65.0227 150.753 62.9943 153.218 62.9943 156.516C62.9943 159.782 65.0227 162.247 68.4034 162.247Z" fill="#3EA981"/>
<path d="M39.6427 148.838C39.7767 148.335 40.2457 148 40.7816 148H42.2556C42.7581 148 43.1266 148.503 42.9591 149.006L37.8672 164.195C37.6998 164.665 37.2643 165 36.7283 165H35.5893C35.0534 165 34.6179 164.665 34.4504 164.162L31 153.432L27.5831 164.162C27.4156 164.665 26.9467 165 26.4442 165H25.2717C24.7692 165 24.3002 164.665 24.1663 164.195L19.0409 149.006C18.8734 148.503 19.2419 148 19.7444 148H21.2519C21.7543 148 22.2233 148.335 22.3908 148.838L25.9082 160.54L29.6935 148.637C29.8275 148.268 30.1625 148 30.5645 148H31.469C31.8375 148 32.206 148.268 32.3065 148.637L36.0918 160.54L39.6427 148.838Z" fill="#3EA981"/>
<path d="M101.937 26.6215L87.7835 36.0569C85.4246 37.5733 82.3918 37.2364 80.3699 35.383C75.3152 30.6652 68.5756 27.8009 59.9826 27.8009C50.4853 27.8009 43.1504 31.3561 38.0002 36.832C32.0075 43.2122 28.9803 52.1871 28.9803 61.162C28.9803 77.8425 39.4267 94.5231 59.9826 94.5231C70.502 94.5231 78.0335 90.8107 83.0601 85.1101C83.1163 85.1101 83.1668 85.1045 83.2174 85.1045C84.5148 85.1326 85.6661 85.5089 86.5423 86.1884C87.2948 86.7725 87.8116 87.542 88.098 88.4855L93.9951 109.721C91.5408 112.074 88.8169 114.13 85.8121 115.854C78.7692 119.909 70.1931 122.156 59.9826 122.156C25.1051 122.156 0 96.0395 0 61.162C0 58.7357 0.117943 56.3544 0.365062 54.018C3.14515 26.3575 22.1059 5.50402 48.7836 0.93793C52.3837 0.320132 56.1241 0 59.9826 0C77.3371 0 92.3327 6.57112 102.948 17.3545C105.475 20.0504 105.138 24.5996 101.937 26.6215Z" fill="#173A48"/>
<path fill-rule="evenodd" clip-rule="evenodd" d="M87.8679 49.0932L77.6176 51.6542L75.9308 52.079L75.0341 52.3002L67.345 54.221L65.871 54.5877L65.4507 54.6925L65.0752 54.7856L65.1033 54.7854L65.7108 54.2521L66.2917 53.882L67.4088 53.1757L67.7108 53.0214L68.9017 52.4044L68.9576 52.3759L73.4977 50.0221L74.8619 49.3137L75.695 48.8796L79.5473 46.8857L79.8604 46.7201C80.8056 46.2625 81.8481 46.0175 82.9268 46.0473C85.1346 46.1066 86.9481 47.3096 87.8677 49.0707C87.8677 49.0707 87.8677 49.0707 87.8678 49.0764L87.8679 49.0932Z" fill="#3EA981"/>
<path fill-rule="evenodd" clip-rule="evenodd" d="M95.7189 56.2137L95.4832 56.227L82.3808 56.3529L67.0096 56.5042L66.4031 56.5095L66.1841 56.5114L66.9158 56.0501L67.6548 55.774L67.9518 55.704L77.1816 53.343L80.6678 52.5037L83.3637 51.8566L86.5304 51.0932L87.9091 50.761L88.918 50.5162C89.0975 50.4866 89.277 50.4682 89.4566 50.4554C89.5353 50.4547 89.6082 50.4428 89.6868 50.4421C89.8441 50.4407 90.0013 50.4394 90.1586 50.438C93.3666 50.5559 95.7139 53.0685 95.7132 56.2025L95.7189 56.2137Z" fill="#3EA981"/>
<path d="M160.5 48C181.836 48 197 63.3477 197 83.5C197 103.519 181.836 119 160.5 119C139.298 119 124 103.519 124 83.5C124 63.3477 139.298 48 160.5 48ZM160.5 97.9135C169.357 97.9135 175.127 91.3741 175.127 83.5C175.127 75.6259 169.357 68.953 160.5 68.953C151.778 68.953 146.007 75.6259 146.007 83.5C146.007 91.3741 151.778 97.9135 160.5 97.9135Z" fill="#173A48"/>
<path d="M116.314 64.3127V117.893C116.314 120.757 113.956 123.116 111.091 123.116H105.98C103.622 123.116 101.6 121.431 100.926 119.241L98.6735 112.012C98.6117 111.659 98.5275 111.299 98.4208 110.945L97.1515 106.368L91.8777 87.3959C91.3442 85.5987 90.3164 84.1384 88.9572 83.0882C88.0249 82.3637 86.941 81.8357 85.7503 81.5212C84.9416 81.2965 84.0766 81.1842 83.178 81.173C82.7063 81.1898 82.2289 81.2011 81.7515 81.2011C81.173 81.2011 80.5833 81.1842 79.9992 81.1618H66.6098C63.4534 81.1618 60.7857 78.5389 60.7126 75.2365V64.3127C60.7126 60.9429 63.4085 58.2471 66.6098 58.2471H110.417C113.619 58.2471 116.314 60.9429 116.314 64.3127Z" fill="#3EA981"/>
</svg>
