<svg width="20" height="20" viewBox="0 0 20 20" fill="none" xmlns="http://www.w3.org/2000/svg">
<g clip-path="url(#clip0_8066_4560)">
<path d="M16.6667 13.3334C16.6667 14.0234 16.1067 14.5834 15.4167 14.5834C14.7267 14.5834 14.1667 14.0234 14.1667 13.3334C14.1667 12.6434 14.7267 12.0834 15.4167 12.0834C16.1067 12.0834 16.6667 12.6434 16.6667 13.3334ZM19.1667 6.66678C18.7058 6.66678 18.3333 7.04011 18.3333 7.50011V17.5001C18.3333 17.9593 17.96 18.3334 17.5 18.3334H4.16667C2.78833 18.3334 1.66667 17.2118 1.66667 15.8334V7.50011V7.49594C2.37833 8.02928 3.2525 8.33344 4.16583 8.33344H12.4992C12.96 8.33344 13.3325 7.96011 13.3325 7.50011C13.3325 7.04011 12.96 6.66678 12.4992 6.66678H4.16667C3.45333 6.66678 2.78917 6.34928 2.31917 5.83011C2.77667 5.32428 3.43167 5.00011 4.16667 5.00011H10C10.4608 5.00011 10.8333 4.62678 10.8333 4.16678C10.8333 3.70678 10.4608 3.33344 10 3.33344H4.16667C1.66667 3.33344 0 5.41678 0 7.50011V15.8334C0 18.1309 1.86917 20.0001 4.16667 20.0001H17.5C18.8783 20.0001 20 18.8784 20 17.5001V7.50011C20 7.04011 19.6275 6.66678 19.1667 6.66678ZM13.9192 3.50928L15 2.44178V7.50011C15 7.96011 15.3725 8.33344 15.8333 8.33344C16.2942 8.33344 16.6667 7.96011 16.6667 7.50011V2.45678L17.7525 3.51344C17.9142 3.67094 18.1233 3.75011 18.3333 3.75011C18.5508 3.75011 18.7675 3.66594 18.9308 3.49844C19.2517 3.16844 19.245 2.64094 18.9142 2.32011L17.0583 0.513444C16.3742 -0.169056 15.265 -0.168222 14.5833 0.510111L12.7467 2.32428C12.4192 2.64761 12.4167 3.17511 12.7392 3.50261C13.0642 3.83094 13.59 3.83261 13.9183 3.51011L13.9192 3.50928Z" fill="#173A48"/>
</g>
<defs>
<clipPath id="clip0_8066_4560">
<rect width="20" height="20" fill="white"/>
</clipPath>
</defs>
</svg>
