<svg width="24" height="25" viewBox="0 0 24 25" fill="none" xmlns="http://www.w3.org/2000/svg">
<path d="M16.539 16.1652C16.407 16.1657 16.2761 16.1401 16.1541 16.0898C16.032 16.0396 15.9211 15.9656 15.8278 15.8723C15.7344 15.7789 15.6605 15.668 15.6102 15.546C15.5599 15.4239 15.5343 15.2931 15.5349 15.1611L15.5349 10.5083L8.46381 17.5794C8.27627 17.7669 8.02192 17.8723 7.7567 17.8723C7.49149 17.8723 7.23713 17.7669 7.0496 17.5794C6.86206 17.3918 6.7567 17.1375 6.7567 16.8723C6.7567 16.6071 6.86206 16.3527 7.0496 16.1652L14.1207 9.0941H9.4679C9.33589 9.09464 9.20508 9.06904 9.08301 9.01877C8.96095 8.9685 8.85004 8.89456 8.7567 8.80122C8.66335 8.70787 8.58941 8.59696 8.53914 8.4749C8.48887 8.35283 8.46327 8.22202 8.46381 8.09001C8.4646 7.82582 8.56989 7.57269 8.7567 7.38588C8.94351 7.19907 9.19665 7.09377 9.46083 7.09299L15.5349 7.10006C16.0645 7.09848 16.573 7.307 16.9491 7.67989C17.3177 8.05534 17.5234 8.5609 17.5218 9.08703L17.5289 15.1611C17.53 15.4253 17.4265 15.6792 17.241 15.8673C17.0555 16.0554 16.8032 16.1625 16.539 16.1652Z" fill="#DE4949"/>
</svg>
